<?xml version="1.0" encoding="UTF-8"?>
<!--Generator: Apple Native CoreSVG 232.5-->
<!DOCTYPE svg
PUBLIC "-//W3C//DTD SVG 1.1//EN"
       "http://www.w3.org/Graphics/SVG/1.1/DTD/svg11.dtd">
<svg version="1.1" xmlns="http://www.w3.org/2000/svg" xmlns:xlink="http://www.w3.org/1999/xlink" width="24.673" height="20.273">
 <g>
  <rect height="20.273" opacity="0" width="24.673" x="0" y="0"/>
  <path d="M3.20351 15.6205L16.5328 15.6205C18.6344 15.6205 19.7363 14.5328 19.7363 12.449L19.7363 3.17148C19.7363 1.08769 18.6344 0 16.5328 0L3.20351 0C1.08769 0 0 1.08769 0 3.17148L0 12.449C0 14.5408 1.08769 15.6205 3.20351 15.6205ZM3.31444 13.7072C2.40643 13.7072 1.91327 13.2371 1.91327 12.2883L1.91327 3.34023C1.91327 2.39139 2.40643 1.91327 3.31444 1.91327L16.4139 1.91327C17.3139 1.91327 17.8231 2.39139 17.8231 3.34023L17.8231 12.2883C17.8231 13.2371 17.3139 13.7072 16.4139 13.7072Z" fill="#007aff"/>
  <path d="M8.14022 20.2615L21.4678 20.2615C23.5693 20.2615 24.673 19.1756 24.673 17.09L24.673 7.81425C24.673 5.73046 23.5693 4.64277 21.4678 4.64277L8.14022 4.64277C6.02265 4.64277 4.93496 5.73046 4.93496 7.81425L4.93496 17.09C4.93496 19.1836 6.02265 20.2615 8.14022 20.2615Z" fill="#1e1e1e"/>
  <path d="M8.14022 20.2615L21.4678 20.2615C23.5693 20.2615 24.673 19.1756 24.673 17.09L24.673 7.81425C24.673 5.73046 23.5693 4.64277 21.4678 4.64277L8.14022 4.64277C6.02265 4.64277 4.93496 5.73046 4.93496 7.81425L4.93496 17.09C4.93496 19.1836 6.02265 20.2615 8.14022 20.2615ZM8.25116 18.3482C7.34139 18.3482 6.84822 17.8799 6.84822 16.931L6.84822 7.98299C6.84822 7.03241 7.34139 6.55604 8.25116 6.55604L21.3488 6.55604C22.2506 6.55604 22.7598 7.03241 22.7598 7.98299L22.7598 16.931C22.7598 17.8799 22.2506 18.3482 21.3488 18.3482Z" fill="#ffffff" fill-opacity="0.55"/>
  <path d="M8.90604 11.2342C8.14842 11.6973 8.80135 12.8638 9.63084 12.3306L11.8844 10.926C12.4203 10.5844 12.3928 9.79823 11.8844 9.47616L9.63084 8.0617C8.80311 7.53827 8.14042 8.69686 8.90428 9.15818L10.616 10.2002ZM12.2334 12.2306C12.2334 12.5793 12.5084 12.8721 12.8748 12.8721L15.875 12.8721C16.2254 12.8721 16.5004 12.5793 16.5004 12.2306C16.5004 11.874 16.2254 11.5973 15.875 11.5973L12.8748 11.5973C12.5119 11.5973 12.2334 11.874 12.2334 12.2306Z" fill="#ffffff" fill-opacity="0.55"/>
 </g>
</svg>
