<?xml version="1.0" encoding="UTF-8"?>
<!--Generator: Apple Native CoreSVG 232.5-->
<!DOCTYPE svg
PUBLIC "-//W3C//DTD SVG 1.1//EN"
       "http://www.w3.org/Graphics/SVG/1.1/DTD/svg11.dtd">
<svg version="1.1" xmlns="http://www.w3.org/2000/svg" xmlns:xlink="http://www.w3.org/1999/xlink" width="20.1767" height="20.1812">
 <g>
  <rect height="20.1812" opacity="0" width="20.1767" x="0" y="0"/>
  <path d="M10.0875 20.175C15.6141 20.175 20.1767 15.606 20.1767 10.0875C20.1767 4.56094 15.606 0 10.0795 0C4.56269 0 0 4.56094 0 10.0875C0 15.606 4.5707 20.175 10.0875 20.175ZM10.0875 18.1879C5.59237 18.1879 1.9951 14.5826 1.9951 10.0875C1.9951 5.59237 5.58437 1.9871 10.0795 1.9871C14.5746 1.9871 18.1897 5.59237 18.1897 10.0875C18.1897 14.5826 14.5826 18.1879 10.0875 18.1879Z" fill="#007aff"/>
  <path d="M5.03397 7.44531C5.03397 7.67949 5.21405 7.88984 5.50507 7.88984L14.6654 7.88984C14.9564 7.88984 15.1365 7.67949 15.1365 7.44531C15.1365 7.27246 15.0461 7.12695 14.8508 7.01953L10.7098 4.64042C10.5029 4.51347 10.2961 4.45488 10.0795 4.45488C9.8664 4.45488 9.66582 4.51523 9.46074 4.64042L5.31171 7.01953C5.1244 7.12695 5.03397 7.27246 5.03397 7.44531ZM5.63105 12.9143C5.63105 13.1387 5.77382 13.2797 6.00624 13.2797L7.21171 13.2797C7.43437 13.2797 7.57714 13.1387 7.57714 12.9143L7.57714 12.7908C7.57714 12.5859 7.43788 12.4307 7.21699 12.4307L7.00976 12.4307L7.00976 9.31952L7.21699 9.31952C7.43788 9.31952 7.57714 9.18827 7.57714 8.96738L7.57714 8.8457C7.57714 8.61952 7.43437 8.47851 7.21171 8.47851L6.00624 8.47851C5.77382 8.47851 5.63105 8.61952 5.63105 8.8457L5.63105 8.96738C5.63105 9.18827 5.7703 9.31952 5.99921 9.31952L6.20644 9.31952L6.20644 12.4307L5.99921 12.4307C5.7703 12.4307 5.63105 12.5859 5.63105 12.7908ZM7.97167 12.9143C7.97167 13.1387 8.10644 13.2797 8.32909 13.2797L9.54257 13.2797C9.77499 13.2797 9.91777 13.1387 9.91777 12.9143L9.91777 12.7908C9.91777 12.5859 9.7705 12.4307 9.5496 12.4307L9.34238 12.4307L9.34238 9.31952L9.5496 9.31952C9.77851 9.31952 9.91777 9.18827 9.91777 8.96738L9.91777 8.8457C9.91777 8.61952 9.76699 8.47851 9.54257 8.47851L8.32909 8.47851C8.10644 8.47851 7.97167 8.61952 7.97167 8.8457L7.97167 8.96738C7.97167 9.18827 8.10292 9.31952 8.32382 9.31952L8.53906 9.31952L8.53906 12.4307L8.32382 12.4307C8.10292 12.4307 7.97167 12.5859 7.97167 12.7908ZM10.3025 12.9143C10.3025 13.1387 10.4453 13.2797 10.676 13.2797L11.8814 13.2797C12.0961 13.2797 12.2549 13.1387 12.2549 12.9143L12.2549 12.7908C12.2549 12.5859 12.0996 12.4307 11.8867 12.4307L11.6732 12.4307L11.6732 9.31952L11.8867 9.31952C12.0996 9.31952 12.2549 9.18827 12.2549 8.96738L12.2549 8.8457C12.2549 8.61952 12.0961 8.47851 11.8814 8.47851L10.676 8.47851C10.4453 8.47851 10.3025 8.61952 10.3025 8.8457L10.3025 8.96738C10.3025 9.18827 10.44 9.31952 10.6689 9.31952L10.8762 9.31952L10.8762 12.4307L10.6689 12.4307C10.44 12.4307 10.3025 12.5859 10.3025 12.7908ZM12.6316 12.9143C12.6316 13.1387 12.7744 13.2797 13.0051 13.2797L14.2105 13.2797C14.435 13.2797 14.5857 13.1387 14.5857 12.9143L14.5857 12.7908C14.5857 12.5859 14.4305 12.4307 14.2176 12.4307L14.0103 12.4307L14.0103 9.31952L14.2176 9.31952C14.4385 9.31952 14.5857 9.18827 14.5857 8.96738L14.5857 8.8457C14.5857 8.61952 14.427 8.47851 14.2105 8.47851L13.0051 8.47851C12.7744 8.47851 12.6316 8.61952 12.6316 8.8457L12.6316 8.96738C12.6316 9.18827 12.7709 9.31952 12.9998 9.31952L13.215 9.31952L13.215 12.4307L12.9998 12.4307C12.7709 12.4307 12.6316 12.5859 12.6316 12.7908ZM4.80683 14.3182C4.80683 14.5621 5.00644 14.7617 5.24862 14.7617L14.9219 14.7617C15.1641 14.7617 15.3637 14.5621 15.3637 14.3182C15.3637 14.068 15.1721 13.8666 14.9219 13.8666L5.24862 13.8666C5.00644 13.8666 4.80683 14.068 4.80683 14.3182Z" fill="#ffffff" fill-opacity="0.55"/>
 </g>
</svg>
