<?xml version="1.0" encoding="UTF-8"?>
<!--Generator: Apple Native CoreSVG 232.5-->
<!DOCTYPE svg
PUBLIC "-//W3C//DTD SVG 1.1//EN"
       "http://www.w3.org/Graphics/SVG/1.1/DTD/svg11.dtd">
<svg version="1.1" xmlns="http://www.w3.org/2000/svg" xmlns:xlink="http://www.w3.org/1999/xlink" width="21.9812" height="21.6579">
 <g>
  <rect height="21.6579" opacity="0" width="21.9812" x="0" y="0"/>
  <path d="M10.9826 20.3235C11.2047 20.3235 11.4268 20.312 11.6523 20.2942L12.1869 21.3002C12.3146 21.5627 12.5842 21.6993 12.891 21.6452C13.1828 21.5928 13.3947 21.3694 13.4293 21.0661L13.598 19.9508C14.0262 19.8389 14.4445 19.6799 14.8531 19.5067L15.6807 20.2383C15.8988 20.4352 16.2057 20.4956 16.4877 20.335C16.7387 20.1887 16.8601 19.9049 16.7865 19.6034L16.5619 18.5157C16.9137 18.2545 17.2672 17.9659 17.5869 17.6594L18.6098 18.0856C18.906 18.2036 19.1933 18.1264 19.408 17.879C19.5818 17.6626 19.6181 17.3557 19.4541 17.0932L18.8654 16.1387C19.1053 15.7772 19.3273 15.3864 19.5316 14.9795L20.6504 15.0204C20.9359 15.0399 21.218 14.8803 21.3066 14.5805C21.4051 14.3002 21.3066 14.0077 21.0787 13.8258L20.2086 13.1333C20.3187 12.7051 20.3969 12.2575 20.4359 11.7973L21.4846 11.4573C21.7879 11.3606 21.9812 11.1274 21.9812 10.8241C21.9812 10.5128 21.7879 10.2876 21.4846 10.1891L20.4359 9.85084C20.3969 9.38892 20.3187 8.95279 20.2086 8.5149L21.0769 7.81431C21.2986 7.63873 21.4051 7.35767 21.3066 7.07916C21.218 6.7776 20.9359 6.61979 20.6504 6.63756L19.5316 6.66861C19.3273 6.26002 19.1053 5.87896 18.8654 5.49791L19.4541 4.54693C19.6066 4.30396 19.5818 3.99537 19.408 3.77897C19.1933 3.5235 18.9078 3.45436 18.616 3.57233L17.5834 3.97897C17.2672 3.69205 16.9137 3.39537 16.5619 3.13248L16.7865 2.05279C16.8521 1.73346 16.7369 1.45592 16.4842 1.32116C16.2039 1.16237 15.8971 1.20495 15.6807 1.40983L14.8531 2.13522C14.4445 1.96823 14.0244 1.81901 13.598 1.69733L13.4293 0.591857C13.3947 0.288538 13.1828 0.0651018 12.8875 0.0110004C12.5842-0.0413432 12.3101 0.0969372 12.1887 0.344397L11.6523 1.35397C11.4268 1.33444 11.2047 1.32643 10.9826 1.32643C10.7508 1.32643 10.5367 1.33444 10.3049 1.35397L9.77655 0.346155C9.6453 0.0951795 9.37929-0.0413432 9.07245 0.0127582C8.78066 0.0651018 8.58652 0.288538 8.53593 0.591857L8.36543 1.68932C7.93906 1.81901 7.51894 1.96823 7.10409 2.13522L6.28632 1.41959C6.06015 1.20495 5.75957 1.16237 5.46953 1.32116C5.22656 1.45592 5.11133 1.73346 5.17695 2.05455L5.39355 3.13248C5.0498 3.39537 4.68828 3.69205 4.37031 3.97897L3.34746 3.57233C3.05566 3.45436 2.77011 3.5235 2.55547 3.77897C2.38164 3.99537 2.34883 4.30396 2.50137 4.54693L3.09805 5.49791C2.8582 5.87896 2.64414 6.26002 2.43183 6.66861L1.31484 6.63756C1.01953 6.61979 0.745507 6.7776 0.656835 7.0774C0.560156 7.35767 0.648828 7.64048 0.884764 7.81431L1.75488 8.51666C1.64473 8.95279 1.56836 9.38892 1.5373 9.85084L0.470896 10.1891C0.167577 10.2795 0 10.5128 0 10.8241C0 11.1354 0.167577 11.3606 0.470896 11.4573L1.5373 11.7973C1.56836 12.2575 1.64473 12.7051 1.75488 13.1333L0.886522 13.8258C0.648828 14.0094 0.560156 14.3002 0.656835 14.5788C0.745507 14.8803 1.01953 15.0399 1.3166 15.0204L2.43183 14.9795C2.64414 15.3864 2.8582 15.7772 3.09805 16.1387L2.50762 17.095C2.35508 17.354 2.37363 17.6626 2.55547 17.879C2.77011 18.1264 3.05566 18.2036 3.35722 18.0838L4.36855 17.6594C4.68828 17.9659 5.0498 18.2545 5.39355 18.5157L5.17695 19.6051C5.12285 19.9049 5.2248 20.1887 5.47304 20.3368C5.75781 20.4956 6.06015 20.437 6.28456 20.2401L7.10409 19.5067C7.51894 19.6799 7.9373 19.8389 8.36543 19.9588L8.53593 21.0661C8.58652 21.3694 8.78066 21.5928 9.07773 21.6469C9.37929 21.6993 9.6453 21.561 9.77655 21.302L10.3049 20.2942C10.5287 20.312 10.7508 20.3235 10.9826 20.3235ZM10.9826 18.477C6.71522 18.477 3.41952 15.0835 3.41952 10.8321C3.41952 6.57271 6.71522 3.16939 10.9826 3.16939C15.25 3.16939 18.5635 6.57271 18.5635 10.8321C18.5635 15.0835 15.25 18.477 10.9826 18.477ZM9.11816 9.25963L10.4674 8.4112L7.2953 2.96314L5.87968 3.71607ZM13.2974 11.6059L19.6246 11.6059L19.6246 10.0157L13.2992 10.0157ZM10.4746 13.2575L9.14219 12.3887L5.77851 17.8887L7.17909 18.6745ZM10.9666 13.5542C12.4723 13.5542 13.6887 12.3475 13.6887 10.8401C13.6887 9.33443 12.4723 8.11803 10.9666 8.11803C9.45918 8.11803 8.25254 9.33443 8.25254 10.8401C8.25254 12.3475 9.45918 13.5542 10.9666 13.5542ZM10.9666 11.9381C10.3443 11.9381 9.8623 11.4704 9.8623 10.8401C9.8623 10.2098 10.3443 9.72603 10.9666 9.72603C11.5969 9.72603 12.0807 10.2098 12.0807 10.8401C12.0807 11.4704 11.5969 11.9381 10.9666 11.9381Z" fill="#ffffff" fill-opacity="0.55"/>
 </g>
</svg>
