<?xml version="1.0" encoding="UTF-8"?>
<!--Generator: Apple Native CoreSVG 232.5-->
<!DOCTYPE svg
PUBLIC "-//W3C//DTD SVG 1.1//EN"
       "http://www.w3.org/Graphics/SVG/1.1/DTD/svg11.dtd">
<svg version="1.1" xmlns="http://www.w3.org/2000/svg" xmlns:xlink="http://www.w3.org/1999/xlink" width="24.9252" height="27.9441">
 <g>
  <rect height="27.9441" opacity="0" width="24.9252" x="0" y="0"/>
  <path d="M0 15.3611C0 17.9828 1.99218 20.1021 5.23925 20.1021L20.0019 20.1021C23.051 20.1021 24.9252 18.2867 24.9252 15.8197C24.9252 13.7592 23.74 12.0889 21.8076 11.3174C21.8201 6.90565 18.6361 3.72421 14.5523 3.72421C11.948 3.72421 10.0053 5.07167 8.78066 6.8369C6.46719 6.26229 3.70664 8.0162 3.61562 10.7762C1.38398 11.1566 0 13.0125 0 15.3611ZM19.9553 18.1889L5.23652 18.1889C3.09257 18.1889 1.93436 16.9125 1.93436 15.3277C1.93436 13.4959 3.13709 12.2076 5.1371 12.2076C5.27909 12.2076 5.33495 12.126 5.33143 11.9902C5.27343 9.07654 7.36132 8.15154 9.45741 8.75506C9.57811 8.79412 9.65702 8.77107 9.71561 8.66013C10.6506 6.96013 12.1039 5.63748 14.54 5.63748C17.6289 5.63748 19.8088 8.07986 19.9643 10.9338C19.9953 11.4383 19.959 12.006 19.9129 12.4773C19.9014 12.6131 19.9537 12.6929 20.0814 12.7107C21.8693 13.0592 22.9908 14.1004 22.9908 15.7389C22.9908 17.1707 21.9832 18.1889 19.9553 18.1889Z" fill="#007aff"/>
  <path d="M15.2406 25.1728L15.2406 13.8625C15.2406 12.3406 13.9885 11.0894 12.456 11.0894C10.9174 11.0894 9.66523 12.3406 9.66523 13.8625L9.66523 25.1728C9.66523 26.6929 10.9174 27.9441 12.456 27.9441C13.9885 27.9441 15.2406 26.6929 15.2406 25.1728Z" fill="#1e1e1e"/>
  <path d="M12.456 26.0611C12.69 26.0611 12.8937 25.9707 13.1322 25.75L16.4119 22.6728C16.584 22.5185 16.6726 22.3349 16.6726 22.0937C16.6726 21.6451 16.3039 21.317 15.8631 21.317C15.6441 21.317 15.4242 21.4189 15.2602 21.5847L13.8848 22.9672L13.2639 23.6754L13.3558 22.2291L13.3558 13.8625C13.3558 13.3855 12.9516 12.9742 12.456 12.9742C11.9605 12.9742 11.55 13.3855 11.55 13.8625L11.55 22.2291L11.642 23.6834L11.0193 22.9672L9.64394 21.5847C9.47988 21.4189 9.25371 21.317 9.03476 21.317C8.58593 21.317 8.2332 21.6451 8.2332 22.0937C8.2332 22.3349 8.31387 22.5185 8.49394 22.6728L11.7719 25.75C12.0121 25.9707 12.2158 26.0611 12.456 26.0611Z" fill="#ffffff" fill-opacity="0.55"/>
 </g>
</svg>
