<?xml version="1.0" encoding="UTF-8"?>
<!--Generator: Apple Native CoreSVG 232.5-->
<!DOCTYPE svg
PUBLIC "-//W3C//DTD SVG 1.1//EN"
       "http://www.w3.org/Graphics/SVG/1.1/DTD/svg11.dtd">
<svg version="1.1" xmlns="http://www.w3.org/2000/svg" xmlns:xlink="http://www.w3.org/1999/xlink" width="20.0402" height="22.6949">
 <g>
  <rect height="22.6949" opacity="0" width="20.0402" x="0" y="0"/>
  <path d="M16.2277 11.5279C16.4326 11.5279 16.5754 11.3869 16.5984 11.1723C16.9172 8.58417 17.0336 8.50878 19.6713 8.08964C19.901 8.05683 20.0402 7.93183 20.0402 7.72695C20.0402 7.52382 19.901 7.39082 19.7138 7.35625C17.0478 6.83789 16.9172 6.8582 16.5984 4.27363C16.5754 4.05898 16.4326 3.91797 16.2277 3.91797C16.0308 3.91797 15.8881 4.05898 15.857 4.26386C15.5267 6.89804 15.4361 6.98066 12.7433 7.35625C12.558 7.37929 12.417 7.52382 12.417 7.72695C12.417 7.92206 12.5562 8.05507 12.7416 8.08964C15.4414 8.61601 15.5187 8.60546 15.857 11.1918C15.8881 11.3869 16.0344 11.5279 16.2277 11.5279ZM11.5404 4.79355C11.6699 4.79355 11.7408 4.71465 11.7621 4.59316C12.0508 2.97285 12.0428 2.94082 13.7279 2.62558C13.8547 2.60254 13.9398 2.52539 13.9398 2.3959C13.9398 2.26816 13.8547 2.18926 13.7332 2.16797C12.0392 1.82617 12.0855 1.7959 11.7621 0.202147C11.7408 0.0789058 11.6699 0 11.5404 0C11.4109 0 11.332 0.0789058 11.3107 0.20039C10.9918 1.80996 11.0398 1.84551 9.3494 2.16797C9.22166 2.1875 9.141 2.26816 9.141 2.3959C9.141 2.52539 9.21991 2.60254 9.34764 2.62558C11.0398 2.96738 11.0203 2.98164 11.3107 4.59492C11.332 4.71465 11.4109 4.79355 11.5404 4.79355Z" fill="#007aff"/>
  <path d="M8.85155 20.9547C12.5207 20.9547 15.5564 19.0488 16.9301 15.8629C17.1551 15.3473 17.0824 14.9361 16.8459 14.7066C16.6271 14.4869 16.24 14.4471 15.8174 14.6197C15.0787 14.9215 14.176 15.099 13.0828 15.099C8.73768 15.099 5.96131 12.4051 5.96131 8.15936C5.96131 6.99003 6.19295 5.82069 6.50447 5.16503C6.72693 4.68749 6.70838 4.28945 6.48865 4.04492C6.25389 3.77734 5.841 3.7125 5.31093 3.91992C2.15293 5.20039 0 8.45819 0 12.201C0 17.166 3.65703 20.9547 8.85155 20.9547ZM8.86757 19.1072C4.74784 19.1072 1.84569 16.093 1.84569 12.1031C1.84569 9.81365 2.87753 7.72205 4.5498 6.36521C4.34433 6.9447 4.2287 7.79022 4.2287 8.61171C4.2287 13.5474 7.59296 16.8228 12.6432 16.8228C13.3769 16.8228 14.0582 16.7267 14.4166 16.6129C13.2135 18.1705 11.15 19.1072 8.86757 19.1072Z" fill="#ffffff" fill-opacity="0.55"/>
 </g>
</svg>
