<?xml version="1.0" encoding="UTF-8"?>
<!--Generator: Apple Native CoreSVG 232.5-->
<!DOCTYPE svg
PUBLIC "-//W3C//DTD SVG 1.1//EN"
       "http://www.w3.org/Graphics/SVG/1.1/DTD/svg11.dtd">
<svg version="1.1" xmlns="http://www.w3.org/2000/svg" xmlns:xlink="http://www.w3.org/1999/xlink" width="20.0402" height="22.6949">
 <g>
  <rect height="22.6949" opacity="0" width="20.0402" x="0" y="0"/>
  <path d="M16.2277 11.5279C16.4326 11.5279 16.5754 11.3869 16.5984 11.1723C16.9172 8.58417 17.0336 8.50878 19.6713 8.08964C19.901 8.05683 20.0402 7.93183 20.0402 7.72695C20.0402 7.52382 19.901 7.39082 19.7138 7.35625C17.0478 6.83789 16.9172 6.8582 16.5984 4.27363C16.5754 4.05898 16.4326 3.91797 16.2277 3.91797C16.0308 3.91797 15.8881 4.05898 15.857 4.26386C15.5267 6.89804 15.4361 6.98066 12.7433 7.35625C12.558 7.37929 12.417 7.52382 12.417 7.72695C12.417 7.92206 12.5562 8.05507 12.7416 8.08964C15.4414 8.61601 15.5187 8.60546 15.857 11.1918C15.8881 11.3869 16.0344 11.5279 16.2277 11.5279ZM11.5404 4.79355C11.6699 4.79355 11.7408 4.71465 11.7621 4.59316C12.0508 2.97285 12.0428 2.94082 13.7279 2.62558C13.8547 2.60254 13.9398 2.52539 13.9398 2.3959C13.9398 2.26816 13.8547 2.18926 13.7332 2.16797C12.0392 1.82617 12.0855 1.7959 11.7621 0.202147C11.7408 0.0789058 11.6699 0 11.5404 0C11.4109 0 11.332 0.0789058 11.3107 0.20039C10.9918 1.80996 11.0398 1.84551 9.3494 2.16797C9.22166 2.1875 9.141 2.26816 9.141 2.3959C9.141 2.52539 9.21991 2.60254 9.34764 2.62558C11.0398 2.96738 11.0203 2.98164 11.3107 4.59492C11.332 4.71465 11.4109 4.79355 11.5404 4.79355Z" fill="#007aff"/>
  <path d="M8.70643 20.9547C12.3303 20.9547 15.3279 19.0668 16.6619 15.9162C16.8347 15.5058 16.817 15.1521 16.6078 14.9482C16.4342 14.7736 16.1097 14.7506 15.7658 14.8879C14.95 15.2224 13.9828 15.4068 12.899 15.4068C8.51737 15.4068 5.6535 12.6264 5.6535 8.34491C5.6535 7.21854 5.87967 5.9537 6.23455 5.22011C6.42694 4.81679 6.41991 4.47714 6.23905 4.27324C6.04842 4.0498 5.69471 4.01875 5.25233 4.1916C2.1207 5.43573 0 8.68046 0 12.3443C0 17.2697 3.63066 20.9547 8.70643 20.9547Z" fill="#ffffff" fill-opacity="0.55"/>
 </g>
</svg>
