<?xml version="1.0" encoding="UTF-8"?>
<!--Generator: Apple Native CoreSVG 232.5-->
<!DOCTYPE svg
PUBLIC "-//W3C//DTD SVG 1.1//EN"
       "http://www.w3.org/Graphics/SVG/1.1/DTD/svg11.dtd">
<svg version="1.1" xmlns="http://www.w3.org/2000/svg" xmlns:xlink="http://www.w3.org/1999/xlink" width="22.1081" height="22.1113">
 <g>
  <rect height="22.1113" opacity="0" width="22.1081" x="0" y="0"/>
  <path d="M6.47665 19.1267L8.0534 19.4789C7.34715 17.8486 6.97274 16.1094 6.94872 14.3248C6.7245 9.5205 8.82664 4.9619 12.5571 1.96327L11.1657 1.40644C7.46981 4.65429 5.41474 9.38925 5.63095 14.3408C5.64697 15.9666 5.93271 17.5693 6.47665 19.1267ZM12.9747 20.1023L14.2038 19.5525C12.3565 16.9832 11.3516 13.9248 11.3516 10.7332C11.3516 7.71464 12.2358 4.82753 13.8985 2.37889L12.6056 1.92304C10.9313 4.54374 10.0259 7.5914 10.0259 10.7332C10.0259 14.1199 11.0538 17.3539 12.9747 20.1023ZM18.2737 16.7076L19.1622 15.6842C15.9647 13.9904 14.2057 10.3252 14.1657 6.35995C14.1577 5.00155 14.3974 3.64589 14.8944 2.38534L13.6165 2.0244C13.0866 3.4039 12.8337 4.86151 12.8417 6.36796C12.8817 10.6959 14.7995 14.7416 18.2737 16.7076ZM10.3198 9.50761L10.896 10.9174C11.2974 10.9644 11.6907 10.976 12.0921 10.976C14.9585 10.968 17.7067 9.99256 19.911 8.20682L19.2921 6.97421C17.2864 8.6996 14.7571 9.64218 12.0921 9.65018C11.4925 9.65018 10.9026 9.59882 10.3198 9.50761ZM1.60829 12.2453C6.70048 16.6217 14.0145 17.434 19.8888 14.3271L19.8569 12.8205C14.1661 16.1853 6.84325 15.3615 1.95048 10.7625ZM11.0559 21.14C16.5808 21.14 21.1434 16.5711 21.1434 11.0525C21.1434 5.52596 16.5727 0.965029 11.0479 0.965029C5.52939 0.965029 0.966696 5.52596 0.966696 11.0525C0.966696 16.5711 5.5374 21.14 11.0559 21.14ZM11.0559 19.5764C6.40165 19.5764 2.53212 15.7148 2.53212 11.0525C2.53212 6.39022 6.39364 2.52869 11.0479 2.52869C15.7085 2.52869 19.578 6.39022 19.578 11.0525C19.578 15.7148 15.7165 19.5764 11.0559 19.5764Z" fill="#007aff"/>
  <path d="M18.696 21.5338C19.4884 22.3129 20.7679 22.3049 21.5327 21.5027C22.302 20.7201 22.302 19.4717 21.5194 18.6971L3.41591 0.587296C2.6413-0.187311 1.37158-0.195319 0.580956 0.587296C-0.193652 1.3539-0.193652 2.63964 0.580956 3.41424Z" fill="#1e1e1e"/>
  <path d="M19.561 20.6652C19.8645 20.9652 20.3686 20.959 20.6606 20.6554C20.9624 20.3537 20.9641 19.8594 20.6606 19.5576L2.55712 1.45409C2.25361 1.15233 1.75127 1.14433 1.44775 1.45409C1.14599 1.74784 1.14599 2.2537 1.44775 2.5537Z" fill="#ffffff" fill-opacity="0.55"/>
 </g>
</svg>
