<?xml version="1.0" encoding="UTF-8"?>
<!--Generator: Apple Native CoreSVG 232.5-->
<!DOCTYPE svg
PUBLIC "-//W3C//DTD SVG 1.1//EN"
       "http://www.w3.org/Graphics/SVG/1.1/DTD/svg11.dtd">
<svg version="1.1" xmlns="http://www.w3.org/2000/svg" xmlns:xlink="http://www.w3.org/1999/xlink" width="23.8596" height="16.9082">
 <g>
  <rect height="16.9082" opacity="0" width="23.8596" x="0" y="0"/>
  <path d="M11.9271 16.8967C18.3191 16.8967 23.8596 12.3637 23.8596 8.44922C23.8596 4.53477 18.3191 0 11.9271 0C5.54492 0 0 4.53477 0 8.44922C0 12.3637 5.54492 16.8967 11.9271 16.8967Z" fill="#007aff"/>
  <path d="M11.9344 14.2654C10.7461 14.2654 9.63242 13.9279 8.70703 13.3045C8.533 13.1856 8.45664 13.0098 8.45664 12.826C8.45664 12.5037 8.69726 12.2383 9.03105 12.2383C9.14023 12.2383 9.24765 12.2676 9.34355 12.3262C10.0949 12.8387 10.9885 13.0936 11.9344 13.0936C14.1859 13.0936 16.0627 11.5117 16.5006 9.3623C16.5432 9.09434 16.8033 8.89531 17.0785 8.89531C17.391 8.89531 17.6449 9.16699 17.6449 9.47148C17.6449 10.7867 15.8074 14.2654 11.9344 14.2654ZM6.1164 8.44922C6.1164 7.25293 6.45566 6.14902 7.07734 5.21386C7.19452 5.05136 7.37206 4.97148 7.55409 4.97148C7.87988 4.97148 8.14355 5.20585 8.14355 5.54765C8.14355 5.65859 8.11601 5.78202 8.04589 5.88945C7.55292 6.62128 7.29179 7.49531 7.29179 8.44922C7.29179 9.40137 7.54491 10.2852 8.04589 10.9975C8.10976 11.1084 8.14882 11.2176 8.14882 11.3428C8.14882 11.7219 7.83554 11.9189 7.54609 11.9189C7.37206 11.9189 7.19452 11.8391 7.0623 11.659C6.45566 10.7477 6.1164 9.6375 6.1164 8.44922ZM11.9344 2.62323C15.8074 2.62323 17.6449 6.11171 17.6449 7.42695C17.6449 7.73769 17.399 8.00312 17.0705 8.00312C16.7953 8.00312 16.5432 7.80234 16.5006 7.53437C16.0627 5.3787 14.1859 3.79686 11.9344 3.79686C10.9982 3.79686 10.1029 4.07753 9.38085 4.57226C9.27519 4.63886 9.14999 4.67167 9.0373 4.67167C8.71054 4.67167 8.45664 4.40624 8.45664 4.07245C8.45664 3.88866 8.533 3.71288 8.70703 3.59394C9.63242 2.96249 10.7461 2.62323 11.9344 2.62323Z" fill="#ffffff" fill-opacity="0.55"/>
  <path d="M11.9344 12.1818C9.82871 12.1818 8.19199 10.5158 8.19199 8.46875C8.19199 6.40038 10.009 4.89511 10.8988 4.89511C11.2033 4.89511 11.4865 5.14902 11.4865 5.49081C11.4865 5.71093 11.3107 5.95331 11.0924 6.02167C10.0727 6.38495 9.36562 7.31406 9.36562 8.43945C9.36562 9.82598 10.4812 11.01 11.9779 11.01C12.6104 11.01 13.1859 10.7844 13.5963 10.4051C13.702 10.2994 13.8422 10.2533 13.9887 10.2533C14.3064 10.2533 14.5666 10.5125 14.5666 10.8313C14.5666 10.9973 14.4965 11.1686 14.3252 11.3105C13.6928 11.8391 12.858 12.1818 11.9344 12.1818ZM15.6572 8.44922C15.6572 8.66504 15.6572 8.90039 15.6182 9.08242C15.5641 9.37187 15.4176 9.60801 15.027 9.60801C14.7065 9.60801 14.4348 9.41445 14.4348 9.0123C14.4348 8.89238 14.4898 8.60019 14.4898 8.44922C14.4898 7.31406 13.7863 6.38495 12.7871 6.02167C12.558 5.95331 12.3902 5.71093 12.3902 5.49081C12.3902 5.14902 12.6619 4.89511 12.9939 4.89511C13.8482 4.89511 15.6572 6.36132 15.6572 8.44922Z" fill="#ffffff" fill-opacity="0.55"/>
  <path d="M11.9344 10.0787C11.0312 10.0787 10.3049 9.3541 10.3049 8.44922C10.3049 7.54433 11.0312 6.81796 11.9344 6.81796C12.8357 6.81796 13.5719 7.54433 13.5719 8.44922C13.5719 9.3541 12.8357 10.0787 11.9344 10.0787Z" fill="#ffffff" fill-opacity="0.55"/>
 </g>
</svg>
