<?xml version="1.0" encoding="UTF-8"?>
<!--Generator: Apple Native CoreSVG 232.5-->
<!DOCTYPE svg
PUBLIC "-//W3C//DTD SVG 1.1//EN"
       "http://www.w3.org/Graphics/SVG/1.1/DTD/svg11.dtd">
<svg version="1.1" xmlns="http://www.w3.org/2000/svg" xmlns:xlink="http://www.w3.org/1999/xlink" width="20.1767" height="20.1812">
 <g>
  <rect height="20.1812" opacity="0" width="20.1767" x="0" y="0"/>
  <path d="M10.0875 20.175C15.6141 20.175 20.1767 15.606 20.1767 10.0875C20.1767 4.56094 15.606 0 10.0795 0C4.56269 0 0 4.56094 0 10.0875C0 15.606 4.5707 20.175 10.0875 20.175ZM10.0875 18.1879C5.59237 18.1879 1.9951 14.5826 1.9951 10.0875C1.9951 5.59237 5.58437 1.9871 10.0795 1.9871C14.5746 1.9871 18.1897 5.59237 18.1897 10.0875C18.1897 14.5826 14.5826 18.1879 10.0875 18.1879Z" fill="#007aff"/>
  <path d="M9.8666 12.0352C10.3988 12.0352 10.7473 11.7191 10.7719 11.3242C10.7736 11.2869 10.7754 11.2381 10.7789 11.2088C10.8053 10.7023 11.1441 10.3613 11.782 9.9455C12.7486 9.31699 13.3697 8.75761 13.3697 7.61913C13.3697 5.99628 11.9068 5.06464 10.1728 5.06464C8.49843 5.06464 7.36504 5.83379 7.06621 6.74804C7.00859 6.91308 6.97578 7.07812 6.97578 7.25468C6.97578 7.72578 7.34043 8.0164 7.73476 8.0164C8.08964 8.0164 8.33437 7.86366 8.52597 7.60995L8.6789 7.40546C9.01015 6.87597 9.47226 6.58788 10.0615 6.58788C10.8535 6.58788 11.3805 7.05702 11.3805 7.71835C11.3805 8.34023 10.9721 8.6414 10.1471 9.21601C9.45098 9.70078 8.94121 10.2025 8.94121 11.0893C8.94121 11.123 8.94121 11.1631 8.94121 11.1969C8.94121 11.7486 9.27539 12.0352 9.8666 12.0352ZM9.85234 15.0244C10.4785 15.0244 10.9932 14.5682 10.9932 13.9525C10.9932 13.3387 10.4865 12.8807 9.85234 12.8807C9.21816 12.8807 8.70625 13.3449 8.70625 13.9525C8.70625 14.5602 9.22617 15.0244 9.85234 15.0244Z" fill="#ffffff" fill-opacity="0.55"/>
 </g>
</svg>
