<?xml version="1.0" encoding="UTF-8"?>
<!--Generator: Apple Native CoreSVG 232.5-->
<!DOCTYPE svg
PUBLIC "-//W3C//DTD SVG 1.1//EN"
       "http://www.w3.org/Graphics/SVG/1.1/DTD/svg11.dtd">
<svg version="1.1" xmlns="http://www.w3.org/2000/svg" xmlns:xlink="http://www.w3.org/1999/xlink" width="23.1293" height="18.2476">
 <g>
  <rect height="18.2476" opacity="0" width="23.1293" x="0" y="0"/>
  <path d="M3.20351 18.2476L19.9258 18.2476C22.0416 18.2476 23.1293 17.16 23.1293 15.0762L23.1293 3.19101C23.1293 1.10547 22.0416 0.0195312 19.9258 0.0195312L3.20351 0.0195312C1.0957 0.0195312 0 1.09746 0 3.19101L0 15.0762C0 17.168 1.0957 18.2476 3.20351 18.2476ZM3.31444 16.3344C2.40643 16.3344 1.91327 15.8643 1.91327 14.9154L1.91327 3.34999C1.91327 2.40116 2.40643 1.9328 3.31444 1.9328L19.8148 1.9328C20.7149 1.9328 21.216 2.40116 21.216 3.34999L21.216 14.9154C21.216 15.8643 20.7149 16.3344 19.8148 16.3344ZM13.5653 16.6424L15.3832 16.6424L15.3832 1.60643L13.5653 1.60643ZM17.2951 5.50839L19.2971 5.50839C19.649 5.50839 19.9381 5.21308 19.9381 4.88769C19.9381 4.55429 19.649 4.26523 19.2971 4.26523L17.2951 4.26523C16.9512 4.26523 16.6541 4.55429 16.6541 4.88769C16.6541 5.21308 16.9512 5.50839 17.2951 5.50839ZM17.2951 8.12381L19.2971 8.12381C19.649 8.12381 19.9381 7.8285 19.9381 7.4951C19.9381 7.16171 19.649 6.88241 19.2971 6.88241L17.2951 6.88241C16.9512 6.88241 16.6541 7.16171 16.6541 7.4951C16.6541 7.8285 16.9512 8.12381 17.2951 8.12381ZM17.2951 10.733L19.2971 10.733C19.649 10.733 19.9381 10.4519 19.9381 10.1185C19.9381 9.78514 19.649 9.49784 19.2971 9.49784L17.2951 9.49784C16.9512 9.49784 16.6541 9.78514 16.6541 10.1185C16.6541 10.4519 16.9512 10.733 17.2951 10.733Z" fill="#ffffff" fill-opacity="0.55"/>
 </g>
</svg>
