<?xml version="1.0" encoding="UTF-8"?>
<!--Generator: Apple Native CoreSVG 232.5-->
<!DOCTYPE svg
PUBLIC "-//W3C//DTD SVG 1.1//EN"
       "http://www.w3.org/Graphics/SVG/1.1/DTD/svg11.dtd">
<svg version="1.1" xmlns="http://www.w3.org/2000/svg" xmlns:xlink="http://www.w3.org/1999/xlink" width="22.9966" height="25.6219">
 <g>
  <rect height="25.6219" opacity="0" width="22.9966" x="0" y="0"/>
  <path d="M13.7664 10.7711L18.0955 18.2773L21.6512 16.2225C23.0316 15.4275 23.3787 14.0881 22.558 12.6801L20.8805 9.76523C20.042 8.30918 18.7043 7.93281 17.3221 8.71973ZM6.76698 14.8131L11.1058 22.3078L16.864 18.9871L12.5269 11.4844ZM2.89491 20.148L4.57245 23.0709C5.3869 24.4949 6.70858 24.8553 8.09705 24.0506L9.86639 23.0273L5.53554 15.5228L3.76796 16.5398C2.38749 17.3365 2.04843 18.6982 2.89491 20.148Z" fill="#007aff"/>
  <path d="M9.39551 3.30137L1.67793 16.7064C0.50235 18.7453 1.06583 20.9039 3.23106 22.1596L6.15391 23.8451C8.21953 25.0429 10.3576 24.5433 11.575 22.4244L19.2926 9.01933C20.5082 6.89863 19.8789 4.80586 17.8115 3.61602L14.8904 1.92246C12.7252 0.674809 10.5693 1.27227 9.39551 3.30137Z" fill="#1e1e1e"/>
  <path d="M8.53691 7.55547L16.0414 11.8926L18.1043 8.3289C18.8992 6.95019 18.5308 5.62675 17.1148 4.8123L14.2 3.12676C12.7439 2.28028 11.3867 2.61934 10.5998 3.9998ZM4.50645 14.5451L12.0109 18.884L15.3316 13.124L7.82715 8.79492ZM3.91973 20.9553L6.84258 22.6488C8.25058 23.4615 9.5998 23.1162 10.3787 21.734L11.2932 20.1154L3.78867 15.7846L2.87422 17.3969C2.09532 18.7871 2.47168 20.1168 3.91973 20.9553Z" fill="#007aff"/>
  <path d="M0 3.94003L0 21.6623C0 23.9646 1.56289 25.6041 4.06445 25.6041L7.44355 25.6041C9.83299 25.6041 11.4262 24.0305 11.4262 21.6623L11.4262 3.94003C11.4262 1.57363 9.83299 0 7.44355 0L4.06445 0C1.56289 0 0 1.63945 0 3.94003Z" fill="#1e1e1e"/>
  <path d="M1.3791 8.05781L10.0471 8.05781L10.0471 3.94003C10.0471 2.34218 9.07069 1.38711 7.44355 1.38711L4.06445 1.38711C2.38926 1.38711 1.3791 2.34218 1.3791 3.94003ZM1.3791 16.1267L10.0471 16.1267L10.0471 9.47734L1.3791 9.47734ZM4.06445 24.225L7.44355 24.225C9.07069 24.225 10.0471 23.2601 10.0471 21.6623L10.0471 17.5543L1.3791 17.5543L1.3791 21.6623C1.3791 23.2601 2.38926 24.225 4.06445 24.225Z" fill="#ffffff" fill-opacity="0.55"/>
 </g>
</svg>
