<?xml version="1.0" encoding="UTF-8"?>
<!--Generator: Apple Native CoreSVG 232.5-->
<!DOCTYPE svg
PUBLIC "-//W3C//DTD SVG 1.1//EN"
       "http://www.w3.org/Graphics/SVG/1.1/DTD/svg11.dtd">
<svg version="1.1" xmlns="http://www.w3.org/2000/svg" xmlns:xlink="http://www.w3.org/1999/xlink" width="24.9252" height="19.1234">
 <g>
  <rect height="19.1234" opacity="0" width="24.9252" x="0" y="0"/>
  <path d="M19.4973 17.3242C22.5344 17.3242 24.9252 15.0957 24.9252 12.3152C24.9252 10.2363 23.74 8.40097 21.8076 7.59316C21.8201 3.18144 18.6361 0 14.5523 0C11.948 0 10.0053 1.34571 8.78066 3.1127C6.31152 2.44824 3.70664 4.29199 3.61562 7.04219C1.38398 7.43593 0 9.4455 0 11.881C0 14.8488 2.59238 17.3242 6.00429 17.3242Z" fill="#007aff"/>
  <path d="M10.5449 12.9574C10.2113 13.2812 9.74023 13.2209 9.43144 12.9281C9.1289 12.6434 9.08456 12.1643 9.40839 11.8307L11.3154 9.90409L9.40839 7.97753C9.08456 7.64394 9.14667 7.18085 9.43944 6.87206C9.72421 6.57128 10.2113 6.52519 10.5449 6.84902L12.4617 8.75781L14.3803 6.84902C14.7219 6.51718 15.193 6.5873 15.4937 6.87206C15.8025 7.16483 15.8486 7.64394 15.5248 7.97753L13.6098 9.90409L15.5248 11.8307C15.8486 12.1643 15.7785 12.6256 15.4937 12.9361C15.201 13.2369 14.7219 13.2812 14.3803 12.9574L12.4617 11.0504Z" fill="#ffffff" fill-opacity="0.55"/>
 </g>
</svg>
