<?xml version="1.0" encoding="UTF-8"?>
<!--Generator: Apple Native CoreSVG 232.5-->
<!DOCTYPE svg
PUBLIC "-//W3C//DTD SVG 1.1//EN"
       "http://www.w3.org/Graphics/SVG/1.1/DTD/svg11.dtd">
<svg version="1.1" xmlns="http://www.w3.org/2000/svg" xmlns:xlink="http://www.w3.org/1999/xlink">
 <g>
  <rect  opacity="0" x="0" y="0"/>
  <path d="M3.06641 17.998L14.9121 17.998C16.9629 17.998 17.9785 16.9824 17.9785 14.9707L17.9785 3.04688C17.9785 1.03516 16.9629 0.0195312 14.9121 0.0195312L3.06641 0.0195312C1.02539 0.0195312 0 1.02539 0 3.04688L0 14.9707C0 16.9922 1.02539 17.998 3.06641 17.998Z" fill="#007aff"/>
  <path d="M7.90039 13.7695C7.56836 13.7695 7.29492 13.6328 7.04102 13.291L4.58984 10.2832C4.44336 10.0879 4.35547 9.87305 4.35547 9.64844C4.35547 9.20898 4.69727 8.84766 5.14648 8.84766C5.41992 8.84766 5.63477 8.93555 5.87891 9.25781L7.86133 11.8164L12.0312 5.11719C12.2168 4.82422 12.4707 4.66797 12.7344 4.66797C13.1543 4.66797 13.5547 4.96094 13.5547 5.41992C13.5547 5.63477 13.4375 5.85938 13.3105 6.06445L8.7207 13.291C8.51562 13.6133 8.23242 13.7695 7.90039 13.7695Z" fill="#ffffff" fill-opacity="0.85"/>
 </g>
</svg>
