<?xml version="1.0" encoding="UTF-8"?>
<svg id="Layer_1" data-name="Layer 1" xmlns="http://www.w3.org/2000/svg" xmlns:xlink="http://www.w3.org/1999/xlink" viewBox="0 0 642.73 466.86">
  <defs>
    <style>
      .cls-1, .cls-2, .cls-3, .cls-4, .cls-5, .cls-6 {
        stroke-miterlimit: 10;
      }

      .cls-1, .cls-6 {
        fill: none;
        stroke: #231f20;
      }

      .cls-7 {
        fill: #231f20;
      }

      .cls-7, .cls-8 {
        stroke-width: 0px;
      }

      .cls-2 {
        stroke-width: .02px;
      }

      .cls-2, .cls-8, .cls-4, .cls-5 {
        fill: #010101;
      }

      .cls-2, .cls-3, .cls-4, .cls-5 {
        stroke: #010101;
      }

      .cls-3 {
        fill: url(#linear-gradient);
      }

      .cls-4 {
        stroke-width: .01px;
      }

      .cls-5 {
        stroke-width: .02px;
      }

      .cls-6 {
        stroke-dasharray: 0 0 11.95 11.95;
        stroke-width: 3px;
      }
    </style>
    <linearGradient id="linear-gradient" x1=".5" y1="300.89" x2="642.23" y2="300.89" gradientUnits="userSpaceOnUse">
      <stop offset="0" stop-color="#fff"/>
      <stop offset="1" stop-color="#662d91"/>
    </linearGradient>
  </defs>
  <path class="cls-3" d="M2.24,340.83c-17.32-74.82,97.68-177.98,212.9-189.66,100.6-10.2,179.71,51.53,275.5,15.43,38.73-14.6,52.34-34.69,79.6-30.66,44.95,6.64,74.84,71.17,71.78,121.84-5.26,86.96-109.59,165.76-220.45,194.33C252.38,495.71,23.75,433.78,2.24,340.83Z"/>
  <g>
    <circle class="cls-6" cx="401.44" cy="176.5" r="175"/>
    <g>
      <line class="cls-1" x1="401.44" y1="176.5" x2="483.5" y2="32.01"/>
      <polygon class="cls-7" points="485.05 35.17 487.88 24.31 480 32.3 485.05 35.17"/>
    </g>
    <g>
      <path id="E18-MJMAIN-28" class="cls-5" d="M364.4,193.21c0-1.1.08-2.15.24-3.14s.34-1.85.55-2.57c.21-.72.5-1.42.89-2.11s.69-1.22.91-1.61.56-.8,1.01-1.25c.45-.45.71-.72.79-.82s.28-.26.6-.5h.41c.22,0,.34.07.34.22,0,.05-.14.22-.41.5s-.6.71-.98,1.27-.78,1.25-1.18,2.06-.74,1.92-1.01,3.31-.41,2.94-.41,4.63.14,3.23.41,4.61c.27,1.38.6,2.49.98,3.34.38.85.78,1.54,1.18,2.06s.74.95,1.01,1.27.41.49.41.5c0,.14-.12.22-.36.22h-.38l-.67-.58c-1.5-1.36-2.6-3.06-3.29-5.09-.69-2.03-1.03-4.14-1.03-6.34Z"/>
      <g>
        <path id="E18-MJMATHI-78" class="cls-5" d="M372.73,192.28c.11-.67.54-1.45,1.3-2.33.75-.88,1.68-1.33,2.78-1.34.56,0,1.07.14,1.54.43s.81.65,1.03,1.08c.67-1.01,1.48-1.51,2.42-1.51.59,0,1.1.18,1.54.53s.66.82.67,1.42c0,.46-.11.84-.34,1.13-.22.29-.44.46-.65.53s-.39.1-.55.1c-.3,0-.55-.09-.74-.26s-.29-.41-.29-.7c0-.74.4-1.24,1.2-1.51-.18-.21-.5-.31-.96-.31-.21,0-.36.02-.46.05-.61.26-1.06.78-1.34,1.58-.96,3.54-1.44,5.6-1.44,6.19,0,.45.13.77.38.96s.54.29.84.29c.59,0,1.18-.26,1.75-.79s.97-1.18,1.18-1.94c.05-.16.1-.25.14-.26s.18-.03.38-.05h.1c.24,0,.36.06.36.19,0,.02-.02.1-.05.26-.26.91-.75,1.72-1.49,2.42-.74.7-1.59,1.06-2.57,1.06-1.12,0-1.97-.5-2.54-1.51-.66.99-1.41,1.49-2.26,1.49h-.14c-.78,0-1.34-.21-1.68-.62-.34-.42-.51-.86-.53-1.32,0-.51.15-.93.46-1.25.3-.32.66-.48,1.08-.48.69,0,1.03.34,1.03,1.01,0,.32-.1.6-.29.84s-.38.4-.55.48-.28.12-.31.12l-.07.02s.05.05.14.1.22.1.38.17.31.09.46.07c.58,0,1.07-.36,1.49-1.08.14-.26.33-.8.55-1.63.22-.83.45-1.7.67-2.59.22-.9.35-1.42.38-1.58.08-.43.12-.74.12-.94,0-.45-.12-.77-.36-.96s-.51-.29-.82-.29c-.64,0-1.24.26-1.8.77-.56.51-.95,1.17-1.18,1.97-.03.14-.07.22-.12.24s-.18.03-.38.05h-.34c-.1-.1-.14-.18-.14-.26Z"/>
        <path id="E18-MJMAIN-31" class="cls-4" d="M388.82,193.02l-.22.08c-.16.06-.38.11-.68.17s-.62.1-.98.12h-.32v-.78h.32c.53-.02,1.02-.11,1.48-.25s.77-.28.95-.41.34-.25.48-.37c.02-.03.09-.05.2-.05.1,0,.2.03.29.1v5.07l.02,5.09c.08.08.15.13.2.15s.19.05.41.07.57.03,1.05.03h.44v.78h-.19c-.24-.03-1.14-.05-2.7-.05s-2.43.02-2.66.05h-.2v-.78h1.09c.18,0,.32,0,.42-.02s.19-.03.27-.05.12-.03.14-.03.05-.03.1-.08.09-.08.1-.07v-8.77Z"/>
      </g>
      <path id="E18-MJMAIN-2C" class="cls-5" d="M397.98,198.37v-.6c0-.4.13-.74.38-1.03s.6-.43,1.03-.43.85.2,1.2.6.54,1.1.55,2.11c0,.56-.07,1.1-.22,1.63s-.31.98-.5,1.37-.4.71-.62.98-.42.49-.58.65c-.16.16-.26.23-.31.22-.06,0-.17-.07-.31-.22s-.22-.25-.22-.31.09-.19.26-.38.38-.43.6-.72c.22-.29.43-.69.62-1.2.19-.51.32-1.1.38-1.75v-.29l-.02.02s-.07.03-.12.05-.1.04-.14.07c-.05.03-.12.05-.22.05s-.19,0-.29.02c-.43,0-.78-.14-1.06-.41l-.43-.43Z"/>
      <g>
        <path id="E18-MJMATHI-78-2" data-name="E18-MJMATHI-78" class="cls-5" d="M408.06,192.28c.11-.67.54-1.45,1.3-2.33.75-.88,1.68-1.33,2.78-1.34.56,0,1.07.14,1.54.43s.81.65,1.03,1.08c.67-1.01,1.48-1.51,2.42-1.51.59,0,1.1.18,1.54.53s.66.82.67,1.42c0,.46-.11.84-.34,1.13-.22.29-.44.46-.65.53s-.39.1-.55.1c-.3,0-.55-.09-.74-.26s-.29-.41-.29-.7c0-.74.4-1.24,1.2-1.51-.18-.21-.5-.31-.96-.31-.21,0-.36.02-.46.05-.61.26-1.06.78-1.34,1.58-.96,3.54-1.44,5.6-1.44,6.19,0,.45.13.77.38.96s.54.29.84.29c.59,0,1.18-.26,1.75-.79s.97-1.18,1.18-1.94c.05-.16.1-.25.14-.26s.18-.03.38-.05h.1c.24,0,.36.06.36.19,0,.02-.02.1-.05.26-.26.91-.75,1.72-1.49,2.42-.74.7-1.59,1.06-2.57,1.06-1.12,0-1.97-.5-2.54-1.51-.66.99-1.41,1.49-2.26,1.49h-.14c-.78,0-1.34-.21-1.68-.62-.34-.42-.51-.86-.53-1.32,0-.51.15-.93.46-1.25.3-.32.66-.48,1.08-.48.69,0,1.03.34,1.03,1.01,0,.32-.1.6-.29.84s-.38.4-.55.48-.28.12-.31.12l-.07.02s.05.05.14.1.22.1.38.17.31.09.46.07c.58,0,1.07-.36,1.49-1.08.14-.26.33-.8.55-1.63.22-.83.45-1.7.67-2.59.22-.9.35-1.42.38-1.58.08-.43.12-.74.12-.94,0-.45-.12-.77-.36-.96s-.51-.29-.82-.29c-.64,0-1.24.26-1.8.77-.56.51-.95,1.17-1.18,1.97-.03.14-.07.22-.12.24s-.18.03-.38.05h-.34c-.1-.1-.14-.18-.14-.26Z"/>
        <path id="E18-MJMAIN-32" class="cls-4" d="M422.39,195.55c-.31,0-.55-.1-.73-.31-.18-.2-.27-.45-.27-.75,0-.8.3-1.5.9-2.09.6-.59,1.35-.88,2.24-.88,1.03,0,1.89.32,2.58.95s1.04,1.45,1.05,2.46c0,.49-.11.95-.34,1.39s-.5.83-.81,1.15-.77.75-1.36,1.26c-.41.35-.97.87-1.7,1.56l-1,.95,1.29.02c1.78,0,2.72-.03,2.83-.08.08-.02.21-.53.41-1.51v-.05h.68v.05s-.08.55-.22,1.54c-.14,1-.22,1.52-.25,1.56v.05h-6.3v-.53c0-.08.03-.16.1-.25s.24-.29.51-.59c.33-.36.61-.68.85-.95.1-.11.29-.32.58-.63s.48-.51.58-.63.27-.3.49-.56c.23-.26.38-.45.48-.58.09-.12.22-.29.39-.51s.29-.4.36-.54.15-.31.25-.49.18-.36.22-.54.08-.35.12-.51.05-.35.05-.56c0-.71-.19-1.33-.58-1.85s-.93-.78-1.65-.78c-.37,0-.7.1-.98.29s-.48.38-.59.56-.17.29-.17.32c0,.01.03.02.08.02.2,0,.41.08.63.24s.32.42.32.78c0,.28-.09.52-.27.71s-.44.29-.76.31Z"/>
      </g>
      <path id="E18-MJMAIN-29" class="cls-5" d="M432.87,181.24l.1-.02h.53l.67.58c1.5,1.36,2.6,3.06,3.29,5.09.69,2.03,1.03,4.14,1.03,6.34,0,1.09-.08,2.14-.24,3.14s-.34,1.86-.55,2.57c-.21.7-.5,1.41-.89,2.11-.38.7-.69,1.24-.91,1.61-.22.37-.55.78-.98,1.22s-.69.71-.77.79-.26.23-.55.46c-.05.05-.08.08-.1.1h-.55s-.09-.02-.12-.07-.06-.12-.07-.22c.02-.02.1-.12.26-.31,2.48-2.58,3.72-6.38,3.72-11.4s-1.24-8.82-3.72-11.4c-.16-.19-.25-.3-.26-.31,0-.13.04-.22.12-.26Z"/>
    </g>
    <path class="cls-8" d="M401.29,179.46c3.22,0,3.22-5,0-5s-3.22,5,0,5h0Z"/>
    <path id="E23-MJMATHI-3B4" class="cls-2" d="M431.15,85.21c0-1.03.35-1.88,1.06-2.54s1.53-1,2.48-1.02c.37.02.91.11,1.62.26s1.32.29,1.85.4.81.19.86.23c.4.18.59.48.59.92,0,.4-.14.77-.43,1.12s-.67.53-1.16.53-1.07-.32-1.82-.96-1.41-.97-1.98-.99-1,.13-1.29.46c-.29.33-.44.65-.46.96,0,.97,1.09,2.78,3.27,5.45,1.47,1.85,2.21,3.73,2.21,5.65,0,2.71-.67,5.04-2.01,7-1.34,1.96-2.83,2.95-4.46,2.97h-.23c-1.56,0-2.83-.51-3.8-1.52-.97-1.01-1.49-2.3-1.55-3.86,0-2.93,1.27-5.45,3.8-7.56.88-.68,1.99-1.25,3.33-1.72,0-.02-.08-.19-.23-.5s-.32-.66-.5-1.06-.35-.84-.53-1.32c-.18-.48-.32-.98-.43-1.49s-.18-.98-.2-1.42ZM428.41,101.02c0,1.03.26,1.86.79,2.48.53.62,1.28.92,2.24.92.64,0,1.21-.26,1.72-.79.51-.53.89-1.19,1.16-1.98s.46-1.53.59-2.21.21-1.28.23-1.78c0-.77-.08-1.5-.23-2.18s-.31-1.19-.46-1.52-.44-.95-.86-1.85l-.33.13c-.97.33-1.8.92-2.51,1.78s-1.21,1.8-1.52,2.84c-.31,1.03-.52,1.88-.63,2.54s-.18,1.2-.2,1.62Z"/>
  </g>
  <path id="E34-MJMATHI-52" class="cls-2" d="M144.71,113.7c-.92,0-1.47-.02-1.64-.05s-.26-.22-.26-.56c0-.92.19-1.48.56-1.69.07-.03,3.03-.05,8.9-.05,5.86.03,9.03.09,9.51.15,1.91.27,3.51.75,4.81,1.43s2.22,1.47,2.76,2.35.9,1.62,1.07,2.2.27,1.16.31,1.74c0,1.53-.49,2.97-1.48,4.3s-2.13,2.35-3.43,3.07-2.44,1.3-3.43,1.74-1.64.66-1.94.66l.36.26c2.28,1.3,3.43,3.17,3.43,5.62,0,.37-.09,1.41-.26,3.12s-.26,3.1-.26,4.19v.46c0,.61.02,1.09.05,1.43s.22.65.56.92.78.43,1.33.46c.95,0,1.74-.38,2.35-1.12.61-.75,1.06-1.55,1.33-2.4.17-.48.31-.77.41-.87s.36-.15.77-.15c.68,0,1.02.2,1.02.61,0,.61-.41,1.59-1.23,2.91-1.3,1.94-2.83,2.91-4.6,2.91h-.46c-2.08,0-3.8-.43-5.16-1.28-1.36-.85-2.11-2.18-2.25-3.99,0-.92.26-2.35.77-4.3s.77-3.19.77-3.73c0-1.74-.73-3-2.2-3.78-.51-.24-.94-.38-1.28-.41s-1.55-.07-3.63-.1h-3.53l-1.64,6.65c-1.12,4.5-1.69,6.78-1.69,6.85,0,.14.02.22.05.26s.15.1.36.2.49.14.87.1.94,0,1.69.1h1.59c.2.27.31.43.31.46s-.05.34-.15.92c-.14.44-.31.77-.51.97h-.77c-1.23-.07-3.46-.1-6.7-.1h-5.57c-.58,0-.94.02-1.07.05-.58,0-.87-.15-.87-.46,0-.07.05-.31.15-.72.17-.65.34-1.01.51-1.07.14-.03.39-.05.77-.05h.31c.92,0,1.94-.05,3.07-.15.48-.1.8-.31.97-.61.1-.14,1.33-4.87,3.68-14.22,2.35-9.34,3.53-14.27,3.53-14.78,0-.24-.97-.39-2.91-.46ZM165.16,117.95c0-1.09-.36-2.01-1.07-2.76s-2.18-1.23-4.4-1.43h-1.18c-.72,0-1.36-.02-1.94-.05h-1.12c-1.6,0-2.52.17-2.76.51-.03.1-.61,2.37-1.74,6.8-1.12,4.43-1.69,6.7-1.69,6.8,0,.03,1.18.05,3.53.05,2.66-.03,4.43-.15,5.32-.36,2.18-.34,3.89-1.35,5.11-3.02.55-.78,1.01-1.81,1.38-3.07s.56-2.42.56-3.48Z"/>
</svg>