<?xml version="1.0" encoding="UTF-8"?>
<svg id="Layer_1" data-name="Layer 1" xmlns="http://www.w3.org/2000/svg" xmlns:xlink="http://www.w3.org/1999/xlink" viewBox="0 0 740.15 432.5">
  <defs>
    <style>
      .cls-1, .cls-2, .cls-3, .cls-4, .cls-5, .cls-6, .cls-7, .cls-8, .cls-9, .cls-10, .cls-11, .cls-12, .cls-13, .cls-14, .cls-15 {
        stroke-miterlimit: 10;
      }

      .cls-1, .cls-2, .cls-7 {
        fill: none;
      }

      .cls-1, .cls-7 {
        stroke: #231f20;
      }

      .cls-16, .cls-17 {
        fill: #231f20;
      }

      .cls-16, .cls-18, .cls-19 {
        stroke-width: 0px;
      }

      .cls-2 {
        stroke-width: 2px;
      }

      .cls-2, .cls-3, .cls-4, .cls-5, .cls-6, .cls-8, .cls-9, .cls-10, .cls-11, .cls-12, .cls-13, .cls-14, .cls-15 {
        stroke: #010101;
      }

      .cls-17 {
        font-family: BerlinSansFB-Bold, 'Berlin Sans FB';
        font-size: 18px;
        font-weight: 700;
      }

      .cls-3 {
        stroke-width: .02px;
      }

      .cls-3, .cls-4, .cls-5, .cls-6, .cls-8, .cls-19, .cls-10, .cls-11, .cls-12, .cls-13, .cls-14, .cls-15 {
        fill: #010101;
      }

      .cls-4 {
        stroke-width: .02px;
      }

      .cls-5 {
        stroke-width: .02px;
      }

      .cls-6 {
        stroke-width: .02px;
      }

      .cls-7 {
        stroke-dasharray: 0 0 12.22 12.22;
        stroke-width: .5px;
      }

      .cls-18 {
        fill: #ed1c24;
      }

      .cls-8 {
        stroke-width: .02px;
      }

      .cls-9 {
        fill: url(#linear-gradient);
      }

      .cls-10 {
        stroke-width: .01px;
      }

      .cls-11 {
        stroke-width: .01px;
      }

      .cls-12 {
        stroke-width: .02px;
      }

      .cls-13 {
        stroke-width: .02px;
      }

      .cls-14 {
        stroke-width: .01px;
      }

      .cls-15 {
        stroke-width: .02px;
      }
    </style>
    <linearGradient id="linear-gradient" x1="27.81" y1="206.2" x2="290.83" y2="206.2" gradientUnits="userSpaceOnUse">
      <stop offset="0" stop-color="#fff"/>
      <stop offset="1" stop-color="#662d91"/>
    </linearGradient>
  </defs>
  <path class="cls-9" d="M28.52,234.43c-7.1-52.89,40.03-125.81,87.26-134.07,41.23-7.21,73.66,36.43,112.92,10.91,15.87-10.32,21.45-24.52,32.62-21.68,18.42,4.7,30.67,50.31,29.42,86.13-2.16,61.47-44.92,117.17-90.35,137.37-69.34,30.82-163.05-12.96-171.86-78.66Z"/>
  <g>
    <ellipse class="cls-7" cx="151.38" cy="218.58" rx="64.56" ry="67.72"/>
    <g>
      <line class="cls-1" x1="151.38" y1="218.58" x2="179.05" y2="167.47"/>
      <polygon class="cls-16" points="180.67 170.6 183.27 159.68 175.56 167.83 180.67 170.6"/>
    </g>
    <g>
      <path id="E18-MJMAIN-28" class="cls-12" d="M116.07,225.05c0-1.1.08-2.15.23-3.14s.33-1.85.53-2.57c.2-.72.48-1.42.85-2.11s.66-1.22.87-1.61.53-.8.96-1.25c.43-.45.68-.72.76-.82s.27-.26.57-.5h.39c.21,0,.32.07.32.22,0,.05-.13.22-.39.5s-.57.71-.94,1.27-.74,1.25-1.12,2.06-.7,1.92-.96,3.31-.39,2.94-.39,4.63.13,3.23.39,4.61c.26,1.38.57,2.49.94,3.34.37.85.74,1.54,1.12,2.06s.7.95.96,1.27.39.49.39.5c0,.14-.11.22-.34.22h-.37l-.64-.58c-1.43-1.36-2.48-3.06-3.13-5.09-.66-2.03-.98-4.14-.98-6.34Z"/>
      <g>
        <path id="E18-MJMATHI-78" class="cls-12" d="M124.01,224.11c.11-.67.52-1.45,1.24-2.33.72-.88,1.6-1.33,2.65-1.34.53,0,1.02.14,1.46.43s.77.65.98,1.08c.64-1.01,1.41-1.51,2.31-1.51.56,0,1.05.18,1.46.53s.63.82.64,1.42c0,.46-.11.84-.32,1.13-.21.29-.42.46-.62.53s-.37.1-.53.1c-.29,0-.53-.09-.71-.26s-.27-.41-.27-.7c0-.74.38-1.24,1.14-1.51-.17-.21-.47-.31-.92-.31-.2,0-.34.02-.43.05-.58.26-1.01.78-1.28,1.58-.92,3.54-1.37,5.6-1.37,6.19,0,.45.12.77.37.96s.51.29.8.29c.56,0,1.12-.26,1.67-.79s.92-1.18,1.12-1.94c.05-.16.09-.25.14-.26s.17-.03.37-.05h.09c.23,0,.34.06.34.19,0,.02-.02.1-.05.26-.24.91-.72,1.72-1.42,2.42-.7.7-1.52,1.06-2.45,1.06-1.07,0-1.88-.5-2.43-1.51-.63.99-1.34,1.49-2.15,1.49h-.14c-.75,0-1.28-.21-1.6-.62-.32-.42-.49-.86-.5-1.32,0-.51.14-.93.43-1.25.29-.32.63-.48,1.03-.48.66,0,.98.34.98,1.01,0,.32-.09.6-.27.84s-.36.4-.53.48-.27.12-.3.12l-.07.02s.05.05.14.1.21.1.37.17.3.09.43.07c.55,0,1.02-.36,1.42-1.08.14-.26.31-.8.53-1.63.21-.83.43-1.7.64-2.59.21-.9.34-1.42.37-1.58.08-.43.11-.74.11-.94,0-.45-.11-.77-.34-.96s-.49-.29-.78-.29c-.61,0-1.18.26-1.72.77-.53.51-.91,1.17-1.12,1.97-.03.14-.07.22-.11.24s-.17.03-.37.05h-.32c-.09-.1-.14-.18-.14-.26Z"/>
        <path id="E18-MJMAIN-31" class="cls-10" d="M139.35,224.85l-.21.08c-.15.06-.37.11-.65.17s-.59.1-.94.12h-.31v-.78h.31c.51-.02.98-.11,1.41-.25s.73-.28.91-.41.32-.25.45-.37c.02-.03.09-.05.19-.05.1,0,.19.03.28.1v5.07l.02,5.09c.08.08.14.13.19.15s.18.05.39.07.54.03,1,.03h.42v.78h-.18c-.23-.03-1.08-.05-2.57-.05s-2.31.02-2.54.05h-.19v-.78h1.04c.17,0,.31,0,.4-.02s.18-.03.26-.05.12-.03.13-.03.04-.03.1-.08.09-.08.1-.07v-8.77Z"/>
      </g>
      <path id="E18-MJMAIN-2C" class="cls-12" d="M148.08,230.21v-.6c0-.4.12-.74.37-1.03s.57-.43.98-.43.81.2,1.14.6.51,1.1.53,2.11c0,.56-.07,1.1-.21,1.63s-.3.98-.48,1.37-.38.71-.59.98-.4.49-.55.65c-.15.16-.25.23-.3.22-.06,0-.16-.07-.3-.22s-.21-.25-.21-.31.08-.19.25-.38.36-.43.57-.72c.21-.29.41-.69.59-1.2.18-.51.31-1.1.37-1.75v-.29l-.02.02s-.07.03-.11.05-.09.04-.14.07c-.05.03-.11.05-.21.05s-.18,0-.27.02c-.41,0-.75-.14-1.01-.41l-.41-.43Z"/>
      <g>
        <path id="E18-MJMATHI-78-2" data-name="E18-MJMATHI-78" class="cls-12" d="M157.69,224.11c.11-.67.52-1.45,1.24-2.33.72-.88,1.6-1.33,2.65-1.34.53,0,1.02.14,1.46.43s.77.65.98,1.08c.64-1.01,1.41-1.51,2.31-1.51.56,0,1.05.18,1.46.53s.63.82.64,1.42c0,.46-.11.84-.32,1.13-.21.29-.42.46-.62.53s-.37.1-.53.1c-.29,0-.53-.09-.71-.26s-.27-.41-.27-.7c0-.74.38-1.24,1.14-1.51-.17-.21-.47-.31-.92-.31-.2,0-.34.02-.43.05-.58.26-1.01.78-1.28,1.58-.92,3.54-1.37,5.6-1.37,6.19,0,.45.12.77.37.96s.51.29.8.29c.56,0,1.12-.26,1.67-.79s.92-1.18,1.12-1.94c.05-.16.09-.25.14-.26s.17-.03.37-.05h.09c.23,0,.34.06.34.19,0,.02-.02.1-.05.26-.24.91-.72,1.72-1.42,2.42-.7.7-1.52,1.06-2.45,1.06-1.07,0-1.88-.5-2.43-1.51-.63.99-1.34,1.49-2.15,1.49h-.14c-.75,0-1.28-.21-1.6-.62-.32-.42-.49-.86-.5-1.32,0-.51.14-.93.43-1.25.29-.32.63-.48,1.03-.48.66,0,.98.34.98,1.01,0,.32-.09.6-.27.84s-.36.4-.53.48-.27.12-.3.12l-.07.02s.05.05.14.1.21.1.37.17.3.09.43.07c.55,0,1.02-.36,1.42-1.08.14-.26.31-.8.53-1.63.21-.83.43-1.7.64-2.59.21-.9.34-1.42.37-1.58.08-.43.11-.74.11-.94,0-.45-.11-.77-.34-.96s-.49-.29-.78-.29c-.61,0-1.18.26-1.72.77-.53.51-.91,1.17-1.12,1.97-.03.14-.07.22-.11.24s-.17.03-.37.05h-.32c-.09-.1-.14-.18-.14-.26Z"/>
        <path id="E18-MJMAIN-32" class="cls-10" d="M171.35,227.38c-.29,0-.52-.1-.7-.31-.17-.2-.26-.45-.26-.75,0-.8.29-1.5.86-2.09.57-.59,1.28-.88,2.14-.88.98,0,1.8.32,2.46.95s.99,1.45,1,2.46c0,.49-.11.95-.32,1.39s-.47.83-.78,1.15-.73.75-1.29,1.26c-.39.35-.93.87-1.62,1.56l-.95.95,1.23.02c1.69,0,2.59-.03,2.7-.08.08-.02.2-.53.39-1.51v-.05h.65v.05s-.08.55-.21,1.54c-.13,1-.21,1.52-.24,1.56v.05h-6v-.53c0-.08.03-.16.1-.25s.23-.29.49-.59c.31-.36.58-.68.81-.95.1-.11.28-.32.55-.63s.45-.51.55-.63.25-.3.47-.56c.22-.26.37-.45.45-.58.09-.12.21-.29.37-.51s.28-.4.34-.54.15-.31.24-.49.17-.36.21-.54.08-.35.11-.51.05-.35.05-.56c0-.71-.18-1.33-.55-1.85s-.89-.78-1.57-.78c-.36,0-.67.1-.94.29s-.46.38-.57.56-.16.29-.16.32c0,.01.03.02.08.02.19,0,.39.08.6.24s.31.42.31.78c0,.28-.09.52-.26.71s-.42.29-.73.31Z"/>
      </g>
      <path id="E18-MJMAIN-29" class="cls-12" d="M181.35,213.07l.09-.02h.5l.64.58c1.43,1.36,2.48,3.06,3.13,5.09.66,2.03.98,4.14.98,6.34,0,1.09-.08,2.14-.23,3.14s-.33,1.86-.53,2.57c-.2.7-.48,1.41-.85,2.11-.37.7-.66,1.24-.87,1.61-.21.37-.53.78-.94,1.22s-.66.71-.73.79-.25.23-.53.46c-.05.05-.08.08-.09.1h-.53s-.08-.02-.11-.07-.05-.12-.07-.22c.02-.02.1-.12.25-.31,2.36-2.58,3.55-6.38,3.55-11.4s-1.18-8.82-3.55-11.4c-.15-.19-.24-.3-.25-.31,0-.13.04-.22.11-.26Z"/>
    </g>
    <path class="cls-19" d="M151.33,221.26c3.22,0,3.22-5,0-5s-3.22,5,0,5h0Z"/>
    <path id="E23-MJMATHI-3B4" class="cls-5" d="M153.08,176.54c0-1.03.34-1.88,1.01-2.54s1.46-1,2.36-1.02c.36.02.87.11,1.54.26s1.26.29,1.76.4.78.19.82.23c.38.18.57.48.57.92,0,.4-.14.77-.41,1.12s-.64.53-1.1.53-1.02-.32-1.73-.96-1.34-.97-1.89-.99-.95.13-1.23.46c-.27.33-.42.65-.44.96,0,.97,1.04,2.78,3.12,5.45,1.41,1.85,2.11,3.73,2.11,5.65,0,2.71-.64,5.04-1.92,7-1.28,1.96-2.7,2.95-4.25,2.97h-.22c-1.49,0-2.7-.51-3.62-1.52-.92-1.01-1.42-2.3-1.48-3.86,0-2.93,1.21-5.45,3.62-7.56.84-.68,1.9-1.25,3.18-1.72,0-.02-.07-.19-.22-.5s-.3-.66-.47-1.06-.34-.84-.5-1.32c-.17-.48-.3-.98-.41-1.49s-.17-.98-.19-1.42ZM150.47,192.36c0,1.03.25,1.86.76,2.48.5.62,1.22.92,2.14.92.61,0,1.15-.26,1.64-.79.48-.53.85-1.19,1.1-1.98s.44-1.53.57-2.21.2-1.28.22-1.78c0-.77-.07-1.5-.22-2.18s-.29-1.19-.44-1.52-.42-.95-.82-1.85l-.31.13c-.92.33-1.72.92-2.39,1.78s-1.15,1.8-1.45,2.84c-.29,1.03-.49,1.88-.6,2.54s-.17,1.2-.19,1.62Z"/>
  </g>
  <path id="E34-MJMATHI-52" class="cls-5" d="M29.55,94.37c-.92,0-1.47-.02-1.64-.05s-.26-.22-.26-.56c0-.92.19-1.48.56-1.69.07-.03,3.03-.05,8.9-.05,5.86.03,9.03.09,9.51.15,1.91.27,3.51.75,4.81,1.43s2.22,1.47,2.76,2.35.9,1.62,1.07,2.2.27,1.16.31,1.74c0,1.53-.49,2.97-1.48,4.3s-2.13,2.35-3.43,3.07-2.44,1.3-3.43,1.74-1.64.66-1.94.66l.36.26c2.28,1.3,3.43,3.17,3.43,5.62,0,.37-.09,1.41-.26,3.12s-.26,3.1-.26,4.19v.46c0,.61.02,1.09.05,1.43s.22.65.56.92.78.43,1.33.46c.95,0,1.74-.38,2.35-1.12.61-.75,1.06-1.55,1.33-2.4.17-.48.31-.77.41-.87s.36-.15.77-.15c.68,0,1.02.2,1.02.61,0,.61-.41,1.59-1.23,2.91-1.3,1.94-2.83,2.91-4.6,2.91h-.46c-2.08,0-3.8-.43-5.16-1.28-1.36-.85-2.11-2.18-2.25-3.99,0-.92.26-2.35.77-4.3s.77-3.19.77-3.73c0-1.74-.73-3-2.2-3.78-.51-.24-.94-.38-1.28-.41s-1.55-.07-3.63-.1h-3.53l-1.64,6.65c-1.12,4.5-1.69,6.78-1.69,6.85,0,.14.02.22.05.26s.15.1.36.2.49.14.87.1.94,0,1.69.1h1.59c.2.27.31.43.31.46s-.05.34-.15.92c-.14.44-.31.77-.51.97h-.77c-1.23-.07-3.46-.1-6.7-.1h-5.57c-.58,0-.94.02-1.07.05-.58,0-.87-.15-.87-.46,0-.07.05-.31.15-.72.17-.65.34-1.01.51-1.07.14-.03.39-.05.77-.05h.31c.92,0,1.94-.05,3.07-.15.48-.1.8-.31.97-.61.1-.14,1.33-4.87,3.68-14.22,2.35-9.34,3.53-14.27,3.53-14.78,0-.24-.97-.39-2.91-.46ZM50.01,98.62c0-1.09-.36-2.01-1.07-2.76s-2.18-1.23-4.4-1.43h-1.18c-.72,0-1.36-.02-1.94-.05h-1.12c-1.6,0-2.52.17-2.76.51-.03.1-.61,2.37-1.74,6.8-1.12,4.43-1.69,6.7-1.69,6.8,0,.03,1.18.05,3.53.05,2.66-.03,4.43-.15,5.32-.36,2.18-.34,3.89-1.35,5.11-3.02.55-.78,1.01-1.81,1.38-3.07s.56-2.42.56-3.48Z"/>
  <g>
    <path id="E37-MJMAIN-28" class="cls-4" d="M142.08,257.21c0-1.1.08-2.15.24-3.14s.34-1.85.55-2.57c.21-.72.5-1.42.89-2.11s.69-1.22.91-1.61.56-.8,1.01-1.25c.45-.45.71-.72.79-.82s.28-.26.6-.5h.41c.22,0,.34.07.34.22,0,.05-.14.22-.41.5s-.6.71-.98,1.27-.78,1.25-1.18,2.06-.74,1.92-1.01,3.31-.41,2.94-.41,4.63.14,3.23.41,4.61c.27,1.38.6,2.49.98,3.34.38.85.78,1.54,1.18,2.06s.74.95,1.01,1.27.41.49.41.5c0,.14-.12.22-.36.22h-.38l-.67-.58c-1.5-1.36-2.6-3.06-3.29-5.09-.69-2.03-1.03-4.14-1.03-6.34Z"/>
    <path id="E37-MJMATHI-78" class="cls-4" d="M150.41,256.27c.11-.67.54-1.45,1.3-2.33.75-.88,1.68-1.33,2.78-1.34.56,0,1.07.14,1.54.43s.81.65,1.03,1.08c.67-1.01,1.48-1.51,2.42-1.51.59,0,1.1.18,1.54.53s.66.82.67,1.42c0,.46-.11.84-.34,1.13-.22.29-.44.46-.65.53s-.39.1-.55.1c-.3,0-.55-.09-.74-.26s-.29-.41-.29-.7c0-.74.4-1.24,1.2-1.51-.18-.21-.5-.31-.96-.31-.21,0-.36.02-.46.05-.61.26-1.06.78-1.34,1.58-.96,3.54-1.44,5.6-1.44,6.19,0,.45.13.77.38.96s.54.29.84.29c.59,0,1.18-.26,1.75-.79s.97-1.18,1.18-1.94c.05-.16.1-.25.14-.26s.18-.03.38-.05h.1c.24,0,.36.06.36.19,0,.02-.02.1-.05.26-.26.91-.75,1.72-1.49,2.42-.74.7-1.59,1.06-2.57,1.06-1.12,0-1.97-.5-2.54-1.51-.66.99-1.41,1.49-2.26,1.49h-.14c-.78,0-1.34-.21-1.68-.62-.34-.42-.51-.86-.53-1.32,0-.51.15-.93.46-1.25.3-.32.66-.48,1.08-.48.69,0,1.03.34,1.03,1.01,0,.32-.1.6-.29.84s-.38.4-.55.48-.28.12-.31.12l-.07.02s.05.05.14.1.22.1.38.17.31.09.46.07c.58,0,1.07-.36,1.49-1.08.14-.26.33-.8.55-1.63.22-.83.45-1.7.67-2.59.22-.9.35-1.42.38-1.58.08-.43.12-.74.12-.94,0-.45-.12-.77-.36-.96s-.51-.29-.82-.29c-.64,0-1.24.26-1.8.77-.56.51-.95,1.17-1.18,1.97-.03.14-.07.22-.12.24s-.18.03-.38.05h-.34c-.1-.1-.14-.18-.14-.26Z"/>
    <path id="E37-MJMAIN-2C" class="cls-4" d="M164.78,262.37v-.6c0-.4.13-.74.38-1.03s.6-.43,1.03-.43.85.2,1.2.6.54,1.1.55,2.11c0,.56-.07,1.1-.22,1.63s-.31.98-.5,1.37-.4.71-.62.98-.42.49-.58.65c-.16.16-.26.23-.31.22-.06,0-.17-.07-.31-.22s-.22-.25-.22-.31.09-.19.26-.38.38-.43.6-.72c.22-.29.43-.69.62-1.2.19-.51.32-1.1.38-1.75v-.29l-.02.02s-.07.03-.12.05-.1.04-.14.07c-.05.03-.12.05-.22.05s-.19,0-.29.02c-.43,0-.78-.14-1.06-.41l-.43-.43Z"/>
    <path id="E37-MJMATHI-79" class="cls-4" d="M174.1,256.32c0-.22.12-.61.36-1.15s.62-1.11,1.15-1.7,1.12-.88,1.78-.86c.66,0,1.18.18,1.58.55s.61.88.62,1.54c-.03.3-.06.47-.07.5,0,.05-.13.42-.38,1.1s-.52,1.46-.79,2.33-.4,1.55-.38,2.06c0,.69.11,1.17.34,1.44s.56.42,1.01.43c.37,0,.71-.09,1.03-.26.32-.18.57-.36.74-.55s.39-.46.65-.79c0-.02.04-.18.12-.48s.19-.78.34-1.42.3-1.23.46-1.78c.61-2.4.94-3.66,1.01-3.77.21-.43.55-.65,1.03-.65.21,0,.38.06.5.17s.22.21.26.29.06.15.05.22c0,.21-.39,1.89-1.18,5.04-.78,3.15-1.23,4.88-1.34,5.18-.45,1.33-1.22,2.38-2.33,3.17-1.1.78-2.21,1.18-3.31,1.2-.72,0-1.35-.18-1.9-.53-.54-.35-.82-.88-.82-1.58,0-.35.06-.65.17-.89s.26-.42.46-.53.35-.19.48-.24.26-.07.41-.07c.7,0,1.06.34,1.06,1.01,0,.32-.1.6-.29.84s-.38.4-.55.48-.28.12-.31.12l-.07.02c.03.08.18.18.46.29.27.11.54.17.82.17h.19c.27,0,.48-.02.62-.05.53-.14,1.02-.45,1.46-.91.45-.46.79-.96,1.03-1.49s.42-.98.55-1.34c.13-.37.19-.61.19-.72l-.14.1c-.1.06-.25.15-.46.26-.21.11-.42.21-.62.29-.32.08-.63.12-.94.12-.74,0-1.38-.18-1.94-.53-.56-.35-.93-.92-1.1-1.7-.02-.11-.02-.36-.02-.74,0-.91.28-2.1.84-3.58.56-1.47.84-2.41.84-2.81v-.34s-.03-.1-.1-.17-.15-.1-.26-.1h-.1c-.37,0-.7.15-1.01.46s-.54.63-.72.98-.31.69-.41,1.01-.16.5-.19.53-.16.05-.38.05h-.34c-.1-.1-.14-.17-.14-.22Z"/>
    <path id="E37-MJMAIN-29" class="cls-4" d="M186.96,245.23l.1-.02h.53l.67.58c1.5,1.36,2.6,3.06,3.29,5.09.69,2.03,1.03,4.14,1.03,6.34,0,1.09-.08,2.14-.24,3.14s-.34,1.86-.55,2.57c-.21.7-.5,1.41-.89,2.11-.38.7-.69,1.24-.91,1.61-.22.37-.55.78-.98,1.22s-.69.71-.77.79-.26.23-.55.46c-.05.05-.08.08-.1.1h-.55s-.09-.02-.12-.07-.06-.12-.07-.22c.02-.02.1-.12.26-.31,2.48-2.58,3.72-6.38,3.72-11.4s-1.24-8.82-3.72-11.4c-.16-.19-.25-.3-.26-.31,0-.13.04-.22.12-.26Z"/>
  </g>
  <g>
    <line class="cls-1" x1="61.93" y1="22.08" x2="61.93" y2="432.5"/>
    <polygon class="cls-16" points="59.02 24.06 61.93 13.22 64.83 24.06 59.02 24.06"/>
  </g>
  <g>
    <line class="cls-1" x1="0" y1="280.96" x2="267.29" y2="280.96"/>
    <polygon class="cls-16" points="265.31 283.87 276.15 280.96 265.31 278.06 265.31 283.87"/>
  </g>
  <g>
    <line class="cls-1" x1="445.41" y1="280.96" x2="712.7" y2="280.96"/>
    <polygon class="cls-16" points="710.72 283.87 721.56 280.96 710.72 278.06 710.72 283.87"/>
  </g>
  <g>
    <path id="E40-MJMATHI-78" class="cls-8" d="M278.44,283.5c.09-.55.44-1.18,1.05-1.89.61-.72,1.37-1.08,2.26-1.09.46,0,.87.12,1.25.35s.66.53.84.88c.55-.82,1.2-1.23,1.97-1.23.48,0,.9.14,1.25.43s.53.67.55,1.15c0,.38-.09.68-.27.92-.18.23-.36.38-.53.43s-.32.08-.45.08c-.25,0-.45-.07-.6-.21s-.23-.33-.23-.57c0-.6.33-1.01.98-1.23-.14-.17-.4-.25-.78-.25-.17,0-.29.01-.37.04-.49.21-.86.64-1.09,1.29-.78,2.87-1.17,4.55-1.17,5.03,0,.36.1.62.31.78s.44.23.68.23c.48,0,.96-.21,1.42-.64s.79-.96.96-1.58c.04-.13.08-.2.12-.21s.14-.03.31-.04h.08c.2,0,.29.05.29.16,0,.01-.01.08-.04.21-.21.74-.61,1.4-1.21,1.97-.6.57-1.29.86-2.09.86-.91,0-1.6-.41-2.07-1.23-.53.81-1.14,1.21-1.83,1.21h-.12c-.64,0-1.09-.17-1.37-.51-.27-.34-.42-.7-.43-1.07,0-.42.12-.75.37-1.01.25-.26.54-.39.88-.39.56,0,.84.27.84.82,0,.26-.08.49-.23.68s-.31.33-.45.39-.23.1-.25.1l-.06.02s.04.04.12.08.18.08.31.14.25.07.37.06c.47,0,.87-.29,1.21-.88.12-.21.27-.65.45-1.33.18-.68.36-1.38.55-2.11.18-.73.29-1.16.31-1.29.07-.35.1-.6.1-.76,0-.36-.1-.62-.29-.78s-.42-.23-.66-.23c-.52,0-1.01.21-1.46.62-.46.42-.77.95-.96,1.6-.03.12-.06.18-.1.2s-.14.03-.31.04h-.27c-.08-.08-.12-.15-.12-.21Z"/>
    <path id="E40-MJMAIN-31" class="cls-14" d="M291.52,284.11l-.18.07c-.13.05-.31.09-.55.14s-.51.08-.8.1h-.26v-.63h.26c.43-.02.83-.09,1.2-.21s.63-.23.77-.33.28-.2.39-.3c.02-.03.07-.04.17-.04.08,0,.16.03.23.08v8.26c.08.06.13.11.18.12s.16.04.33.06.46.03.86.03h.36v.63h-.15c-.19-.03-.92-.04-2.19-.04s-1.97.01-2.17.04h-.17v-.63h.88c.15,0,.26,0,.34-.01s.16-.02.22-.04.1-.03.11-.03.04-.02.08-.07.07-.06.08-.06v-7.13Z"/>
  </g>
  <g>
    <path id="E41-MJMATHI-78" class="cls-8" d="M56.73,2.99c.09-.55.44-1.18,1.05-1.89.61-.72,1.37-1.08,2.26-1.09.46,0,.87.12,1.25.35s.66.53.84.88c.55-.82,1.2-1.23,1.97-1.23.48,0,.9.14,1.25.43s.53.67.55,1.15c0,.38-.09.68-.27.92-.18.23-.36.38-.53.43s-.32.08-.45.08c-.25,0-.45-.07-.6-.21s-.23-.33-.23-.57c0-.6.33-1.01.98-1.23-.14-.17-.4-.25-.78-.25-.17,0-.29.01-.37.04-.49.21-.86.64-1.09,1.29-.78,2.87-1.17,4.55-1.17,5.03,0,.36.1.62.31.78s.44.23.68.23c.48,0,.96-.21,1.42-.64s.79-.96.96-1.58c.04-.13.08-.2.12-.21s.14-.03.31-.04h.08c.2,0,.29.05.29.16,0,.01-.01.08-.04.21-.21.74-.61,1.4-1.21,1.97-.6.57-1.29.86-2.09.86-.91,0-1.6-.41-2.07-1.23-.53.81-1.14,1.21-1.83,1.21h-.12c-.64,0-1.09-.17-1.37-.51-.27-.34-.42-.7-.43-1.07,0-.42.12-.75.37-1.01.25-.26.54-.39.88-.39.56,0,.84.27.84.82,0,.26-.08.49-.23.68s-.31.33-.45.39-.23.1-.25.1l-.06.02s.04.04.12.08.18.08.31.14.25.07.37.06c.47,0,.87-.29,1.21-.88.12-.21.27-.65.45-1.33.18-.68.36-1.38.55-2.11.18-.73.29-1.16.31-1.29.07-.35.1-.6.1-.76,0-.36-.1-.62-.29-.78s-.42-.23-.66-.23c-.52,0-1.01.21-1.46.62-.46.42-.77.95-.96,1.6-.03.12-.06.18-.1.2s-.14.03-.31.04h-.27c-.08-.08-.12-.15-.12-.21Z"/>
    <path id="E41-MJMAIN-32" class="cls-14" d="M68.38,5.65c-.25,0-.45-.08-.59-.25-.15-.17-.22-.37-.22-.61,0-.65.24-1.22.73-1.7.49-.48,1.09-.72,1.82-.72.84,0,1.54.26,2.1.77s.85,1.18.86,2c0,.4-.09.77-.28,1.13s-.4.67-.66.94-.63.61-1.1,1.02c-.33.29-.79.71-1.38,1.27l-.81.77h1.05c1.44.01,2.21,0,2.3-.06.06-.02.17-.43.33-1.23v-.04h.55v.04s-.07.45-.18,1.26c-.11.81-.18,1.23-.21,1.27v.04h-5.12v-.43c0-.06.03-.13.08-.21s.19-.23.41-.48c.27-.29.5-.55.69-.77.08-.09.24-.26.47-.51s.39-.42.47-.51.22-.24.4-.46c.18-.21.31-.37.39-.47.07-.1.18-.24.32-.41s.23-.32.29-.44.12-.25.21-.4.14-.29.18-.44.07-.29.1-.41.04-.28.04-.46c0-.58-.16-1.08-.47-1.5s-.76-.63-1.34-.63c-.3,0-.57.08-.8.23s-.39.31-.48.46-.14.23-.14.26c0,0,.02.01.07.01.17,0,.34.06.51.19s.26.34.26.63c0,.23-.07.42-.22.58s-.35.24-.62.25Z"/>
  </g>
  <g>
    <path id="E45-MJMATHI-78" class="cls-3" d="M723.69,286.41c.09-.55.44-1.18,1.05-1.89.61-.72,1.37-1.08,2.26-1.09.46,0,.87.12,1.25.35s.66.53.84.88c.55-.82,1.2-1.23,1.97-1.23.48,0,.9.14,1.25.43s.53.67.55,1.15c0,.38-.09.68-.27.92-.18.23-.36.38-.53.43s-.32.08-.45.08c-.25,0-.45-.07-.6-.21s-.23-.33-.23-.57c0-.6.33-1.01.98-1.23-.14-.17-.4-.25-.78-.25-.17,0-.29.01-.37.04-.49.21-.86.64-1.09,1.29-.78,2.87-1.17,4.55-1.17,5.03,0,.36.1.62.31.78s.44.23.68.23c.48,0,.96-.21,1.42-.64s.79-.96.96-1.58c.04-.13.08-.2.12-.21s.14-.03.31-.04h.08c.2,0,.29.05.29.16,0,.01-.01.08-.04.21-.21.74-.61,1.4-1.21,1.97-.6.57-1.29.86-2.09.86-.91,0-1.6-.41-2.07-1.23-.53.81-1.14,1.21-1.83,1.21h-.12c-.64,0-1.09-.17-1.37-.51-.27-.34-.42-.7-.43-1.07,0-.42.12-.75.37-1.01.25-.26.54-.39.88-.39.56,0,.84.27.84.82,0,.26-.08.49-.23.68s-.31.33-.45.39-.23.1-.25.1l-.06.02s.04.04.12.08.18.08.31.14.25.07.37.06c.47,0,.87-.29,1.21-.88.12-.21.27-.65.45-1.33.18-.68.36-1.38.55-2.11.18-.73.29-1.16.31-1.29.07-.35.1-.6.1-.76,0-.36-.1-.62-.29-.78s-.42-.23-.66-.23c-.52,0-1.01.21-1.46.62-.46.42-.77.95-.96,1.6-.03.12-.06.18-.1.2s-.14.03-.31.04h-.27c-.08-.08-.12-.15-.12-.21Z"/>
    <path id="E45-MJMAIN-33" class="cls-11" d="M735.59,288.6c-.25,0-.44-.08-.58-.23s-.21-.36-.22-.61c0-.51.22-.96.66-1.35s.97-.59,1.6-.59c.32,0,.52,0,.61.01.68.11,1.2.35,1.56.73s.54.79.55,1.23c0,.48-.16.94-.47,1.39s-.74.78-1.3.98l-.04.03s.04.02.12.04.22.06.4.12.36.16.52.29c.75.49,1.13,1.13,1.13,1.93,0,.73-.29,1.36-.86,1.9-.57.54-1.29.81-2.17.81-.74,0-1.37-.2-1.9-.59-.53-.4-.8-.9-.8-1.5,0-.26.08-.46.25-.62s.37-.24.62-.25c.26,0,.47.08.63.25s.25.37.25.62c0,.1-.01.19-.04.28s-.06.16-.1.22-.09.12-.15.17-.12.08-.17.11-.09.05-.14.06c-.05,0-.08.02-.11.04h-.06c.47.43,1.04.63,1.71.63.51,0,.89-.24,1.14-.73.16-.3.23-.77.23-1.39v-.28c0-.87-.29-1.46-.88-1.75-.14-.06-.42-.09-.84-.1h-.58s-.04-.04-.04-.04c-.02-.03-.03-.1-.03-.22,0-.17.04-.25.11-.25.26,0,.52-.02.8-.07.31-.05.6-.24.86-.58s.39-.86.39-1.54v-.11c0-.52-.16-.89-.48-1.09-.2-.13-.42-.19-.65-.19-.29,0-.57.05-.81.15s-.42.21-.52.32-.15.17-.15.17h.04s.06.02.11.03.09.03.14.07.1.07.17.1.11.08.14.15.06.14.11.21.06.16.04.28c0,.2-.06.38-.19.54s-.34.24-.62.25Z"/>
  </g>
  <path id="E46-MJMATHI-66" class="cls-15" d="M375.3,335.91s.07.01.12.04.12.05.21.06.17.02.23.02c.17,0,.33-.08.47-.25s.25-.36.31-.57c.13-.35.35-1.35.66-2.99s.61-3.2.9-4.68c.29-1.48.43-2.23.43-2.24v-.06h-.92c-.61,0-.94-.01-.98-.04-.05-.04-.08-.1-.08-.2l.14-.55c.03-.07.08-.1.16-.1s.38,0,.92-.02c.62,0,.94,0,.94-.02,0-.03.06-.35.18-.98s.2-1,.23-1.13c.48-2.15,1.43-3.22,2.85-3.22.48.03.88.17,1.19.43s.47.6.47,1.03c0,.47-.14.81-.41,1.01s-.55.32-.82.33c-.57,0-.86-.27-.86-.82,0-.25.07-.46.21-.64s.3-.32.47-.41l.18-.1c-.21-.08-.4-.12-.59-.12-.16,0-.31.07-.45.2s-.24.31-.29.55c-.09.38-.2.88-.31,1.52s-.22,1.18-.31,1.62-.14.68-.14.7.36.04,1.07.04c.59,0,.92,0,1.01.02s.16.05.21.12c.01.05,0,.16-.04.33s-.07.27-.1.31c-.03.07-.08.1-.18.1s-.44,0-1.05.02h-1.09l-.45,2.38c-.62,3.23-1.06,5.24-1.31,6.05-.35,1.11-.81,1.92-1.37,2.46-.48.42-.96.62-1.42.62-.42,0-.79-.12-1.13-.37-.34-.25-.51-.6-.51-1.05,0-.48.14-.83.41-1.05s.55-.33.82-.33c.57,0,.86.27.86.82,0,.25-.07.46-.21.64-.14.18-.3.32-.47.41l-.18.1Z"/>
  <path id="E47-MJMAIN-30" class="cls-13" d="M67.01,265.67c.73-1.05,1.72-1.58,2.98-1.58.62,0,1.25.17,1.87.51s1.13.94,1.52,1.79c.48,1.08.72,2.56.72,4.45,0,2.02-.28,3.56-.84,4.62-.26.55-.62.98-1.07,1.31-.46.33-.85.53-1.19.6s-.67.12-.99.14c-.34,0-.68-.04-1.01-.12s-.73-.29-1.19-.62c-.46-.34-.81-.77-1.07-1.31-.56-1.07-.84-2.61-.84-4.62,0-2.26.37-3.98,1.11-5.17ZM71.4,265.43c-.39-.42-.85-.62-1.38-.62s-1.01.21-1.4.62c-.33.34-.54.81-.64,1.4-.1.6-.16,1.85-.16,3.74,0,2.05.05,3.41.16,4.06.1.65.34,1.16.7,1.54.36.39.81.59,1.35.59s.96-.2,1.33-.59c.38-.39.61-.94.7-1.64s.14-2.02.16-3.96c0-1.89-.05-3.13-.16-3.72-.1-.6-.32-1.07-.64-1.42Z"/>
  <line class="cls-2" x1="467.89" y1="272.44" x2="467.89" y2="288.6"/>
  <path id="E47-MJMAIN-30-2" data-name="E47-MJMAIN-30" class="cls-13" d="M464.9,258.34c.73-1.05,1.72-1.58,2.98-1.58.62,0,1.25.17,1.87.51s1.13.94,1.52,1.79c.48,1.08.72,2.56.72,4.45,0,2.02-.28,3.56-.84,4.62-.26.55-.62.98-1.07,1.31-.46.33-.85.53-1.19.6s-.67.12-.99.14c-.34,0-.68-.04-1.01-.12s-.73-.29-1.19-.62c-.46-.34-.81-.77-1.07-1.31-.56-1.07-.84-2.61-.84-4.62,0-2.26.37-3.98,1.11-5.17ZM469.28,258.11c-.39-.42-.85-.62-1.38-.62s-1.01.21-1.4.62c-.33.34-.54.81-.64,1.4-.1.6-.16,1.85-.16,3.74,0,2.05.05,3.41.16,4.06.1.65.34,1.16.7,1.54.36.39.81.59,1.35.59s.96-.2,1.33-.59c.38-.39.61-.94.7-1.64s.14-2.02.16-3.96c0-1.89-.05-3.13-.16-3.72-.1-.6-.32-1.07-.64-1.42Z"/>
  <text class="cls-17" transform="translate(537.39 284.94) scale(.26 1)"><tspan x="0" y="0">(</tspan></text>
  <text class="cls-17" transform="translate(620.98 284.94) scale(.26 1)"><tspan x="0" y="0">)</tspan></text>
  <g>
    <path class="cls-1" d="M165.75,272.44c27.77,20.63,99.69,68.05,200.46,68.73,83.21.56,146.18-31.01,178.29-50.71"/>
    <polygon class="cls-16" points="544.3 293.91 551.99 285.73 541.24 288.97 544.3 293.91"/>
  </g>
  <path class="cls-18" d="M165.44,274.75c3.22,0,3.22-5,0-5s-3.22,5,0,5h0Z"/>
  <path class="cls-16" d="M578.59,283.31c3.22,0,3.22-5,0-5s-3.22,5,0,5h0Z"/>
  <path class="cls-18" d="M554.43,283.31c3.22,0,3.22-5,0-5s-3.22,5,0,5h0Z"/>
  <path id="E48-MJMATHI-4C" class="cls-5" d="M576.42,255.88c-.44,0-.68-.03-.7-.08-.01-.03-.02-.08-.02-.16,0-.31.07-.53.21-.64.03-.01.12-.02.29-.02.7.04,1.53.06,2.48.06,1.83,0,2.89-.02,3.16-.06h.23c.08.08.12.14.12.18s-.01.16-.04.35c-.07.2-.12.32-.18.37h-.74c-.9.01-1.42.07-1.58.18-.09.05-.18.23-.27.55s-.53,2.03-1.31,5.15c-.21.85-.43,1.74-.66,2.69s-.41,1.66-.53,2.15l-.18.7c0,.05.06.08.18.08s.5.01,1.15.04h.33c.42,0,.75,0,.99-.02s.57-.06.96-.14.72-.2.98-.35.55-.38.86-.66.59-.64.82-1.07c.21-.39.4-.83.59-1.31s.29-.75.33-.82c.07-.04.18-.06.33-.06h.25c.08.12.12.19.12.21s-.13.41-.39,1.15-.55,1.52-.86,2.34-.48,1.3-.51,1.44c-.03.07-.05.1-.08.12s-.13.03-.31.06-.46.03-.84.02h-1.48c-.85,0-1.65,0-2.42-.02h-3.47c-1.09,0-1.64-.07-1.64-.2,0-.09.01-.18.04-.27.07-.25.13-.38.2-.41.05-.01.15-.02.29-.02h.12c.35,0,.74-.02,1.17-.06.18-.04.31-.12.37-.23.04-.05.51-1.86,1.4-5.42.9-3.56,1.35-5.44,1.35-5.64,0-.09-.37-.15-1.11-.18Z"/>
  <g>
    <path id="E51-MJMATHI-4C" class="cls-6" d="M516.39,254.49c-.44,0-.68-.03-.7-.08-.01-.03-.02-.08-.02-.16,0-.31.07-.53.21-.64.03-.01.12-.02.29-.02.7.04,1.53.06,2.48.06,1.83,0,2.89-.02,3.16-.06h.23c.08.08.12.14.12.18s-.01.16-.04.35c-.07.2-.12.32-.18.37h-.74c-.9.01-1.42.07-1.58.18-.09.05-.18.23-.27.55s-.53,2.03-1.31,5.15c-.21.85-.43,1.74-.66,2.69s-.41,1.66-.53,2.15l-.18.7c0,.05.06.08.18.08s.5.01,1.15.04h.33c.42,0,.75,0,.99-.02s.57-.06.96-.14.72-.2.98-.35.55-.38.86-.66.59-.64.82-1.07c.21-.39.4-.83.59-1.31s.29-.75.33-.82c.07-.04.18-.06.33-.06h.25c.08.12.12.19.12.21s-.13.41-.39,1.15-.55,1.52-.86,2.34-.48,1.3-.51,1.44c-.03.07-.05.1-.08.12s-.13.03-.31.06-.46.03-.84.02h-1.48c-.85,0-1.65,0-2.42-.02h-3.47c-1.09,0-1.64-.07-1.64-.2,0-.09.01-.18.04-.27.07-.25.13-.38.2-.41.05-.01.15-.02.29-.02h.12c.35,0,.74-.02,1.17-.06.18-.04.31-.12.37-.23.04-.05.51-1.86,1.4-5.42.9-3.56,1.35-5.44,1.35-5.64,0-.09-.37-.15-1.11-.18Z"/>
    <path id="E51-MJMAIN-2212" class="cls-6" d="M531.2,262.3v-.25c0-.17.09-.3.27-.39h11.33c.2.1.29.23.29.39s-.1.29-.29.39h-11.33c-.18-.09-.27-.22-.27-.39v.25Z"/>
    <path id="E51-MJMATHI-3F5" class="cls-6" d="M553.52,267.13c-1.01,0-1.87-.34-2.58-1.01-.7-.68-1.06-1.54-1.07-2.59,0-1.14.31-2.11.92-2.89.44-.59,1-1.07,1.68-1.44s1.42-.6,2.22-.66c.03-.01.3-.02.82-.02h.74c.2.07.29.2.29.39,0,.34-.27.51-.8.51h-.57c-1.57,0-2.6.7-3.08,2.11l-.08.23h3.45c.17.12.25.24.25.37,0,.23-.13.41-.39.53h-3.55v.04c-.13.39-.2.87-.2,1.44,0,.86.21,1.45.62,1.78.42.33.88.49,1.39.51.35,0,.7-.07,1.03-.2.34-.13.61-.27.82-.41.21-.14.32-.21.33-.21.09,0,.16.07.21.2.05.13.08.25.08.37,0,.04,0,.07-.02.08-.04.05-.17.14-.39.27-.22.13-.53.27-.94.41s-.81.21-1.21.21Z"/>
  </g>
  <g>
    <path id="E55-MJMATHI-4C" class="cls-6" d="M600.43,255.87c-.44,0-.68-.03-.7-.08-.01-.03-.02-.08-.02-.16,0-.31.07-.53.21-.64.03-.01.12-.02.29-.02.7.04,1.53.06,2.48.06,1.83,0,2.89-.02,3.16-.06h.23c.08.08.12.14.12.18s-.01.16-.04.35c-.07.2-.12.32-.18.37h-.74c-.9.01-1.42.07-1.58.18-.09.05-.18.23-.27.55s-.53,2.03-1.31,5.15c-.21.85-.43,1.74-.66,2.69s-.41,1.66-.53,2.15l-.18.7c0,.05.06.08.18.08s.5.01,1.15.04h.33c.42,0,.75,0,.99-.02s.57-.06.96-.14.72-.2.98-.35.55-.38.86-.66.59-.64.82-1.07c.21-.39.4-.83.59-1.31s.29-.75.33-.82c.07-.04.18-.06.33-.06h.25c.08.12.12.19.12.21s-.13.41-.39,1.15-.55,1.52-.86,2.34-.48,1.3-.51,1.44c-.03.07-.05.1-.08.12s-.13.03-.31.06-.46.03-.84.02h-1.48c-.85,0-1.65,0-2.42-.02h-3.47c-1.09,0-1.64-.07-1.64-.2,0-.09.01-.18.04-.27.07-.25.13-.38.2-.41.05-.01.15-.02.29-.02h.12c.35,0,.74-.02,1.17-.06.18-.04.31-.12.37-.23.04-.05.51-1.86,1.4-5.42.9-3.56,1.35-5.44,1.35-5.64,0-.09-.37-.15-1.11-.18Z"/>
    <path id="E55-MJMAIN-2B" class="cls-6" d="M614.69,263.67v-.25c0-.17.09-.3.27-.39h5.83v-2.93l.02-2.93c.13-.17.25-.25.37-.25.17,0,.3.1.39.29v5.81h5.81c.2.1.29.23.29.39s-.1.29-.29.39h-5.81v5.81c-.1.18-.22.27-.35.27h-.08c-.16,0-.27-.09-.35-.27v-5.81h-5.83c-.18-.09-.27-.22-.27-.39v.25Z"/>
    <path id="E55-MJMATHI-3F5" class="cls-6" d="M637.55,268.51c-1.01,0-1.87-.34-2.58-1.01-.7-.68-1.06-1.54-1.07-2.59,0-1.14.31-2.11.92-2.89.44-.59,1-1.07,1.68-1.44s1.42-.6,2.22-.66c.03-.01.3-.02.82-.02h.74c.2.07.29.2.29.39,0,.34-.27.51-.8.51h-.57c-1.57,0-2.6.7-3.08,2.11l-.08.23h3.45c.17.12.25.24.25.37,0,.23-.13.41-.39.53h-3.55v.04c-.13.39-.2.87-.2,1.44,0,.86.21,1.45.62,1.78.42.33.88.49,1.39.51.35,0,.7-.07,1.03-.2.34-.13.61-.27.82-.41.21-.14.32-.21.33-.21.09,0,.16.07.21.2.05.13.08.25.08.37,0,.04,0,.07-.02.08-.04.05-.17.14-.39.27-.22.13-.53.27-.94.41s-.81.21-1.21.21Z"/>
  </g>
</svg>