<svg xmlns="http://www.w3.org/2000/svg" fill="#000000" id="Layer_1" data-name="Layer 1" viewBox="0 0 665.03 524.02"><defs><style>.cls-1{fill:#1d1d1b;}</style></defs><title>US Air Force Logo 02 20190324</title><path class="cls-1" d="M314,291.52a19.8,19.8,0,1,0,19.8-19.79A19.8,19.8,0,0,0,314,291.52Z"/><polygon class="cls-1" points="330.02 229.96 159.72 106.25 188.1 165.43 319.87 261.13 330.02 229.96"/><polygon class="cls-1" points="317.23 268.98 195.36 180.43 223.83 239.66 264.23 269.01 317.23 268.98"/><polygon class="cls-1" points="287.24 285.74 253.97 309.86 294.47 339.32 307.13 300.28 287.24 285.74"/><polygon class="cls-1" points="366.96 343.65 333.72 367.81 300.49 343.63 333.76 319.5 366.9 343.65 366.96 343.65"/><polygon class="cls-1" points="337.41 229.92 347.53 261.14 479.27 165.49 507.71 106.25 337.41 229.92"/><polygon class="cls-1" points="403.19 269 403.19 269 403.19 269 403.19 269 443.62 239.71 472.1 180.43 350.17 269.01 403.19 269"/><polygon class="cls-1" points="360.13 300.37 373.01 339.3 413.44 309.87 380.3 285.77 360.13 300.37"/><polygon class="cls-1" points="483.6 57.62 441.96 144.22 503.68 99.39 483.6 57.62"/><polygon class="cls-1" points="163.79 99.4 225.47 144.23 183.85 57.6 163.79 99.4"/><path class="cls-1" d="M324,453.54a15.87,15.87,0,0,0-2-2.45,12.77,12.77,0,0,0-2.33-2.07l-.13-.06a11.86,11.86,0,0,0,1.24-.5,12.33,12.33,0,0,0,4.56-3.92,10.87,10.87,0,0,0-.53-12.46,11.2,11.2,0,0,0-5.79-3.69,37.82,37.82,0,0,0-9.57-.92h-23v38.31h15.63V451.3a4.83,4.83,0,0,1,2.44.65,7.47,7.47,0,0,1,1.93,2.34s7.32,11.5,7.32,11.5h17.66L324,453.53Zm-11.35-13.82a2.84,2.84,0,0,1-.25,1.08,3.47,3.47,0,0,1-.56.85,3.56,3.56,0,0,1-2.09,1.15,23.54,23.54,0,0,1-3.43.49h-5.46V436h5.68c2.36,0,4,.31,4.84.93h0a3.48,3.48,0,0,1,.53.48l.05.06a3,3,0,0,1,.61,1.26.5.5,0,0,1,0,.12,3.79,3.79,0,0,1,.08.77h0A.59.59,0,0,1,312.67,439.72Z"/><polygon class="cls-1" points="185.05 455.26 185.05 465.77 197.93 465.77 197.93 455.26 197.43 455.26 185.05 455.26"/><polygon class="cls-1" points="121.87 455.28 121.87 465.78 134.74 465.78 134.74 455.28 134.24 455.28 121.87 455.28"/><path class="cls-1" d="M117.24,427.54h-15v23a4.32,4.32,0,0,1-1.6,3.62,7.48,7.48,0,0,1-4.82,1.34,7.64,7.64,0,0,1-4.88-1.37,4.3,4.3,0,0,1-1.57-3.59v-23H73.11V450.1a18.63,18.63,0,0,0,1.36,6.48,12.34,12.34,0,0,0,3.26,4.61,17.22,17.22,0,0,0,5.12,3.31A23.63,23.63,0,0,0,89.66,466c2.62.25,5,.37,7.25.37a35.89,35.89,0,0,0,10-1.24,17.49,17.49,0,0,0,6-3.18,14.14,14.14,0,0,0,4.24-5.4,16,16,0,0,0,1.34-6.49V427.54Z"/><path class="cls-1" d="M173.1,442.05a44.63,44.63,0,0,0-6.6-1.93l13.73-.67-.21-1.37a12.09,12.09,0,0,0-6.09-9.16c-3.24-1.83-7.94-2.76-14-2.76a36.54,36.54,0,0,0-11.66,1.51,14.6,14.6,0,0,0-6.69,4.33,9.32,9.32,0,0,0,2.21,14.17c2.8,2,7.3,3.49,13.73,4.66,4.7.83,6.22,1.55,6.7,1.9,1,.76,1,1.34,1,1.53s0,.84-1.1,1.61a7,7,0,0,1-4,.92,7.12,7.12,0,0,1-5.37-1.86,6.06,6.06,0,0,1-1.44-3.35l-.19-1.1-15.81.82.14,1.31a14.29,14.29,0,0,0,5.55,9.94c3.25,2.6,8.79,3.86,16.94,3.86a35.23,35.23,0,0,0,11.43-1.6,16.2,16.2,0,0,0,7.35-4.87,11.25,11.25,0,0,0,2.72-7.28,10.07,10.07,0,0,0-2.07-6.16A14.8,14.8,0,0,0,173.1,442.05Zm-13.52-3.31c-3.14-.52-4-1-4.27-1.13-.44-.3-.53-.51-.53-.55h0c0-.16,0-.55.71-1a5.78,5.78,0,0,1,3-.63,7.33,7.33,0,0,1,4.05.93,4.26,4.26,0,0,1,1.73,2.84l.1.48C162.94,439.35,161.35,439.05,159.58,438.74Z"/><polygon class="cls-1" points="262.75 427.48 262.75 465.79 277.56 465.79 277.56 427.48 276.31 427.48 262.75 427.48"/><path class="cls-1" d="M349,427.54v38.25h16.38V451.16H382.7v-9.75H365.33v-3.62H385.7V427.54H349Z"/><path class="cls-1" d="M529.49,449.57a8.91,8.91,0,0,1-2.63,4.5,8.2,8.2,0,0,1-5.34,1.47,7.92,7.92,0,0,1-5.65-1.86c-1.28-1.2-1.93-3.64-1.93-7.22,0-2.87.55-5,1.64-6.21,1.48-1.75,3.59-2.59,6.46-2.59a9.1,9.1,0,0,1,3.39.6,6.75,6.75,0,0,1,2.47,1.65,6.23,6.23,0,0,1,1.13,2l.38.93,15.06-2.58-.63-1.45a18,18,0,0,0-7.93-9c-3.48-1.92-8.28-2.89-14.25-2.89-7.65,0-13.68,1.69-17.93,5s-6.54,8.33-6.54,14.61a18.13,18.13,0,0,0,3.72,11.73,19.79,19.79,0,0,0,8.73,6.36,38.46,38.46,0,0,0,12.65,1.77A32.66,32.66,0,0,0,532.85,465a18.38,18.38,0,0,0,7.16-4.44,17.77,17.77,0,0,0,4.25-7.35l.4-1.28-14.85-3.46Z"/><path class="cls-1" d="M568.05,455.16v-4.5h21.49v-9.75h-21.5v-3.25h23.24V427.54H551.67v38.25h40.25V455.16Z"/><path class="cls-1" d="M243.19,427.48H226.75L209.1,465.79h16.72l2.12-5.87h13.7l2.19,5.87h17ZM230,450.93,234.85,438l4.86,12.89Z"/><path class="cls-1" d="M487,453.56a14.85,14.85,0,0,0-2-2.44,12.19,12.19,0,0,0-2.35-2.08l-.12-.06a13.13,13.13,0,0,0,1.23-.49,12.45,12.45,0,0,0,4.56-3.93,10.84,10.84,0,0,0-.52-12.46,11.13,11.13,0,0,0-5.79-3.68,37.25,37.25,0,0,0-9.56-.93h-23v38.31h15.62V451.32a4.8,4.8,0,0,1,2.44.65,7.15,7.15,0,0,1,1.93,2.35l7.33,11.49h17.65L487,453.54Zm-12.16-11.91a3.56,3.56,0,0,1-2.09,1.15,22.17,22.17,0,0,1-3.43.49h-5.46V436h5.69q3.54,0,4.83.93a2.85,2.85,0,0,1,.68.66h0a3.09,3.09,0,0,1,.57,1.43,5.47,5.47,0,0,1,0,.59A3,3,0,0,1,474.87,441.65Z"/><path class="cls-1" d="M433.74,432c-4.23-3.36-10.29-5.07-18-5.07-7.52,0-13.51,1.74-17.79,5.16s-6.57,8.41-6.57,14.62a18.35,18.35,0,0,0,3.31,11.19,19.12,19.12,0,0,0,8.61,6.53,36.49,36.49,0,0,0,13,2,31.73,31.73,0,0,0,12.95-2.34,18.46,18.46,0,0,0,8.16-6.69,19.7,19.7,0,0,0,2.85-11C440.26,440.25,438.07,435.41,433.74,432Zm-11,22.61a11.16,11.16,0,0,1-13.69,0l0,0a6,6,0,0,1-.58-.65,1.88,1.88,0,0,1-.16-.23c-.14-.19-.27-.38-.39-.58l-.12-.24a8.23,8.23,0,0,1-.37-.79,1.8,1.8,0,0,0-.08-.21,10.93,10.93,0,0,1-.32-1.06.14.14,0,0,1,0-.07c-.06-.24-.11-.49-.16-.74,0-.08,0-.16,0-.24,0-.23-.07-.46-.1-.71s0-.32-.05-.48,0-.36,0-.55c0-.38,0-.77,0-1.18,0,0,0-.08,0-.13,0-3.59.85-6.18,2.51-7.74a9.41,9.41,0,0,1,6.69-2.36,9.76,9.76,0,0,1,6.88,2.34h0a5,5,0,0,1,.66.72l.23.31c.11.16.22.32.32.49a3.75,3.75,0,0,1,.24.44,6.65,6.65,0,0,1,.27.61c.06.15.13.29.18.44a8.51,8.51,0,0,1,.3,1.08c0,.16.06.33.1.5s.09.57.12.87,0,.32.05.48c0,.47.07.95.07,1.46h0Q425.14,452.27,422.71,454.59Z"/></svg>