<?xml version="1.0" encoding="UTF-8"?>
<!--Generator: Apple Native CoreSVG 232.5-->
<!DOCTYPE svg
PUBLIC "-//W3C//DTD SVG 1.1//EN"
       "http://www.w3.org/Graphics/SVG/1.1/DTD/svg11.dtd">
<svg version="1.1" xmlns="http://www.w3.org/2000/svg" xmlns:xlink="http://www.w3.org/1999/xlink" width="22.3799" height="18.3812">
 <g>
  <rect height="18.3812" opacity="0" width="22.3799" x="0" y="0"/>
  <path d="M0 15.016C0 17.1078 1.0957 18.1875 3.20351 18.1875L19.4219 18.1875C21.2842 18.1875 22.3799 17.0998 22.3799 15.016L22.3799 7.23494L0 7.23494ZM0 5.83436L22.3799 5.83436L22.3799 4.97265C22.3799 2.88886 21.2762 1.80117 19.1764 1.80117L10.0896 1.80117C9.39217 1.80117 8.96893 1.63965 8.43495 1.19688L7.8744 0.743749C7.1912 0.181054 6.68612 0 5.66308 0L2.89921 0C1.07949 0 0 1.06269 0 3.11171Z" fill="#474747" fill-opacity="1"/>
 </g>
</svg>
