<?xml version="1.0" encoding="UTF-8"?>
<!--Generator: Apple Native CoreSVG 232.5-->
<!DOCTYPE svg
PUBLIC "-//W3C//DTD SVG 1.1//EN"
       "http://www.w3.org/Graphics/SVG/1.1/DTD/svg11.dtd">
<svg version="1.1" xmlns="http://www.w3.org/2000/svg" xmlns:xlink="http://www.w3.org/1999/xlink" width="26.1006" height="23.1086">
 <g>
  <rect height="23.1086" opacity="0" width="26.1006" x="0" y="0"/>
  <path d="M3.20527 17.0383L16.5328 17.0383C18.6424 17.0383 19.7381 15.9506 19.7381 13.8668L19.7381 4.58925C19.7381 2.50546 18.6424 1.41777 16.5328 1.41777L3.20527 1.41777C1.0957 1.41777 0 2.50546 0 4.58925L0 13.8668C0 15.9586 1.0957 17.0383 3.20527 17.0383Z" fill="#007aff"/>
  <path d="M8.14022 23.1086L21.4695 23.1086C24.3607 23.1086 26.1006 21.3847 26.1006 18.5078L26.1006 9.23202C26.1006 6.35683 24.3607 4.64101 21.4695 4.64101L8.14022 4.64101C5.23925 4.64101 3.51543 6.35683 3.51543 9.23202L3.51543 18.5078C3.51543 21.3928 5.23925 23.1086 8.14022 23.1086Z" fill="#1e1e1e"/>
  <path d="M8.14022 21.6793L21.4695 21.6793C23.5773 21.6793 24.673 20.5933 24.673 18.5078L24.673 9.23202C24.673 7.14823 23.5773 6.06054 21.4695 6.06054L8.14022 6.06054C6.03066 6.06054 4.93671 7.14823 4.93671 9.23202L4.93671 18.5078C4.93671 20.6013 6.03066 21.6793 8.14022 21.6793Z" fill="#ffffff" fill-opacity="0.55"/>
  <path d="M8.5328 12.7062L10.4666 11.5373L8.53104 10.3621C7.75858 9.90271 8.4246 8.73924 9.25643 9.26248L11.7166 10.8002C12.2265 11.131 12.2523 11.9338 11.7166 12.2726L9.25643 13.8156C8.4246 14.3469 7.76659 13.1754 8.5328 12.7062ZM12.1865 13.7326C12.1865 13.3859 12.4658 13.1101 12.8187 13.1101L16.0672 13.1101C16.4299 13.1101 16.7056 13.3859 16.7056 13.7326C16.7056 14.0918 16.4299 14.3888 16.0672 14.3888L12.8187 14.3888C12.464 14.3888 12.1865 14.0918 12.1865 13.7326Z" fill="#1e1e1e"/>
 </g>
</svg>
