<?xml version="1.0" encoding="UTF-8"?>
<!--Generator: Apple Native CoreSVG 232.5-->
<!DOCTYPE svg
PUBLIC "-//W3C//DTD SVG 1.1//EN"
       "http://www.w3.org/Graphics/SVG/1.1/DTD/svg11.dtd">
<svg version="1.1" xmlns="http://www.w3.org/2000/svg" xmlns:xlink="http://www.w3.org/1999/xlink" width="23.1293" height="18.2316">
 <g>
  <rect height="18.2316" opacity="0" width="23.1293" x="0" y="0"/>
  <path d="M3.20351 18.2316L19.9258 18.2316C22.0416 18.2316 23.1293 17.1519 23.1293 15.0682L23.1293 3.17499C23.1293 1.08945 22.0416 0.00351548 19.9258 0.00351548L3.20351 0.00351548C1.0957 0.00351548 0 1.08945 0 3.17499L0 15.0682C0 17.1519 1.0957 18.2316 3.20351 18.2316Z" fill="#ffffff" fill-opacity="0.55"/>
  <path d="M4.24882 7.75312L6.53008 6.36464L4.24706 4.99042C3.35839 4.45292 4.11308 3.11738 5.08339 3.72577L7.94589 5.51308C8.5455 5.89628 8.57304 6.82948 7.94589 7.22245L5.08339 9.02303C4.11132 9.62967 3.3664 8.27987 4.24882 7.75312ZM8.51444 8.95077C8.51444 8.54198 8.83456 8.21738 9.23983 8.21738L13.0478 8.21738C13.4646 8.21738 13.7812 8.54198 13.7812 8.95077C13.7812 9.35604 13.4646 9.68592 13.0478 9.68592L9.23983 9.68592C8.8328 9.68592 8.51444 9.35604 8.51444 8.95077Z" fill="#1e1e1e"/>
 </g>
</svg>
