<?xml version="1.0" encoding="UTF-8"?>
<!--Generator: Apple Native CoreSVG 232.5-->
<!DOCTYPE svg
PUBLIC "-//W3C//DTD SVG 1.1//EN"
       "http://www.w3.org/Graphics/SVG/1.1/DTD/svg11.dtd">
<svg version="1.1" xmlns="http://www.w3.org/2000/svg" xmlns:xlink="http://www.w3.org/1999/xlink" width="23.3016" height="18.2476">
 <g>
  <rect height="18.2476" opacity="0" width="23.3016" x="0" y="0"/>
  <path d="M3.20703 18.2476L20.098 18.2476C22.2139 18.2476 23.3016 17.1582 23.3016 15.0727L23.3016 3.19101C23.3016 1.10547 22.2139 0.0195312 20.098 0.0195312L3.20351 0.0195312C1.0957 0.0195312 0 1.09746 0 3.19101L0 15.0727C0 17.1662 1.09746 18.2476 3.20703 18.2476ZM3.31796 16.3344C2.40819 16.3344 1.91503 15.8643 1.91503 14.9154L1.91503 3.34999C1.91503 2.40116 2.40643 1.9328 3.31444 1.9328L19.9871 1.9328C20.8871 1.9328 21.3883 2.40116 21.3883 3.34999L21.3883 14.9154C21.3883 15.8643 20.8871 16.3344 19.9871 16.3344Z" fill="#515ada"/>
  <path d="M4.19003 5.61815L5.14452 5.61815C5.43124 5.61815 5.65409 5.42108 5.65409 5.1494L5.65409 4.16386C5.65409 3.88241 5.43124 3.69159 5.14452 3.69159L4.19003 3.69159C3.9246 3.69159 3.72128 3.89042 3.72128 4.16386L3.72128 5.1494C3.72128 5.41308 3.9246 5.61815 4.19003 5.61815ZM7.67577 5.61815L8.63202 5.61815C8.92499 5.61815 9.13984 5.42108 9.13984 5.1494L9.13984 4.16386C9.13984 3.88241 8.92499 3.69159 8.63202 3.69159L7.67577 3.69159C7.41034 3.69159 7.20527 3.89042 7.20527 4.16386L7.20527 5.1494C7.20527 5.41308 7.40859 5.61815 7.67577 5.61815ZM11.1615 5.61815L12.1143 5.61815C12.3992 5.61815 12.6141 5.42108 12.6141 5.1494L12.6141 4.16386C12.6141 3.88241 12.3992 3.69159 12.1143 3.69159L11.1615 3.69159C10.8881 3.69159 10.6893 3.89042 10.6893 4.16386L10.6893 5.1494C10.6893 5.41308 10.8846 5.61815 11.1615 5.61815ZM14.634 5.61815L15.5902 5.61815C15.885 5.61815 16.098 5.42108 16.098 5.1494L16.098 4.16386C16.098 3.88241 15.885 3.69159 15.5902 3.69159L14.634 3.69159C14.3703 3.69159 14.1652 3.89042 14.1652 4.16386L14.1652 5.1494C14.1652 5.41308 14.3703 5.61815 14.634 5.61815ZM18.1197 5.61815L19.0742 5.61815C19.3609 5.61815 19.5758 5.42108 19.5758 5.1494L19.5758 4.16386C19.5758 3.88241 19.3609 3.69159 19.0742 3.69159L18.1197 3.69159C17.8463 3.69159 17.6492 3.89042 17.6492 4.16386L17.6492 5.1494C17.6492 5.41308 17.8463 5.61815 18.1197 5.61815ZM4.19003 8.82323L5.14452 8.82323C5.43124 8.82323 5.65409 8.62792 5.65409 8.35624L5.65409 7.37069C5.65409 7.08925 5.43124 6.89843 5.14452 6.89843L4.19003 6.89843C3.9246 6.89843 3.72128 7.09726 3.72128 7.37069L3.72128 8.35624C3.72128 8.61991 3.9246 8.82323 4.19003 8.82323ZM7.67577 8.82323L8.63202 8.82323C8.92499 8.82323 9.13984 8.62792 9.13984 8.35624L9.13984 7.37069C9.13984 7.08925 8.92499 6.89843 8.63202 6.89843L7.67577 6.89843C7.41034 6.89843 7.20527 7.09726 7.20527 7.37069L7.20527 8.35624C7.20527 8.61991 7.40859 8.82323 7.67577 8.82323ZM11.1615 8.82323L12.1143 8.82323C12.3992 8.82323 12.6141 8.62792 12.6141 8.35624L12.6141 7.37069C12.6141 7.08925 12.3992 6.89843 12.1143 6.89843L11.1615 6.89843C10.8881 6.89843 10.6893 7.09726 10.6893 7.37069L10.6893 8.35624C10.6893 8.61991 10.8846 8.82323 11.1615 8.82323ZM14.634 8.82323L15.5902 8.82323C15.885 8.82323 16.098 8.62792 16.098 8.35624L16.098 7.37069C16.098 7.08925 15.885 6.89843 15.5902 6.89843L14.634 6.89843C14.3703 6.89843 14.1652 7.09726 14.1652 7.37069L14.1652 8.35624C14.1652 8.61991 14.3703 8.82323 14.634 8.82323ZM4.19003 14.565L5.14452 14.565C5.43124 14.565 5.65409 14.3697 5.65409 14.098L5.65409 13.1125C5.65409 12.8311 5.43124 12.6322 5.14452 12.6322L4.19003 12.6322C3.9246 12.6322 3.72128 12.8391 3.72128 13.1125L3.72128 14.098C3.72128 14.3617 3.9246 14.565 4.19003 14.565ZM7.67577 14.565L8.63202 14.565C8.92499 14.565 9.13984 14.3697 9.13984 14.098L9.13984 13.1125C9.13984 12.8311 8.92499 12.6322 8.63202 12.6322L7.67577 12.6322C7.41034 12.6322 7.20527 12.8391 7.20527 13.1125L7.20527 14.098C7.20527 14.3617 7.40859 14.565 7.67577 14.565ZM11.1615 14.565L12.1143 14.565C12.3992 14.565 12.6141 14.3697 12.6141 14.098L12.6141 13.1125C12.6141 12.8311 12.3992 12.6322 12.1143 12.6322L11.1615 12.6322C10.8881 12.6322 10.6893 12.8391 10.6893 13.1125L10.6893 14.098C10.6893 14.3617 10.8846 14.565 11.1615 14.565ZM14.634 14.565L15.5902 14.565C15.885 14.565 16.098 14.3697 16.098 14.098L16.098 13.1125C16.098 12.8311 15.885 12.6322 15.5902 12.6322L14.634 12.6322C14.3703 12.6322 14.1652 12.8391 14.1652 13.1125L14.1652 14.098C14.1652 14.3617 14.3703 14.565 14.634 14.565ZM18.1197 14.565L19.0742 14.565C19.3609 14.565 19.5758 14.3697 19.5758 14.098L19.5758 13.1125C19.5758 12.8311 19.3609 12.6322 19.0742 12.6322L18.1197 12.6322C17.8463 12.6322 17.6492 12.8391 17.6492 13.1125L17.6492 14.098C17.6492 14.3617 17.8463 14.565 18.1197 14.565Z" fill="#000000" fill-opacity="0.55"/>
 </g>
</svg>
