<?xml version="1.0" encoding="UTF-8"?>
<!--Generator: Apple Native CoreSVG 232.5-->
<!DOCTYPE svg
PUBLIC "-//W3C//DTD SVG 1.1//EN"
       "http://www.w3.org/Graphics/SVG/1.1/DTD/svg11.dtd">
<svg version="1.1" xmlns="http://www.w3.org/2000/svg" xmlns:xlink="http://www.w3.org/1999/xlink" width="16.7457" height="21.1441">
 <g>
  <rect height="21.1441" opacity="0" width="16.7457" x="0" y="0"/>
  <path d="M3.17148 21.1379L13.5742 21.1379C15.6678 21.1379 16.7457 20.0422 16.7457 17.9406L16.7457 9.08047C16.7457 7.72402 16.5711 7.10157 15.7213 6.23575L10.5918 1.02617C9.77576 0.192382 9.09725 0 7.8787 0L3.17148 0C1.08769 0 0 1.10371 0 3.20527L0 17.9406C0 20.0502 1.07968 21.1379 3.17148 21.1379ZM3.32421 19.2246C2.38163 19.2246 1.91327 18.7314 1.91327 17.8217L1.91327 3.32421C1.91327 2.42245 2.38163 1.91327 3.33222 1.91327L7.49512 1.91327L7.49512 7.26894C7.49512 8.6664 8.17714 9.34218 9.56835 9.34218L14.8324 9.34218L14.8324 17.8217C14.8324 18.7314 14.3641 19.2246 13.4152 19.2246ZM9.7494 7.65488C9.34472 7.65488 9.18241 7.48281 9.18241 7.07988L9.18241 2.17909L14.5666 7.65488Z" fill="#007aff"/>
  <path d="M9.2205 11.2336C9.2205 10.7699 8.833 10.4213 8.37285 10.4213C7.91269 10.4213 7.52519 10.7699 7.52519 11.2336L7.52519 14.2389L7.59609 15.7604L6.84687 14.9731L6.09804 14.2047C5.95253 14.0424 5.72811 13.9449 5.51972 13.9449C5.07538 13.9449 4.75527 14.2598 4.75527 14.6891C4.75527 14.9365 4.84492 15.1166 5.02753 15.2762L7.72578 17.7481C7.94843 17.9512 8.13984 18.0424 8.37285 18.0424C8.60585 18.0424 8.79726 17.9512 9.01991 17.7481L11.7182 15.2762C11.9008 15.1166 11.9904 14.9365 11.9904 14.6891C11.9904 14.2598 11.6641 13.9449 11.2277 13.9449C11.0113 13.9449 10.7896 14.0424 10.6477 14.2047L9.90058 14.9731L9.1496 15.7604L9.2205 14.2389Z" fill="#ffffff" fill-opacity="0.55"/>
 </g>
</svg>
