<?xml version="1.0" encoding="UTF-8"?>
<!--Generator: Apple Native CoreSVG 232.5-->
<!DOCTYPE svg
PUBLIC "-//W3C//DTD SVG 1.1//EN"
       "http://www.w3.org/Graphics/SVG/1.1/DTD/svg11.dtd">
<svg version="1.1" xmlns="http://www.w3.org/2000/svg" xmlns:xlink="http://www.w3.org/1999/xlink" width="24.634" height="18.2476">
 <g>
  <rect height="18.2476" opacity="0" width="24.634" x="0" y="0"/>
  <path d="M0.288521 7.02968C0.695354 7.43827 1.25629 7.40799 1.65863 7.0119L2.45727 6.22303L3.827 4.73553L3.827 15.0762C3.827 17.168 4.9307 18.2476 7.03226 18.2476L14.6651 18.2476C15.3061 18.2476 15.704 17.8836 15.6942 17.2941C15.6862 16.6967 15.3061 16.3344 14.6651 16.3344L7.15121 16.3344C6.24144 16.3344 5.74026 15.8643 5.74026 14.9154L5.74026 4.71951L7.11976 6.22303L7.91664 7.0119C8.32074 7.40799 8.88792 7.43827 9.28675 7.02968C9.68733 6.63534 9.67483 6.06191 9.27073 5.65781L5.93929 2.33438C5.20785 1.61094 4.37367 1.61446 3.64575 2.33438L0.312544 5.65781C-0.0978044 6.06191-0.102297 6.63534 0.288521 7.02968ZM8.93831 0.971282C8.94632 1.56249 9.32815 1.9328 9.96916 1.9328L17.4911 1.9328C18.3991 1.9328 18.8922 2.40116 18.8922 3.34999L18.8922 13.5459L17.5145 12.0344L16.7159 11.2535C16.3135 10.8574 15.7543 10.8272 15.3457 11.2295C14.9469 11.6301 14.9594 12.2035 15.3618 12.6076L18.695 15.923C19.4344 16.6545 20.2588 16.6527 20.9965 15.923L24.32 12.6076C24.7321 12.2035 24.7366 11.6301 24.3457 11.2295C23.9452 10.8272 23.378 10.8494 22.9739 11.2535L22.177 12.0344L20.8055 13.5299L20.8055 3.19101C20.8055 1.09746 19.7116 0.0195312 17.602 0.0195312L9.96916 0.0195312C9.32815 0.0195312 8.9303 0.381833 8.93831 0.971282Z" fill="#ffffff" fill-opacity="0.55"/>
 </g>
</svg>
