<?xml version="1.0" encoding="UTF-8"?>
<!--Generator: Apple Native CoreSVG 232.5-->
<!DOCTYPE svg
PUBLIC "-//W3C//DTD SVG 1.1//EN"
       "http://www.w3.org/Graphics/SVG/1.1/DTD/svg11.dtd">
<svg version="1.1" xmlns="http://www.w3.org/2000/svg" xmlns:xlink="http://www.w3.org/1999/xlink" width="16.7457" height="21.1441">
 <g>
  <rect height="21.1441" opacity="0" width="16.7457" x="0" y="0"/>
  <path d="M3.17148 21.1379L13.5742 21.1379C15.6678 21.1379 16.7457 20.0422 16.7457 17.9406L16.7457 9.19823L9.44511 9.19823C8.22324 9.19823 7.62929 8.60429 7.62929 7.38066L7.62929 0L3.17148 0C1.08769 0 0 1.10371 0 3.20527L0 17.9406C0 20.0502 1.07968 21.1379 3.17148 21.1379ZM9.61855 7.7707L16.639 7.7707C16.5875 7.3334 16.2639 6.91113 15.7564 6.39395L10.4248 0.980467C9.93417 0.483593 9.50214 0.161719 9.05683 0.100391L9.05683 7.21699C9.05683 7.58613 9.2414 7.7707 9.61855 7.7707Z" fill="#007aff"/>
  <path d="M8.37285 11.0408C8.81796 11.0408 9.19218 11.3779 9.19218 11.815L9.19218 15.0541L9.11151 16.5152L9.85449 15.7572L10.6514 14.9373C10.7969 14.79 11.0018 14.6891 11.2066 14.6891C11.6279 14.6891 11.9445 14.9924 11.9445 15.3986C11.9445 15.6346 11.8549 15.8129 11.6838 15.9627L8.99335 18.4348C8.7787 18.6281 8.59433 18.7158 8.37285 18.7158C8.15136 18.7158 7.96699 18.6281 7.75234 18.4348L5.06191 15.9627C4.89257 15.8129 4.80293 15.6346 4.80293 15.3986C4.80293 14.9924 5.10976 14.6891 5.53906 14.6891C5.73593 14.6891 5.94706 14.79 6.09433 14.9373L6.89472 15.7572L7.63418 16.5152L7.56152 15.0541L7.56152 11.815C7.56152 11.3779 7.92949 11.0408 8.37285 11.0408Z" fill="#ffffff" fill-opacity="0.55"/>
 </g>
</svg>
