<?xml version="1.0" encoding="UTF-8"?>
<!--Generator: Apple Native CoreSVG 232.5-->
<!DOCTYPE svg
PUBLIC "-//W3C//DTD SVG 1.1//EN"
       "http://www.w3.org/Graphics/SVG/1.1/DTD/svg11.dtd">
<svg version="1.1" xmlns="http://www.w3.org/2000/svg" xmlns:xlink="http://www.w3.org/1999/xlink" width="19.7926" height="23.6008">
 <g>
  <rect height="23.6008" opacity="0" width="19.7926" x="0" y="0"/>
  <path d="M11.4203 23.5412C15.1012 23.5394 17.3689 22.2144 17.3689 19.9318L17.3689 15.2066C18.9021 13.8459 19.7926 11.6746 19.7926 9.30703C19.7926 3.72636 16.1461 0 10.7252 0C5.32207 0 1.70488 3.64023 1.70488 9.10019C1.70488 9.39238 1.71289 9.64101 1.74043 9.88789L0.496289 12.1225C0.167773 12.7049 0 13.2846 0 13.8154C0 14.809 0.609961 15.6373 1.71113 15.8949L1.71113 17.5836C1.71113 19.4363 2.98574 20.3988 4.70409 20.2432L5.58086 20.1631L5.57461 20.2314C5.74043 22.3332 7.94785 23.5412 11.4203 23.5412Z" fill="#007aff"/>
  <path d="M7.29648 10.518C5.72089 10.518 4.6705 9.28359 4.6705 7.66562C4.6705 7.05859 4.8578 6.46386 5.19335 5.97206C5.49687 6.5416 6.10878 6.89707 6.89042 6.89707C7.16992 6.89707 7.41308 6.66191 7.41308 6.39043C7.41308 6.11094 7.17792 5.88203 6.89042 5.88203C6.35566 5.88203 5.95839 5.44843 5.95839 4.88066C5.95839 3.97089 6.82988 3.22167 8.04511 3.22167C8.21034 3.22167 8.35605 3.23945 8.52128 3.25722C8.4164 3.50507 8.31503 3.77597 8.30702 4.14921C8.29101 4.45351 8.50663 4.68867 8.81191 4.68867C9.10292 4.68867 9.30878 4.48906 9.30878 4.18203C9.31679 3.30624 9.99784 2.71484 10.9365 2.71484C11.4959 2.71484 12.0732 2.98124 12.4834 3.42968C12.5891 3.4039 12.7027 3.39589 13.0539 3.39589C14.1725 3.39062 15.0857 4.29784 15.0857 5.42714C15.0857 7.75741 11.2728 8.11074 11.2728 10.774C11.2728 10.925 11.2969 11.0644 11.3387 11.2074C11.0705 11.2527 10.8102 11.2768 10.5844 11.2768C10.0072 11.2768 9.47363 11.1551 9.0164 10.918C9.76289 10.4855 10.2027 9.74198 10.2133 8.82245C10.2133 8.61717 10.199 8.41717 10.1492 8.22342C11.2096 7.96346 11.7709 7.23631 11.7629 6.10682C11.7629 5.83358 11.5305 5.59667 11.2572 5.59667C10.9875 5.59667 10.7621 5.82381 10.7621 6.10682C10.7621 6.7955 10.426 7.22284 9.72285 7.33729C9.68925 7.26288 9.62539 7.16171 9.55449 7.10409C9.43301 6.98964 9.28574 6.95507 9.16152 6.95507C8.89004 6.95507 8.67266 7.15468 8.67266 7.41288C8.67266 7.55663 8.73301 7.72616 8.90254 7.88417C9.10234 8.08397 9.2293 8.39393 9.2293 8.74843C9.2293 9.7789 8.42988 10.518 7.29648 10.518ZM14.8328 13.2363C14.0924 13.2363 13.4932 12.6103 13.3201 11.6967L13.1752 11.6967C12.5393 11.6967 12.1662 11.3016 12.1662 10.7475C12.1662 8.80741 15.6865 8.39667 16.0039 5.64335C16.6967 6.06855 17.1248 6.77909 17.1248 7.65468C17.1248 8.61113 16.433 9.21484 15.3629 9.13496C15.0994 9.11367 14.859 9.35058 14.859 9.63359C14.859 9.89531 15.0603 10.1109 15.3398 10.1385C15.8506 10.1695 16.3 10.0984 16.6828 9.94023C16.6908 10.0726 16.6908 10.2131 16.6908 10.3375C16.6908 12.0385 15.9141 13.2363 14.8328 13.2363Z" fill="#ffffff" fill-opacity="0.55"/>
 </g>
</svg>
