<?xml version="1.0" encoding="UTF-8"?>
<!--Generator: Apple Native CoreSVG 232.5-->
<!DOCTYPE svg
PUBLIC "-//W3C//DTD SVG 1.1//EN"
       "http://www.w3.org/Graphics/SVG/1.1/DTD/svg11.dtd">
<svg version="1.1" xmlns="http://www.w3.org/2000/svg" xmlns:xlink="http://www.w3.org/1999/xlink" width="20.1767" height="20.1812">
 <g>
  <rect height="20.1812" opacity="0" width="20.1767" x="0" y="0"/>
  <path d="M10.0875 20.175C15.6141 20.175 20.1767 15.606 20.1767 10.0875C20.1767 4.56094 15.606 0 10.0795 0C4.56269 0 0 4.56094 0 10.0875C0 15.606 4.5707 20.175 10.0875 20.175Z" fill="#007aff"/>
  <path d="M4.84257 7.36113C4.84257 7.18476 4.933 7.02949 5.13358 6.91855L9.43593 4.44726C9.65078 4.32206 9.85488 4.25996 10.0795 4.25996C10.3059 4.25996 10.5162 4.31855 10.7328 4.44726L15.0289 6.91855C15.2375 7.02949 15.3279 7.18476 15.3279 7.36113C15.3279 7.60859 15.1443 7.83046 14.84 7.83046L5.33046 7.83046C5.02441 7.83046 4.84257 7.60859 4.84257 7.36113ZM5.46093 13.0277L5.46093 12.9061C5.46093 12.6897 5.60195 12.5309 5.84413 12.5309L6.05937 12.5309L6.05937 9.31503L5.84413 9.31503C5.60195 9.31503 5.46093 9.18027 5.46093 8.94784L5.46093 8.82441C5.46093 8.58671 5.60722 8.44218 5.84941 8.44218L7.10097 8.44218C7.33515 8.44218 7.48144 8.58671 7.48144 8.82441L7.48144 8.94784C7.48144 9.18027 7.34042 9.31503 7.10624 9.31503L6.89101 9.31503L6.89101 12.5309L7.10624 12.5309C7.34042 12.5309 7.48144 12.6897 7.48144 12.9061L7.48144 13.0277C7.48144 13.2672 7.33515 13.4117 7.10097 13.4117L5.84941 13.4117C5.60722 13.4117 5.46093 13.2672 5.46093 13.0277ZM7.88749 13.0277L7.88749 12.9061C7.88749 12.6897 8.02851 12.5309 8.25468 12.5309L8.47792 12.5309L8.47792 9.31503L8.25468 9.31503C8.02851 9.31503 7.88749 9.18027 7.88749 8.94784L7.88749 8.82441C7.88749 8.58671 8.03203 8.44218 8.25995 8.44218L9.51777 8.44218C9.75371 8.44218 9.91601 8.58671 9.91601 8.82441L9.91601 8.94784C9.91601 9.18027 9.76699 9.31503 9.5248 9.31503L9.31757 9.31503L9.31757 12.5309L9.5248 12.5309C9.75898 12.5309 9.91601 12.6897 9.91601 12.9061L9.91601 13.0277C9.91601 13.2672 9.76171 13.4117 9.51777 13.4117L8.25995 13.4117C8.03203 13.4117 7.88749 13.2672 7.88749 13.0277ZM10.3123 13.0277L10.3123 12.9061C10.3123 12.6897 10.4533 12.5309 10.6937 12.5309L10.901 12.5309L10.901 9.31503L10.6937 9.31503C10.4533 9.31503 10.3123 9.18027 10.3123 8.94784L10.3123 8.82441C10.3123 8.58671 10.4568 8.44218 10.7008 8.44218L11.9506 8.44218C12.1705 8.44218 12.3391 8.58671 12.3391 8.82441L12.3391 8.94784C12.3391 9.18027 12.174 9.31503 11.9576 9.31503L11.7344 9.31503L11.7344 12.5309L11.9576 12.5309C12.174 12.5309 12.3391 12.6897 12.3391 12.9061L12.3391 13.0277C12.3391 13.2672 12.1705 13.4117 11.9506 13.4117L10.7008 13.4117C10.4568 13.4117 10.3123 13.2672 10.3123 13.0277ZM12.7273 13.0277L12.7273 12.9061C12.7273 12.6897 12.8684 12.5309 13.1105 12.5309L13.3338 12.5309L13.3338 9.31503L13.1105 9.31503C12.8684 9.31503 12.7273 9.18027 12.7273 8.94784L12.7273 8.82441C12.7273 8.58671 12.8736 8.44218 13.1158 8.44218L14.3674 8.44218C14.5953 8.44218 14.7559 8.58671 14.7559 8.82441L14.7559 8.94784C14.7559 9.18027 14.6068 9.31503 14.3727 9.31503L14.1654 9.31503L14.1654 12.5309L14.3727 12.5309C14.5988 12.5309 14.7559 12.6897 14.7559 12.9061L14.7559 13.0277C14.7559 13.2672 14.6033 13.4117 14.3674 13.4117L13.1158 13.4117C12.8736 13.4117 12.7273 13.2672 12.7273 13.0277ZM4.6039 14.4963C4.6039 14.2346 4.81327 14.0199 5.06249 14.0199L15.108 14.0199C15.3635 14.0199 15.5666 14.2346 15.5666 14.4963C15.5666 14.7535 15.3555 14.9566 15.108 14.9566L5.06249 14.9566C4.81327 14.9566 4.6039 14.7535 4.6039 14.4963Z" fill="#ffffff" fill-opacity="0.55"/>
 </g>
</svg>
