<?xml version="1.0" encoding="UTF-8"?>
<!--Generator: Apple Native CoreSVG 232.5-->
<!DOCTYPE svg
PUBLIC "-//W3C//DTD SVG 1.1//EN"
       "http://www.w3.org/Graphics/SVG/1.1/DTD/svg11.dtd">
<svg version="1.1" xmlns="http://www.w3.org/2000/svg" xmlns:xlink="http://www.w3.org/1999/xlink" width="16.7457" height="21.1441">
 <g>
  <rect height="21.1441" opacity="0" width="16.7457" x="0" y="0"/>
  <path d="M0 17.9406C0 20.0502 1.07968 21.1379 3.17148 21.1379L13.5742 21.1379C15.6678 21.1379 16.7457 20.0502 16.7457 17.9406L16.7457 3.20527C16.7457 1.10371 15.6678 0 13.5742 0L3.17148 0C1.07968 0 0 1.10371 0 3.20527Z" fill="#007aff"/>
  <path d="M3.86542 14.7795L8.24257 14.7795C8.65155 14.7795 8.9203 15.051 8.9203 15.4822L8.9203 17.0357C8.9203 17.459 8.65155 17.7385 8.24257 17.7385L3.86542 17.7385C3.44042 17.7385 3.18319 17.459 3.18319 17.0357L3.18319 15.4822C3.18319 15.051 3.44042 14.7795 3.86542 14.7795Z" fill="#ffffff" fill-opacity="0.55"/>
  <path d="M3.86542 10.9848L11.2727 10.9848C11.6896 10.9848 11.9451 11.2465 11.9451 11.6715L11.9451 13.233C11.9451 13.6643 11.6896 13.9295 11.2727 13.9295L3.86542 13.9295C3.44042 13.9295 3.18319 13.6643 3.18319 13.233L3.18319 11.6715C3.18319 11.2465 3.44042 10.9848 3.86542 10.9848Z" fill="#ffffff" fill-opacity="0.55"/>
  <path d="M3.86542 7.17753L12.8963 7.17753C13.3133 7.17753 13.5705 7.45078 13.5705 7.88203L13.5705 9.43379C13.5705 9.86679 13.3133 10.1383 12.8963 10.1383L3.86542 10.1383C3.44042 10.1383 3.18319 9.86679 3.18319 9.43379L3.18319 7.88203C3.18319 7.45078 3.44042 7.17753 3.86542 7.17753Z" fill="#ffffff" fill-opacity="0.55"/>
  <path d="M3.86542 3.38456L9.73046 3.38456C10.1475 3.38456 10.4064 3.65605 10.4064 4.0873L10.4064 5.64082C10.4064 6.06406 10.1475 6.34355 9.73046 6.34355L3.86542 6.34355C3.44042 6.34355 3.18319 6.06406 3.18319 5.64082L3.18319 4.0873C3.18319 3.65605 3.44042 3.38456 3.86542 3.38456Z" fill="#ffffff" fill-opacity="0.55"/>
 </g>
</svg>
