<?xml version="1.0" encoding="UTF-8"?>
<!--Generator: Apple Native CoreSVG 232.5-->
<!DOCTYPE svg
PUBLIC "-//W3C//DTD SVG 1.1//EN"
       "http://www.w3.org/Graphics/SVG/1.1/DTD/svg11.dtd">
<svg version="1.1" xmlns="http://www.w3.org/2000/svg" xmlns:xlink="http://www.w3.org/1999/xlink" width="20.1767" height="20.1812">
 <g>
  <rect height="20.1812" opacity="0" width="20.1767" x="0" y="0"/>
  <path d="M15.6914 16.8832L16.8623 15.7947L11.5139 10.5269L18.0723 6.76815L17.2896 5.4209L10.8756 9.09375L10.8756 1.53593L9.3209 1.53593L9.3209 10.291C9.3209 10.5568 9.38907 10.7379 9.58516 10.926ZM10.0875 20.175C15.6141 20.175 20.1767 15.606 20.1767 10.0875C20.1767 4.56094 15.606 0 10.0795 0C4.56269 0 0 4.56094 0 10.0875C0 15.606 4.5707 20.175 10.0875 20.175ZM10.0875 18.1879C5.59237 18.1879 1.9951 14.5826 1.9951 10.0875C1.9951 5.59237 5.58437 1.9871 10.0795 1.9871C14.5746 1.9871 18.1897 5.59237 18.1897 10.0875C18.1897 14.5826 14.5826 18.1879 10.0875 18.1879Z" fill="#ffffff" fill-opacity="0.55"/>
 </g>
</svg>
