<?xml version="1.0" encoding="UTF-8"?>
<!--Generator: Apple Native CoreSVG 232.5-->
<!DOCTYPE svg
PUBLIC "-//W3C//DTD SVG 1.1//EN"
       "http://www.w3.org/Graphics/SVG/1.1/DTD/svg11.dtd">
<svg version="1.1" xmlns="http://www.w3.org/2000/svg" xmlns:xlink="http://www.w3.org/1999/xlink" width="21.3652" height="18.5535">
 <g>
  <rect height="18.5535" opacity="0" width="21.3652" x="0" y="0"/>
  <path d="M1.04648 11.5531L7.40136 7.87812L12.0406 11.8166L20.2412 6.91542L19.5064 5.71543L12.1398 10.1221L7.52011 6.20137L1.04648 9.94102ZM7.32187 9.16308C8.34745 9.16308 9.18671 8.32558 9.18671 7.29824C9.18671 6.27266 8.34745 5.44141 7.32187 5.44141C6.29453 5.44141 5.45703 6.27266 5.45703 7.29824C5.45703 8.32558 6.29453 9.16308 7.32187 9.16308ZM12.0437 12.8279C13.0711 12.8279 13.9006 11.9904 13.9006 10.9631C13.9006 9.9375 13.0711 9.10625 12.0437 9.10625C11.0182 9.10625 10.1789 9.9375 10.1789 10.9631C10.1789 11.9904 11.0182 12.8279 12.0437 12.8279ZM19.3965 8.36347C20.4221 8.36347 21.2596 7.52421 21.2596 6.49863C21.2596 5.47129 20.4221 4.63379 19.3965 4.63379C18.3691 4.63379 17.5316 5.47129 17.5316 6.49863C17.5316 7.52421 18.3691 8.36347 19.3965 8.36347Z" fill="#ffffff" fill-opacity="0.55"/>
  <path d="M0 17.724C0 18.2262 0.335351 18.5535 0.839255 18.5535L20.3967 18.5535C20.9301 18.5535 21.3652 18.1484 21.3652 17.6017C21.3652 17.0631 20.9301 16.6482 20.3967 16.6482L2.18319 16.6482C1.9869 16.6482 1.91327 16.5746 1.91327 16.3783L1.91327 1.01621C1.91327 0.489062 1.50018 0.0539088 0.961516 0.0539088C0.413083 0.0539088 0 0.489062 0 1.01621Z" fill="#007aff"/>
 </g>
</svg>
