<?xml version="1.0" encoding="UTF-8"?>
<!--Generator: Apple Native CoreSVG 232.5-->
<!DOCTYPE svg
PUBLIC "-//W3C//DTD SVG 1.1//EN"
       "http://www.w3.org/Graphics/SVG/1.1/DTD/svg11.dtd">
<svg version="1.1" xmlns="http://www.w3.org/2000/svg" xmlns:xlink="http://www.w3.org/1999/xlink" width="24.9252" height="19.1234">
 <g>
  <rect height="19.1234" opacity="0" width="24.9252" x="0" y="0"/>
  <path d="M19.4973 17.3242C22.5344 17.3242 24.9252 15.0957 24.9252 12.3152C24.9252 10.2363 23.74 8.40097 21.8076 7.59316C21.8201 3.18144 18.6361 0 14.5523 0C11.948 0 10.0053 1.34571 8.78066 3.1127C6.31152 2.44824 3.70664 4.29199 3.61562 7.04219C1.38398 7.43593 0 9.4455 0 11.881C0 14.8488 2.59238 17.3242 6.00429 17.3242Z" fill="#007aff"/>
  <path d="M11.756 13.3316C11.4092 13.3316 11.1262 13.1791 10.8812 12.8693L8.69375 10.1559C8.52968 9.94472 8.44804 9.74062 8.44804 9.51972C8.44804 9.02558 8.83476 8.64589 9.31288 8.64589C9.6164 8.64589 9.86757 8.78437 10.0619 9.04179L11.7223 11.1687L14.9936 5.73144C15.1727 5.4246 15.4486 5.25156 15.7519 5.25156C16.2408 5.25156 16.6488 5.60195 16.6488 6.06855C16.6488 6.29667 16.5307 6.52655 16.4189 6.69862L12.5935 12.8543C12.3957 13.1613 12.0976 13.3316 11.756 13.3316Z" fill="#ffffff" fill-opacity="0.55"/>
 </g>
</svg>
