<?xml version="1.0" encoding="UTF-8"?>
<!--Generator: Apple Native CoreSVG 232.5-->
<!DOCTYPE svg
PUBLIC "-//W3C//DTD SVG 1.1//EN"
       "http://www.w3.org/Graphics/SVG/1.1/DTD/svg11.dtd">
<svg version="1.1" xmlns="http://www.w3.org/2000/svg" xmlns:xlink="http://www.w3.org/1999/xlink" width="16.7141" height="27.3137">
 <g>
  <rect height="27.3137" opacity="0" width="16.7141" x="0" y="0"/>
  <path d="M16.7141 21.7936L16.7141 7.01074C16.7141 4.90371 15.6133 3.79317 13.5373 3.79317L3.17499 3.79317C1.09902 3.79317 0 4.90371 0 7.01074L0 21.7936C0 23.9006 1.09902 25.0111 3.17499 25.0111L13.5373 25.0111C15.6133 25.0111 16.7141 23.9006 16.7141 21.7936Z" fill="#ffffff" fill-opacity="0.55"/>
  <path d="M5.34648 7.3707L11.3658 7.3707C12.5836 7.3707 13.457 6.48222 13.457 5.22539L13.457 4.2C13.457 2.93164 12.5836 2.04668 11.3623 2.04668C11.1238 2.04668 10.8926 2.04668 10.6355 2.04668L11.6215 2.76483C11.4344 1.17949 9.99042 0 8.35703 0C6.72363 0 5.27969 1.17949 5.09258 2.76483L6.07675 2.04668C5.81972 2.04668 5.59023 2.04668 5.35175 2.04668C4.13046 2.04668 3.25527 2.93164 3.25527 4.2L3.25527 5.22539C3.25527 6.48222 4.13046 7.3707 5.34648 7.3707Z" fill="#1e1e1e"/>
  <path d="M5.34648 6.22734L11.3658 6.22734C11.9533 6.22734 12.3074 5.85195 12.3074 5.22539L12.3074 4.2C12.3074 3.57168 11.9533 3.19804 11.3658 3.19804L10.5377 3.19804C10.4641 2.06289 9.52148 1.14336 8.35703 1.14336C7.19257 1.14336 6.25 2.06289 6.17636 3.19804L5.34648 3.19804C4.76074 3.19804 4.40664 3.57168 4.40664 4.2L4.40664 5.22539C4.40664 5.85195 4.76074 6.22734 5.34648 6.22734ZM8.35703 4.13984C7.88124 4.13984 7.49511 3.74394 7.49511 3.27968C7.49511 2.79765 7.88124 2.41152 8.35703 2.41152C8.83281 2.41152 9.21718 2.79765 9.21718 3.27968C9.21718 3.74394 8.83281 4.13984 8.35703 4.13984Z" fill="#ffffff" fill-opacity="0.55"/>
 </g>
</svg>
