<?xml version="1.0" encoding="UTF-8"?>
<!--Generator: Apple Native CoreSVG 232.5-->
<!DOCTYPE svg
PUBLIC "-//W3C//DTD SVG 1.1//EN"
       "http://www.w3.org/Graphics/SVG/1.1/DTD/svg11.dtd">
<svg version="1.1" xmlns="http://www.w3.org/2000/svg" xmlns:xlink="http://www.w3.org/1999/xlink" width="19.3478" height="19.3594">
 <g>
  <rect height="19.3594" opacity="0" width="19.3478" x="0" y="0"/>
  <path d="M0.953509 6.52753C1.58007 6.52753 1.91327 6.17655 1.91327 5.55624L1.91327 3.34999C1.91327 2.40116 2.40643 1.9328 3.31444 1.9328L5.5705 1.9328C6.20058 1.9328 6.54179 1.58983 6.54179 0.971282C6.54179 0.352732 6.20058 0.0195312 5.5705 0.0195312L3.20351 0.0195312C1.0957 0.0195312 0 1.09746 0 3.183L0 5.55624C0 6.17831 0.342966 6.52753 0.953509 6.52753ZM18.3881 6.52753C19.0146 6.52753 19.3478 6.17831 19.3478 5.55624L19.3478 3.183C19.3478 1.09746 18.2539 0.0195312 16.1443 0.0195312L13.7693 0.0195312C13.149 0.0195312 12.8061 0.352732 12.8061 0.971282C12.8061 1.58983 13.1508 1.9328 13.7693 1.9328L16.0254 1.9328C16.9254 1.9328 17.4346 2.40116 17.4346 3.34999L17.4346 5.55624C17.4346 6.17831 17.7775 6.52753 18.3881 6.52753ZM3.20351 19.3594L5.5705 19.3594C6.20058 19.3594 6.54179 19.0164 6.54179 18.4059C6.54179 17.7873 6.19706 17.4461 5.5705 17.4461L3.31444 17.4461C2.40643 17.4461 1.91327 16.9777 1.91327 16.0271L1.91327 13.8209C1.91327 13.1926 1.57206 12.8496 0.953509 12.8496C0.333201 12.8496 0 13.1926 0 13.8209L0 16.1879C0 18.2797 1.0957 19.3594 3.20351 19.3594ZM13.7693 19.3594L16.1443 19.3594C18.2539 19.3594 19.3478 18.2717 19.3478 16.1879L19.3478 13.8209C19.3478 13.1926 19.0066 12.8496 18.3881 12.8496C17.7695 12.8496 17.4346 13.1943 17.4346 13.8209L17.4346 16.0271C17.4346 16.9777 16.9254 17.4461 16.0254 17.4461L13.7693 17.4461C13.149 17.4461 12.8061 17.7873 12.8061 18.4059C12.8061 19.0164 13.149 19.3594 13.7693 19.3594Z" fill="#007aff"/>
  <path d="M14.26 11.1516C15.0693 11.1516 15.7269 10.4939 15.7269 9.68457C15.7269 8.87519 15.0693 8.21758 14.26 8.21758C13.4506 8.21758 12.7912 8.87519 12.7912 9.68457C12.7912 10.4939 13.4506 11.1516 14.26 11.1516Z" fill="#ffffff" fill-opacity="0.55"/>
  <path d="M9.68281 11.1516C10.4842 11.1516 11.1418 10.4939 11.1418 9.68457C11.1418 8.87519 10.4842 8.21758 9.68281 8.21758C8.87343 8.21758 8.21582 8.87519 8.21582 9.68457C8.21582 10.4939 8.87343 11.1516 9.68281 11.1516Z" fill="#ffffff" fill-opacity="0.55"/>
  <path d="M5.09941 11.1516C5.90878 11.1516 6.5664 10.4939 6.5664 9.68457C6.5664 8.87519 5.90078 8.21758 5.09941 8.21758C4.29004 8.21758 3.63242 8.87519 3.63242 9.68457C3.63242 10.4939 4.29004 11.1516 5.09941 11.1516Z" fill="#ffffff" fill-opacity="0.55"/>
 </g>
</svg>
