<?xml version="1.0" encoding="UTF-8"?>
<!--Generator: Apple Native CoreSVG 232.5-->
<!DOCTYPE svg
PUBLIC "-//W3C//DTD SVG 1.1//EN"
       "http://www.w3.org/Graphics/SVG/1.1/DTD/svg11.dtd">
<svg version="1.1" xmlns="http://www.w3.org/2000/svg" xmlns:xlink="http://www.w3.org/1999/xlink" width="20.5658" height="22.0785">
 <g>
  <rect height="22.0785" opacity="0" width="20.5658" x="0" y="0"/>
  <path d="M3.61874 6.76288L16.9471 6.76288C17.8271 6.76288 18.6416 6.96073 19.3221 7.31463L17.1646 2.24413C16.5889 0.868545 15.4049 0.121477 13.8307 0.121477L6.7369 0.121477C5.15468 0.121477 3.98046 0.868545 3.40468 2.24413L1.24102 7.31288C1.92773 6.96073 2.74043 6.76288 3.61874 6.76288ZM3.61874 15.2441L16.9471 15.2441C19.098 15.2441 20.5658 13.7861 20.5658 11.6547C20.5658 9.52147 19.098 8.05096 16.9471 8.05096L3.61874 8.05096C1.46601 8.05096 0 9.52147 0 11.6547C0 13.7861 1.46601 15.2441 3.61874 15.2441ZM15.7084 11.6547C15.7084 11.0308 16.2488 10.4859 16.8789 10.4859C17.5125 10.4859 18.0609 11.0308 18.0609 11.6547C18.0609 12.306 17.5125 12.8119 16.8789 12.8252C16.2488 12.8269 15.7084 12.314 15.7084 11.6547ZM9.39218 19.789L11.1719 19.789L11.1719 14.4177L9.39218 14.4177ZM1.88945 20.5896L18.6746 20.5896C19.1605 20.5896 19.5595 20.1843 19.5595 19.6967C19.5595 19.209 19.1605 18.8099 18.6746 18.8099L1.88945 18.8099C1.40176 18.8099 1.0045 19.209 1.0045 19.6967C1.0045 20.1843 1.40176 20.5896 1.88945 20.5896ZM10.2771 22.0785C11.5834 22.0785 12.651 21.0092 12.651 19.7109C12.651 18.4047 11.5834 17.3353 10.2771 17.3353C8.9789 17.3353 7.90956 18.4047 7.90956 19.7109C7.90956 21.0092 8.9789 22.0785 10.2771 22.0785Z" fill="#ffffff" fill-opacity="0.55"/>
 </g>
</svg>
