<?xml version="1.0" encoding="UTF-8"?>
<!--Generator: Apple Native CoreSVG 232.5-->
<!DOCTYPE svg
PUBLIC "-//W3C//DTD SVG 1.1//EN"
       "http://www.w3.org/Graphics/SVG/1.1/DTD/svg11.dtd">
<svg version="1.1" xmlns="http://www.w3.org/2000/svg" xmlns:xlink="http://www.w3.org/1999/xlink" width="19.0832" height="20.9515">
 <g>
  <rect height="20.9515" opacity="0" width="19.0832" x="0" y="0"/>
  <path d="M2.74336 20.925L16.3398 20.925C18.0316 20.925 19.0832 19.7199 19.0832 18.1959C19.0832 17.6943 18.8619 17.0549 18.4064 16.382L13.3928 9.01328L13.3928 0.920504L5.69043 0.920504L5.69043 9.01328L0.60293 16.4896C0.189258 17.0949 0 17.6943 0 18.1959C0 19.7199 1.0498 20.925 2.74336 20.925ZM5.6748 1.87792L13.4004 1.87792C13.9502 1.87792 14.3482 1.44784 14.3482 0.930073C14.3482 0.410545 13.9537 0 13.4004 0L5.6748 0C5.12148 0 4.73496 0.410545 4.73496 0.930073C4.73496 1.44784 5.12324 1.87792 5.6748 1.87792Z" fill="#ffffff" fill-opacity="0.55"/>
  <path d="M7.49198 4.47753L7.49198 3.27167L9.25077 3.27167C9.58436 3.27167 9.85858 3.54589 9.85858 3.86796C9.85858 4.21757 9.60038 4.47753 9.25878 4.47753ZM7.49198 7.22304L7.49198 6.01718L9.25878 6.01718C9.59237 6.01718 9.86659 6.28339 9.86659 6.60546C9.86659 6.95507 9.60839 7.22304 9.26679 7.22304ZM7.49198 9.96054L7.49198 8.75468L9.26679 8.75468C9.60038 8.75468 9.86659 9.0289 9.86659 9.35097C9.86659 9.70058 9.60839 9.96054 9.26679 9.96054Z" fill="#1e1e1e"/>
 </g>
</svg>
