<?xml version="1.0" encoding="UTF-8"?>
<!--Generator: Apple Native CoreSVG 232.5-->
<!DOCTYPE svg
PUBLIC "-//W3C//DTD SVG 1.1//EN"
       "http://www.w3.org/Graphics/SVG/1.1/DTD/svg11.dtd">
<svg version="1.1" xmlns="http://www.w3.org/2000/svg" xmlns:xlink="http://www.w3.org/1999/xlink" width="20.1767" height="20.1812">
 <g>
  <rect height="20.1812" opacity="0" width="20.1767" x="0" y="0"/>
  <path d="M10.0875 20.175C15.6141 20.175 20.1767 15.606 20.1767 10.0875C20.1767 4.56094 15.606 0 10.0795 0C4.56269 0 0 4.56094 0 10.0875C0 15.606 4.5707 20.175 10.0875 20.175ZM10.0875 18.1879C5.59237 18.1879 1.9951 14.5826 1.9951 10.0875C1.9951 5.59237 5.58437 1.9871 10.0795 1.9871C14.5746 1.9871 18.1897 5.59237 18.1897 10.0875C18.1897 14.5826 14.5826 18.1879 10.0875 18.1879Z" fill="#007aff"/>
  <path d="M10.0812 15.4518C10.1994 15.4518 10.3016 15.4357 10.4197 15.434L10.6861 15.9357C10.774 16.1133 10.9533 16.2145 11.1619 16.1834C11.351 16.1443 11.4912 15.9943 11.5187 15.7973L11.6049 15.2191C11.8172 15.1641 12.0357 15.0814 12.2383 14.9988L12.6557 15.3691C12.7977 15.5139 12.9867 15.5369 13.1918 15.4393C13.3533 15.3461 13.4217 15.165 13.3906 14.96L13.2689 14.3916C13.4742 14.2477 13.6412 14.1002 13.7842 13.9687L14.3135 14.1783C14.5088 14.2662 14.6916 14.2156 14.8381 14.0496C14.9633 13.9031 14.9748 13.6945 14.8674 13.533L14.5654 13.041C14.6916 12.85 14.8035 12.6555 14.8941 12.4547L15.474 12.4885C15.6711 12.4885 15.8504 12.3811 15.9107 12.192C15.9773 11.9967 15.9107 11.8041 15.7527 11.6852L15.3061 11.3361C15.3531 11.1238 15.4082 10.8937 15.426 10.6574L15.9668 10.4949C16.1719 10.4266 16.2846 10.265 16.2846 10.068C16.2846 9.86914 16.1639 9.70937 15.9668 9.64277L15.426 9.4705C15.4082 9.24218 15.3531 9.02011 15.3061 8.80781L15.7527 8.44902C15.9187 8.32206 15.9773 8.13124 15.9107 7.9537C15.8504 7.75663 15.6631 7.64745 15.4643 7.65546L14.8941 7.683C14.7875 7.46445 14.6756 7.26191 14.5654 7.09316L14.8674 6.60292C14.9748 6.44316 14.9553 6.2328 14.8301 6.08632C14.6916 5.93808 14.5088 5.87948 14.3215 5.95761L13.7824 6.16542C13.6332 6.01972 13.4582 5.88026 13.2689 5.74257L13.3906 5.18397C13.4234 4.97089 13.3498 4.78808 13.1883 4.69843C13.0027 4.60077 12.7941 4.61855 12.6557 4.76503L12.2383 5.12909C12.0357 5.04647 11.8234 4.97187 11.6049 4.91503L11.5187 4.33866C11.4894 4.14335 11.351 3.99159 11.1602 3.96054C10.9613 3.93124 10.7758 4.03241 10.6879 4.19042L10.4197 4.70819C10.3016 4.70019 10.2092 4.69218 10.0812 4.69218C9.96933 4.69218 9.85117 4.70019 9.74902 4.70819L9.46835 4.19042C9.38847 4.01464 9.19941 3.93124 9.00058 3.96054C8.80976 3.99159 8.67304 4.14335 8.63398 4.33866L8.56386 4.90702C8.33906 4.97187 8.13476 5.05448 7.92245 5.12909L7.50683 4.77655C7.36659 4.62655 7.158 4.60077 6.9787 4.69843C6.81894 4.78808 6.72929 4.97089 6.7621 5.18397L6.88554 5.74257C6.70429 5.88026 6.51952 6.01972 6.37206 6.16542L5.84101 5.95761C5.65194 5.87948 5.46288 5.93808 5.33065 6.08632C5.20722 6.2248 5.17792 6.43515 5.2871 6.59491L5.59706 7.09316C5.47089 7.28769 5.35897 7.48847 5.26659 7.683L4.69647 7.65546C4.4994 7.64745 4.31835 7.75663 4.25976 7.95195C4.18339 8.13124 4.24374 8.31406 4.39999 8.44902L4.85644 8.80781C4.79335 9.04413 4.76229 9.2582 4.73651 9.4705L4.19393 9.64277C3.99862 9.70937 3.87792 9.86914 3.87792 10.068C3.87792 10.265 3.99862 10.4266 4.19393 10.4949L4.73651 10.6654C4.76229 10.8697 4.79335 11.0998 4.85644 11.3361L4.39999 11.6852C4.24374 11.8041 4.18339 12.0047 4.25175 12.1902C4.31835 12.3811 4.4914 12.4885 4.69022 12.4885L5.26659 12.4547C5.35897 12.6555 5.47089 12.842 5.58905 13.041L5.28358 13.533C5.17616 13.7008 5.20722 13.9111 5.32265 14.0496C5.46288 14.2156 5.65995 14.2662 5.84901 14.1783L6.36855 13.9687C6.51151 14.1002 6.68652 14.2477 6.88554 14.3916L6.7621 14.952C6.73105 15.157 6.80917 15.3461 6.98046 15.4393C7.158 15.5369 7.36659 15.5156 7.50683 15.3709L7.92245 14.9988C8.13476 15.0814 8.34531 15.1641 8.56386 15.2271L8.63398 15.7893C8.67128 15.9943 8.80976 16.1443 9.01035 16.1834C9.20917 16.2145 9.38671 16.1133 9.46835 15.9357L9.74902 15.434C9.85117 15.4357 9.96933 15.4518 10.0812 15.4518ZM10.0795 14.315C7.73476 14.315 5.89979 12.442 5.89979 10.076C5.89979 7.7037 7.73476 5.83065 10.0795 5.83065C12.426 5.83065 14.2609 7.7037 14.2609 10.076C14.2609 12.442 12.426 14.315 10.0795 14.315ZM10.0635 11.6685C10.7268 11.6685 11.2744 11.2787 11.5594 10.5826L15.0051 10.5826L15.0051 9.55781L11.5594 9.55781C11.2744 8.87773 10.7268 8.5039 10.0635 8.5039C9.99062 8.5039 9.89648 8.5039 9.76855 8.5332L8.03456 5.57518L7.13222 6.06425L8.89453 9.07539C8.62988 9.38789 8.49843 9.72167 8.49843 10.092C8.49843 10.4365 8.62636 10.7713 8.89453 11.0775L7.06562 14.0549L7.96444 14.5795L9.76328 11.6348C9.89472 11.6685 9.99687 11.6685 10.0635 11.6685ZM9.52812 10.084C9.52812 9.78925 9.77851 9.55039 10.0715 9.55039C10.3885 9.55039 10.6389 9.78124 10.6389 10.084C10.6389 10.3769 10.3885 10.6273 10.0715 10.6273C9.78027 10.6273 9.52812 10.3769 9.52812 10.084Z" fill="#ffffff" fill-opacity="0.55"/>
 </g>
</svg>
