<?xml version="1.0" encoding="UTF-8"?>
<!--Generator: Apple Native CoreSVG 232.5-->
<!DOCTYPE svg
PUBLIC "-//W3C//DTD SVG 1.1//EN"
       "http://www.w3.org/Graphics/SVG/1.1/DTD/svg11.dtd">
<svg version="1.1" xmlns="http://www.w3.org/2000/svg" xmlns:xlink="http://www.w3.org/1999/xlink" width="25.0881" height="15.5969">
 <g>
  <rect height="15.5969" opacity="0" width="25.0881" x="0" y="0"/>
  <path d="M4.46463 12.0348C4.89334 12.0348 5.23065 11.6894 5.23065 11.2527L5.23065 4.28905C5.23065 3.8701 4.89334 3.52479 4.46463 3.52479C4.02967 3.52479 3.69061 3.8701 3.69061 4.28905L3.69061 11.2527C3.69061 11.6877 4.02967 12.0348 4.46463 12.0348ZM7.42284 11.5086C7.86757 11.5086 8.22089 11.142 8.22089 10.692C8.22089 10.257 7.86581 9.88593 7.42284 9.88593C6.98612 9.88593 6.61327 10.257 6.61327 10.692C6.61327 11.142 6.98261 11.5086 7.42284 11.5086ZM9.98124 11.5086C10.4144 11.5086 10.7793 11.1402 10.7793 10.692C10.7793 10.257 10.4162 9.88593 9.98124 9.88593C9.53652 9.88593 9.16991 10.257 9.16991 10.692C9.16991 11.1402 9.53652 11.5086 9.98124 11.5086ZM12.5467 11.5086C12.9799 11.5086 13.3465 11.135 13.3465 10.692C13.3465 10.2605 12.9799 9.88593 12.5467 9.88593C12.0984 9.88593 11.7301 10.2588 11.7301 10.692C11.7301 11.1385 12.1002 11.5086 12.5467 11.5086ZM15.0936 11.5086C15.5205 11.5086 15.8871 11.1402 15.8871 10.692C15.8871 10.257 15.5205 9.88593 15.0936 9.88593C14.6506 9.88593 14.2955 10.257 14.2955 10.692C14.2955 11.1402 14.6523 11.5086 15.0936 11.5086ZM17.6359 11.5086C18.0691 11.5086 18.434 11.1385 18.434 10.692C18.434 10.2588 18.0691 9.88593 17.6359 9.88593C17.1912 9.88593 16.8361 10.257 16.8361 10.692C16.8361 11.142 17.1895 11.5086 17.6359 11.5086ZM8.69628 8.5871C9.14101 8.5871 9.49433 8.2205 9.49433 7.7705C9.49433 7.32753 9.13925 6.96445 8.69628 6.96445C8.2578 6.96445 7.89472 7.32753 7.89472 7.7705C7.89472 8.2205 8.25605 8.5871 8.69628 8.5871ZM11.2547 8.5871C11.6959 8.5871 12.0527 8.21874 12.0527 7.7705C12.0527 7.32753 11.6976 6.96445 11.2547 6.96445C10.8082 6.96445 10.4434 7.32753 10.4434 7.7705C10.4434 8.21874 10.8082 8.5871 11.2547 8.5871ZM13.8103 8.5871C14.2436 8.5871 14.6119 8.21347 14.6119 7.7705C14.6119 7.33105 14.2436 6.96445 13.8103 6.96445C13.3719 6.96445 13.0035 7.32929 13.0035 7.7705C13.0035 8.21698 13.3736 8.5871 13.8103 8.5871ZM16.359 8.5871C16.7859 8.5871 17.1525 8.21874 17.1525 7.7705C17.1525 7.32753 16.7859 6.96445 16.359 6.96445C15.916 6.96445 15.5609 7.32753 15.5609 7.7705C15.5609 8.21874 15.9178 8.5871 16.359 8.5871ZM7.42284 5.66737C7.86757 5.66737 8.22089 5.30077 8.22089 4.86054C8.22089 4.41581 7.86581 4.05272 7.42284 4.05272C6.98612 4.05272 6.61327 4.41581 6.61327 4.86054C6.61327 5.30077 6.98261 5.66737 7.42284 5.66737ZM9.98124 5.66737C10.4144 5.66737 10.7793 5.29901 10.7793 4.86054C10.7793 4.41581 10.4162 4.05272 9.98124 4.05272C9.53652 4.05272 9.16991 4.41581 9.16991 4.86054C9.16991 5.29901 9.53652 5.66737 9.98124 5.66737ZM12.5467 5.66737C12.9799 5.66737 13.3465 5.2955 13.3465 4.86054C13.3465 4.42108 12.9799 4.05272 12.5467 4.05272C12.0984 4.05272 11.7301 4.41757 11.7301 4.86054C11.7301 5.29725 12.1002 5.66737 12.5467 5.66737ZM15.0936 5.66737C15.5205 5.66737 15.8871 5.29901 15.8871 4.86054C15.8871 4.41581 15.5205 4.05272 15.0936 4.05272C14.6506 4.05272 14.2955 4.41581 14.2955 4.86054C14.2955 5.29901 14.6523 5.66737 15.0936 5.66737ZM17.6359 5.66737C18.0691 5.66737 18.434 5.29725 18.434 4.86054C18.434 4.41757 18.0691 4.05272 17.6359 4.05272C17.1912 4.05272 16.8361 4.41581 16.8361 4.86054C16.8361 5.30077 17.1895 5.66737 17.6359 5.66737ZM20.5924 12.0348C21.0176 12.0348 21.3647 11.6877 21.3647 11.2527L21.3647 4.28905C21.3647 3.87186 21.0176 3.52479 20.5924 3.52479C20.1602 3.52479 19.8166 3.8701 19.8166 4.28905L19.8166 11.2527C19.8166 11.6894 20.1602 12.0348 20.5924 12.0348ZM3.20351 15.5738L21.8828 15.5738C23.9924 15.5738 25.0881 14.4879 25.0881 12.4023L25.0881 3.17148C25.0881 1.08769 23.9924 0 21.8828 0L3.20351 0C1.08769 0 0 1.08769 0 3.17148L0 12.4023C0 14.4879 1.08769 15.5738 3.20351 15.5738ZM3.31444 13.6605C2.40643 13.6605 1.91327 13.1842 1.91327 12.2353L1.91327 3.34023C1.91327 2.38964 2.40643 1.91327 3.31444 1.91327L21.7719 1.91327C22.6816 1.91327 23.1748 2.38964 23.1748 3.34023L23.1748 12.2353C23.1748 13.1842 22.6736 13.6605 21.7719 13.6605Z" fill="#ffffff" fill-opacity="0.55"/>
 </g>
</svg>
