<?xml version="1.0" encoding="UTF-8"?>
<!--Generator: Apple Native CoreSVG 232.5-->
<!DOCTYPE svg
PUBLIC "-//W3C//DTD SVG 1.1//EN"
       "http://www.w3.org/Graphics/SVG/1.1/DTD/svg11.dtd">
<svg version="1.1" xmlns="http://www.w3.org/2000/svg" xmlns:xlink="http://www.w3.org/1999/xlink" width="20.1767" height="20.1812">
 <g>
  <rect height="20.1812" opacity="0" width="20.1767" x="0" y="0"/>
  <path d="M10.0875 20.175C15.6141 20.175 20.1767 15.606 20.1767 10.0875C20.1767 4.56094 15.606 0 10.0795 0C4.56269 0 0 4.56094 0 10.0875C0 15.606 4.5707 20.175 10.0875 20.175ZM10.0875 18.1879C5.59237 18.1879 1.9951 14.5826 1.9951 10.0875C1.9951 5.59237 5.58437 1.9871 10.0795 1.9871C14.5746 1.9871 18.1897 5.59237 18.1897 10.0875C18.1897 14.5826 14.5826 18.1879 10.0875 18.1879Z" fill="#007aff"/>
  <path d="M9.06523 13.0762C11.3016 13.0762 13.1295 11.2482 13.1295 9.01191C13.1295 6.77909 11.3016 4.94941 9.06523 4.94941C6.83241 4.94941 5.00273 6.7871 5.00273 9.01191C5.00273 11.2402 6.83241 13.0762 9.06523 13.0762ZM9.06523 11.6338C7.63261 11.6338 6.44335 10.4498 6.44335 9.01191C6.44335 7.57753 7.63261 6.39179 9.06523 6.39179C10.5014 6.39179 11.6791 7.56952 11.6791 9.01191C11.6791 10.4498 10.5014 11.6338 9.06523 11.6338ZM14.2445 15.157C14.7643 15.157 15.1322 14.7713 15.1322 14.2338C15.1322 13.9881 15.0248 13.7602 14.8457 13.5748L11.8916 10.6029L10.5203 11.8746L13.502 14.8465C13.7096 15.0603 13.9473 15.157 14.2445 15.157Z" fill="#ffffff" fill-opacity="0.55"/>
 </g>
</svg>
