<?xml version="1.0" encoding="UTF-8"?>
<!--Generator: Apple Native CoreSVG 232.5-->
<!DOCTYPE svg
PUBLIC "-//W3C//DTD SVG 1.1//EN"
       "http://www.w3.org/Graphics/SVG/1.1/DTD/svg11.dtd">
<svg version="1.1" xmlns="http://www.w3.org/2000/svg" xmlns:xlink="http://www.w3.org/1999/xlink" width="19.2807" height="19.4609">
 <g>
  <rect height="19.4609" opacity="0" width="19.2807" x="0" y="0"/>
  <path d="M0 7.94765C0 12.3342 3.56465 15.8971 7.94941 15.8971C9.58007 15.8971 11.0766 15.3959 12.3242 14.55L16.8108 19.0445C17.0916 19.3254 17.4637 19.4592 17.8553 19.4592C18.6863 19.4592 19.2807 18.8311 19.2807 18.0098C19.2807 17.6234 19.1389 17.2629 18.8705 16.9945L14.4185 12.5168C15.3506 11.2346 15.8988 9.6582 15.8988 7.94765C15.8988 3.56289 12.3342 0 7.94941 0C3.56465 0 0 3.56289 0 7.94765ZM2.07069 7.94765C2.07069 4.70409 4.70585 2.07069 7.94941 2.07069C11.193 2.07069 13.8264 4.70409 13.8264 7.94765C13.8264 11.193 11.193 13.8264 7.94941 13.8264C4.70585 13.8264 2.07069 11.193 2.07069 7.94765Z" fill="#ffffff" fill-opacity="0.55"/>
 </g>
</svg>
