<?xml version="1.0" encoding="UTF-8"?>
<!--Generator: Apple Native CoreSVG 232.5-->
<!DOCTYPE svg
PUBLIC "-//W3C//DTD SVG 1.1//EN"
       "http://www.w3.org/Graphics/SVG/1.1/DTD/svg11.dtd">
<svg version="1.1" xmlns="http://www.w3.org/2000/svg" xmlns:xlink="http://www.w3.org/1999/xlink" width="20.1767" height="20.1812">
 <g>
  <rect height="20.1812" opacity="0" width="20.1767" x="0" y="0"/>
  <path d="M1.7041 5.89414C4.08984 8.50644 7.50234 10.0189 11.1156 10.0109C13.9918 10.0029 16.7303 9.02753 18.9443 7.24179L18.3174 6.00918C16.3197 7.73457 13.7887 8.67715 11.1156 8.68516C7.66738 8.69316 4.45956 7.16289 2.31777 4.52852ZM0.639839 11.4439C5.73203 15.8203 13.0381 16.6326 18.9203 13.5258L18.8822 12.0191C13.1976 15.384 5.87656 14.5602 0.983782 9.96289ZM5.50996 18.1617L7.07694 18.5139C6.3787 16.8836 6.00429 15.1443 5.98026 13.3598C5.75604 8.55547 7.85995 3.99688 11.5887 0.99824L10.1893 0.441407C6.49335 3.68926 4.44003 8.42422 4.65625 13.3758C4.67226 15.0016 4.96425 16.6043 5.50996 18.1617ZM12 19.1373L13.2353 18.5875C11.3898 16.0182 10.3849 12.9598 10.3849 9.76816C10.3849 6.74961 11.2691 3.8625 12.9301 1.41387L11.6389 0.958008C9.95663 3.57871 9.05742 6.62637 9.05742 9.76816C9.05742 13.1549 10.0853 16.3889 12 19.1373ZM17.6922 15.5291L18.5869 14.5217C15.2916 12.6562 13.2391 9.2125 13.199 5.39492C13.183 4.03652 13.4289 2.68086 13.9277 1.42031L12.6498 1.05938C12.1182 2.43887 11.8572 3.89648 11.8732 5.40293C11.9133 9.5832 14.1264 13.4074 17.6922 15.5291ZM5.9037 9.89902C6.77948 9.89902 7.49823 9.17226 7.49823 8.28847C7.49823 7.40644 6.77948 6.68594 5.9037 6.68594C5.01367 6.68594 4.2914 7.40644 4.2914 8.28847C4.2914 9.17226 5.01367 9.89902 5.9037 9.89902ZM13.4035 10.706C14.273 10.706 14.9873 9.99355 14.9873 9.10449C14.9873 8.2332 14.273 7.5207 13.4035 7.5207C12.5144 7.5207 11.8019 8.2332 11.8019 9.10449C11.8019 9.99355 12.5144 10.706 13.4035 10.706ZM10.4846 16.268C11.3719 16.268 12.0826 15.5555 12.0826 14.6602C12.0826 13.7711 11.3683 13.0488 10.4846 13.0488C9.58574 13.0488 8.86347 13.7711 8.86347 14.6602C8.86347 15.5555 9.58574 16.268 10.4846 16.268ZM10.0875 20.175C15.6141 20.175 20.1767 15.606 20.1767 10.0875C20.1767 4.56094 15.606 0 10.0795 0C4.56269 0 0 4.56094 0 10.0875C0 15.606 4.5707 20.175 10.0875 20.175ZM10.0875 18.6113C5.42695 18.6113 1.56542 14.7498 1.56542 10.0875C1.56542 5.42519 5.41894 1.56366 10.0795 1.56366C14.7418 1.56366 18.6113 5.42519 18.6113 10.0875C18.6113 14.7498 14.7498 18.6113 10.0875 18.6113Z" fill="#ffffff" fill-opacity="0.55"/>
 </g>
</svg>
