<?xml version="1.0" encoding="UTF-8"?>
<!--Generator: Apple Native CoreSVG 232.5-->
<!DOCTYPE svg
PUBLIC "-//W3C//DTD SVG 1.1//EN"
       "http://www.w3.org/Graphics/SVG/1.1/DTD/svg11.dtd">
<svg version="1.1" xmlns="http://www.w3.org/2000/svg" xmlns:xlink="http://www.w3.org/1999/xlink" width="23.8596" height="16.9082">
 <g>
  <rect height="16.9082" opacity="0" width="23.8596" x="0" y="0"/>
  <path d="M11.9271 16.8967C18.3191 16.8967 23.8596 12.3637 23.8596 8.44922C23.8596 4.53477 18.3191 0 11.9271 0C5.54492 0 0 4.53477 0 8.44922C0 12.3637 5.54492 16.8967 11.9271 16.8967ZM11.9271 15.1184C6.07245 15.1184 1.78807 11.0631 1.78807 8.44922C1.78807 5.82734 6.07245 1.77831 11.9271 1.77831C17.7836 1.77831 22.0893 5.82734 22.0893 8.44922C22.0893 11.0631 17.7836 15.1184 11.9271 15.1184Z" fill="#007aff"/>
  <path d="M11.9344 14.0518C15.6611 14.0518 17.4313 10.6963 17.4313 9.43691C17.4313 9.14394 17.1871 8.88379 16.8879 8.88379C16.626 8.88379 16.3756 9.0748 16.333 9.32949C15.9147 11.4018 14.107 12.926 11.9344 12.926C11.0213 12.926 10.1605 12.6826 9.43398 12.1914C9.33808 12.1311 9.24042 12.1035 9.133 12.1035C8.81249 12.1035 8.58163 12.3592 8.58163 12.6682C8.58163 12.8422 8.658 13.0162 8.82226 13.1236C9.71308 13.724 10.7904 14.0518 11.9344 14.0518ZM6.33007 8.44922C6.33007 9.59141 6.6578 10.6607 7.24316 11.5375C7.36562 11.7141 7.5414 11.7939 7.70566 11.7939C7.98183 11.7939 8.28183 11.5986 8.28183 11.2408C8.28183 11.1156 8.24277 11.0082 8.18241 10.907C7.69921 10.2195 7.45761 9.36855 7.45761 8.44922C7.45761 7.52812 7.70898 6.68691 8.18241 5.97987C8.24902 5.88222 8.27831 5.75878 8.27831 5.65136C8.27831 5.32909 8.02616 5.09648 7.71366 5.09648C7.5414 5.09648 7.36562 5.17636 7.25819 5.3371C6.6578 6.23769 6.33007 7.29726 6.33007 8.44922ZM11.9344 2.83866C10.7904 2.83866 9.71308 3.16639 8.82226 3.77479C8.658 3.88222 8.58163 4.05624 8.58163 4.23026C8.58163 4.55077 8.82402 4.80468 9.13925 4.80468C9.25019 4.80468 9.36562 4.77538 9.47128 4.70702C10.1686 4.23358 11.0311 3.96444 11.9344 3.96444C14.107 3.96444 15.9147 5.48866 16.333 7.56718C16.3756 7.82363 16.618 8.01289 16.8879 8.01289C17.1951 8.01289 17.4313 7.75898 17.4313 7.46152C17.4313 6.20214 15.6611 2.83866 11.9344 2.83866Z" fill="#ffffff" fill-opacity="0.55"/>
  <path d="M11.9344 12.0453C12.8234 12.0453 13.6236 11.7141 14.2348 11.2051C14.3963 11.0666 14.4647 10.9068 14.4647 10.7426C14.4647 10.4336 14.216 10.1877 13.9115 10.1877C13.7748 10.1877 13.6363 10.2338 13.5387 10.3377C13.1416 10.7055 12.5891 10.9195 11.9779 10.9195C10.5256 10.9195 9.45253 9.78164 9.45253 8.43945C9.45253 7.35839 10.1383 6.46034 11.1172 6.11034C11.3303 6.04198 11.4963 5.81112 11.4963 5.60253C11.4963 5.27226 11.2264 5.03163 10.9334 5.03163C10.0764 5.03163 8.32851 6.47929 8.32851 8.46875C8.32851 10.4369 9.90586 12.0453 11.9344 12.0453ZM15.519 8.44922C15.519 6.44023 13.7791 5.03163 12.9496 5.03163C12.6389 5.03163 12.377 5.27226 12.377 5.60253C12.377 5.81112 12.535 6.04198 12.7543 6.11034C13.7189 6.46034 14.3994 7.35839 14.3994 8.44922C14.3994 8.59843 14.3523 8.8791 14.3443 8.98926C14.3443 9.37812 14.6063 9.56367 14.9135 9.56367C15.2846 9.56367 15.4293 9.3373 15.4799 9.05937C15.519 8.88711 15.519 8.65527 15.519 8.44922Z" fill="#ffffff" fill-opacity="0.55"/>
  <path d="M11.9344 10.0193C12.8012 10.0193 13.5045 9.31953 13.5045 8.44922C13.5045 7.5789 12.8012 6.87734 11.9344 6.87734C11.0641 6.87734 10.3625 7.5789 10.3625 8.44922C10.3625 9.31953 11.0641 10.0193 11.9344 10.0193Z" fill="#ffffff" fill-opacity="0.55"/>
 </g>
</svg>
