<?xml version="1.0" encoding="UTF-8"?>
<!--Generator: Apple Native CoreSVG 232.5-->
<!DOCTYPE svg
PUBLIC "-//W3C//DTD SVG 1.1//EN"
       "http://www.w3.org/Graphics/SVG/1.1/DTD/svg11.dtd">
<svg version="1.1" xmlns="http://www.w3.org/2000/svg" xmlns:xlink="http://www.w3.org/1999/xlink" width="23.4445" height="21.4316">
 <g>
  <rect height="21.4316" opacity="0" width="23.4445" x="0" y="0"/>
  <path d="M0.84824 2.80625C1.16582 2.80625 1.43906 2.533 1.43906 2.21191C1.43906 1.88457 1.16582 1.61934 0.84824 1.61934C0.520898 1.61934 0.255664 1.88457 0.255664 2.21191C0.255664 2.533 0.520898 2.80625 0.84824 2.80625ZM3.94902 2.80625C4.27636 2.80625 4.5416 2.533 4.5416 2.21191C4.5416 1.88457 4.27636 1.61934 3.94902 1.61934C3.62168 1.61934 3.35644 1.88457 3.35644 2.21191C3.35644 2.533 3.62168 2.80625 3.94902 2.80625ZM7.0498 2.80625C7.3789 2.80625 7.64413 2.533 7.64413 2.21191C7.64413 1.88457 7.3789 1.61934 7.0498 1.61934C6.73222 1.61934 6.45722 1.88457 6.45722 2.21191C6.45722 2.533 6.73222 2.80625 7.0498 2.80625ZM10.1719 3.05214C10.6297 3.05214 11.0103 2.66972 11.0103 2.21191C11.0103 1.74785 10.6297 1.36367 10.1719 1.36367C9.70605 1.36367 9.32363 1.74785 9.32363 2.21191C9.32363 2.66972 9.70605 3.05214 10.1719 3.05214ZM13.2727 3.05214C13.7385 3.05214 14.1209 2.66972 14.1209 2.21191C14.1209 1.74785 13.7385 1.36367 13.2727 1.36367C12.8068 1.36367 12.4262 1.74785 12.4262 2.21191C12.4262 2.66972 12.8068 3.05214 13.2727 3.05214ZM16.3947 2.80625C16.7141 2.80625 16.9873 2.533 16.9873 2.21191C16.9873 1.88457 16.7141 1.61934 16.3947 1.61934C16.0656 1.61934 15.7924 1.88457 15.7924 2.21191C15.7924 2.533 16.0656 2.80625 16.3947 2.80625ZM19.4955 2.80625C19.8228 2.80625 20.0881 2.533 20.0881 2.21191C20.0881 1.88457 19.8228 1.61934 19.4955 1.61934C19.1699 1.61934 18.9029 1.88457 18.9029 2.21191C18.9029 2.533 19.1699 2.80625 19.4955 2.80625ZM22.598 2.80625C22.9236 2.80625 23.1889 2.533 23.1889 2.21191C23.1889 1.88457 22.9236 1.61934 22.598 1.61934C22.2787 1.61934 22.0055 1.88457 22.0055 2.21191C22.0055 2.533 22.2787 2.80625 22.598 2.80625ZM0.84824 6.20175C1.16582 6.20175 1.43906 5.92675 1.43906 5.60117C1.43906 5.28183 1.16582 5.00859 0.84824 5.00859C0.520898 5.00859 0.255664 5.28183 0.255664 5.60117C0.255664 5.92675 0.520898 6.20175 0.84824 6.20175ZM3.94902 6.44765C4.41484 6.44765 4.7955 6.06699 4.7955 5.60117C4.7955 5.14336 4.41484 4.76094 3.94902 4.76094C3.4832 4.76094 3.10078 5.14336 3.10078 5.60117C3.10078 6.06699 3.4832 6.44765 3.94902 6.44765ZM7.0498 6.44765C7.51562 6.44765 7.89804 6.06699 7.89804 5.60117C7.89804 5.14336 7.51562 4.76094 7.0498 4.76094C6.59199 4.76094 6.21133 5.14336 6.21133 5.60117C6.21133 6.06699 6.59199 6.44765 7.0498 6.44765ZM10.1719 6.44765C10.6297 6.44765 11.0103 6.06699 11.0103 5.60117C11.0103 5.14336 10.6297 4.76094 10.1719 4.76094C9.70605 4.76094 9.32363 5.14336 9.32363 5.60117C9.32363 6.06699 9.70605 6.44765 10.1719 6.44765ZM13.2727 6.44765C13.7385 6.44765 14.1209 6.06699 14.1209 5.60117C14.1209 5.14336 13.7385 4.76094 13.2727 4.76094C12.8068 4.76094 12.4262 5.14336 12.4262 5.60117C12.4262 6.06699 12.8068 6.44765 13.2727 6.44765ZM16.3947 6.44765C16.8525 6.44765 17.235 6.06699 17.235 5.60117C17.235 5.14336 16.8525 4.76094 16.3947 4.76094C15.9289 4.76094 15.5465 5.14336 15.5465 5.60117C15.5465 6.06699 15.9289 6.44765 16.3947 6.44765ZM19.4955 6.44765C19.9613 6.44765 20.3437 6.06699 20.3437 5.60117C20.3437 5.14336 19.9613 4.76094 19.4955 4.76094C19.0297 4.76094 18.649 5.14336 18.649 5.60117C18.649 6.06699 19.0297 6.44765 19.4955 6.44765ZM22.598 6.20175C22.9236 6.20175 23.1889 5.92675 23.1889 5.60117C23.1889 5.28183 22.9236 5.00859 22.598 5.00859C22.2787 5.00859 22.0055 5.28183 22.0055 5.60117C22.0055 5.92675 22.2787 6.20175 22.598 6.20175ZM0.84824 9.84492C1.30254 9.84492 1.68671 9.46074 1.68671 8.99492C1.68671 8.53261 1.30254 8.14844 0.84824 8.14844C0.382421 8.14844 0 8.53261 0 8.99492C0 9.46074 0.382421 9.84492 0.84824 9.84492ZM3.94902 10.0926C4.55156 10.0926 5.04316 9.60097 5.04316 8.99492C5.04316 8.39414 4.55156 7.90078 3.94902 7.90078C3.34648 7.90078 2.85488 8.39414 2.85488 8.99492C2.85488 9.60097 3.34648 10.0926 3.94902 10.0926ZM7.0498 10.0926C7.65234 10.0926 8.14394 9.60097 8.14394 8.99492C8.14394 8.39414 7.65234 7.90078 7.0498 7.90078C6.45527 7.90078 5.95566 8.39414 5.95566 8.99492C5.95566 9.60097 6.45527 10.0926 7.0498 10.0926ZM10.1719 10.0926C10.7664 10.0926 11.266 9.60097 11.266 8.99492C11.266 8.39414 10.7664 7.90078 10.1719 7.90078C9.56933 7.90078 9.07773 8.39414 9.07773 8.99492C9.07773 9.60097 9.56933 10.0926 10.1719 10.0926ZM13.2727 10.0926C13.8752 10.0926 14.3668 9.60097 14.3668 8.99492C14.3668 8.39414 13.8752 7.90078 13.2727 7.90078C12.6701 7.90078 12.1785 8.39414 12.1785 8.99492C12.1785 9.60097 12.6701 10.0926 13.2727 10.0926ZM16.3947 10.0926C16.9892 10.0926 17.4889 9.60097 17.4889 8.99492C17.4889 8.39414 16.9892 7.90078 16.3947 7.90078C15.7922 7.90078 15.2926 8.39414 15.2926 8.99492C15.2926 9.60097 15.7922 10.0926 16.3947 10.0926ZM19.4955 10.0926C20.098 10.0926 20.5914 9.60097 20.5914 8.99492C20.5914 8.39414 20.098 7.90078 19.4955 7.90078C18.893 7.90078 18.4014 8.39414 18.4014 8.99492C18.4014 9.60097 18.893 10.0926 19.4955 10.0926ZM22.598 9.84492C23.0621 9.84492 23.4445 9.46074 23.4445 8.99492C23.4445 8.53261 23.0621 8.14844 22.598 8.14844C22.134 8.14844 21.7498 8.53261 21.7498 8.99492C21.7498 9.46074 22.134 9.84492 22.598 9.84492ZM0.84824 13.2324C1.30254 13.2324 1.68671 12.85 1.68671 12.3922C1.68671 11.9281 1.30254 11.5457 0.84824 11.5457C0.382421 11.5457 0 11.9281 0 12.3922C0 12.85 0.382421 13.2324 0.84824 13.2324ZM3.94902 13.4898C4.55156 13.4898 5.04316 12.9902 5.04316 12.3922C5.04316 11.7914 4.55156 11.29 3.94902 11.29C3.34648 11.29 2.85488 11.7914 2.85488 12.3922C2.85488 12.9902 3.34648 13.4898 3.94902 13.4898ZM7.0498 13.4898C7.65234 13.4898 8.14394 12.9902 8.14394 12.3922C8.14394 11.7914 7.65234 11.29 7.0498 11.29C6.45527 11.29 5.95566 11.7914 5.95566 12.3922C5.95566 12.9902 6.45527 13.4898 7.0498 13.4898ZM10.1719 13.4978C10.7664 13.4978 11.266 12.9982 11.266 12.4019C11.266 11.7994 10.7664 11.298 10.1719 11.298C9.56933 11.298 9.07773 11.7994 9.07773 12.4019C9.07773 12.9982 9.56933 13.4978 10.1719 13.4978ZM13.2727 13.4978C13.8752 13.4978 14.3668 12.9982 14.3668 12.4019C14.3668 11.7994 13.8752 11.298 13.2727 11.298C12.6701 11.298 12.1785 11.7994 12.1785 12.4019C12.1785 12.9982 12.6701 13.4978 13.2727 13.4978ZM16.3947 13.4898C16.9892 13.4898 17.4889 12.9902 17.4889 12.3922C17.4889 11.7914 16.9892 11.29 16.3947 11.29C15.7922 11.29 15.2926 11.7914 15.2926 12.3922C15.2926 12.9902 15.7922 13.4898 16.3947 13.4898ZM19.4955 13.4898C20.098 13.4898 20.5914 12.9902 20.5914 12.3922C20.5914 11.7914 20.098 11.29 19.4955 11.29C18.893 11.29 18.4014 11.7914 18.4014 12.3922C18.4014 12.9902 18.893 13.4898 19.4955 13.4898ZM22.598 13.2324C23.0621 13.2324 23.4445 12.85 23.4445 12.3922C23.4445 11.9281 23.0621 11.5457 22.598 11.5457C22.134 11.5457 21.7498 11.9281 21.7498 12.3922C21.7498 12.85 22.134 13.2324 22.598 13.2324ZM0.84824 16.3723C1.16582 16.3723 1.43906 16.107 1.43906 15.7797C1.43906 15.4621 1.16582 15.1871 0.84824 15.1871C0.520898 15.1871 0.255664 15.4621 0.255664 15.7797C0.255664 16.107 0.520898 16.3723 0.84824 16.3723ZM3.94902 16.6279C4.41484 16.6279 4.7955 16.2455 4.7955 15.7797C4.7955 15.3219 4.41484 14.9412 3.94902 14.9412C3.4832 14.9412 3.10078 15.3219 3.10078 15.7797C3.10078 16.2455 3.4832 16.6279 3.94902 16.6279ZM7.0498 16.6279C7.51562 16.6279 7.89804 16.2455 7.89804 15.7797C7.89804 15.3219 7.51562 14.9412 7.0498 14.9412C6.59199 14.9412 6.21133 15.3219 6.21133 15.7797C6.21133 16.2455 6.59199 16.6279 7.0498 16.6279ZM10.1719 16.6279C10.6297 16.6279 11.0103 16.2455 11.0103 15.7797C11.0103 15.3219 10.6297 14.9412 10.1719 14.9412C9.70605 14.9412 9.32363 15.3219 9.32363 15.7797C9.32363 16.2455 9.70605 16.6279 10.1719 16.6279ZM13.2727 16.6279C13.7385 16.6279 14.1209 16.2455 14.1209 15.7797C14.1209 15.3219 13.7385 14.9412 13.2727 14.9412C12.8068 14.9412 12.4262 15.3219 12.4262 15.7797C12.4262 16.2455 12.8068 16.6279 13.2727 16.6279ZM16.3947 16.6279C16.8525 16.6279 17.235 16.2455 17.235 15.7797C17.235 15.3219 16.8525 14.9412 16.3947 14.9412C15.9289 14.9412 15.5465 15.3219 15.5465 15.7797C15.5465 16.2455 15.9289 16.6279 16.3947 16.6279ZM19.4955 16.6279C19.9613 16.6279 20.3437 16.2455 20.3437 15.7797C20.3437 15.3219 19.9613 14.9412 19.4955 14.9412C19.0297 14.9412 18.649 15.3219 18.649 15.7797C18.649 16.2455 19.0297 16.6279 19.4955 16.6279ZM22.598 16.3723C22.9236 16.3723 23.1889 16.107 23.1889 15.7797C23.1889 15.4621 22.9236 15.1871 22.598 15.1871C22.2787 15.1871 22.0055 15.4621 22.0055 15.7797C22.0055 16.107 22.2787 16.3723 22.598 16.3723ZM0.84824 19.7713C1.16582 19.7713 1.43906 19.506 1.43906 19.1769C1.43906 18.8514 1.16582 18.5844 0.84824 18.5844C0.520898 18.5844 0.255664 18.8514 0.255664 19.1769C0.255664 19.506 0.520898 19.7713 0.84824 19.7713ZM3.94902 19.7713C4.27636 19.7713 4.5416 19.506 4.5416 19.1769C4.5416 18.8514 4.27636 18.5844 3.94902 18.5844C3.62168 18.5844 3.35644 18.8514 3.35644 19.1769C3.35644 19.506 3.62168 19.7713 3.94902 19.7713ZM7.0498 19.7713C7.3789 19.7713 7.64413 19.506 7.64413 19.1769C7.64413 18.8514 7.3789 18.5844 7.0498 18.5844C6.73222 18.5844 6.45722 18.8514 6.45722 19.1769C6.45722 19.506 6.73222 19.7713 7.0498 19.7713ZM10.1719 20.0269C10.6297 20.0269 11.0103 19.6428 11.0103 19.1769C11.0103 18.7146 10.6297 18.3305 10.1719 18.3305C9.70605 18.3305 9.32363 18.7146 9.32363 19.1769C9.32363 19.6428 9.70605 20.0269 10.1719 20.0269ZM13.2727 20.0269C13.7385 20.0269 14.1209 19.6428 14.1209 19.1769C14.1209 18.7146 13.7385 18.3305 13.2727 18.3305C12.8068 18.3305 12.4262 18.7146 12.4262 19.1769C12.4262 19.6428 12.8068 20.0269 13.2727 20.0269ZM16.3947 19.7713C16.7141 19.7713 16.9873 19.506 16.9873 19.1769C16.9873 18.8514 16.7141 18.5844 16.3947 18.5844C16.0656 18.5844 15.7924 18.8514 15.7924 19.1769C15.7924 19.506 16.0656 19.7713 16.3947 19.7713ZM19.4955 19.7713C19.8228 19.7713 20.0881 19.506 20.0881 19.1769C20.0881 18.8514 19.8228 18.5844 19.4955 18.5844C19.1699 18.5844 18.9029 18.8514 18.9029 19.1769C18.9029 19.506 19.1699 19.7713 19.4955 19.7713ZM22.598 19.7713C22.9236 19.7713 23.1889 19.506 23.1889 19.1769C23.1889 18.8514 22.9236 18.5844 22.598 18.5844C22.2787 18.5844 22.0055 18.8514 22.0055 19.1769C22.0055 19.506 22.2787 19.7713 22.598 19.7713Z" fill="#007aff"/>
  <path d="M11.7289 13.9775C14.3707 13.9775 16.6414 11.642 16.6414 8.71972C16.6414 5.76367 14.3432 3.58262 11.7289 3.58262C9.11464 3.58262 6.82793 5.8125 6.82793 8.74101C6.82793 11.642 9.08535 13.9775 11.7289 13.9775ZM6.68847 21.4316L16.7711 21.4316C19.4303 21.4316 20.1869 20.0668 20.1869 18.773C20.1869 15.7814 16.8465 12.1881 11.7289 12.1881C6.61933 12.1881 3.28242 15.7814 3.28242 18.773C3.28242 20.0773 4.04433 21.4316 6.68847 21.4316Z" fill="#1e1e1e"/>
  <path d="M11.7289 12.5045C13.5529 12.5045 15.1684 10.842 15.1684 8.71972C15.1684 6.60097 13.5529 5.05742 11.7289 5.05742C9.91464 5.05742 8.30097 6.64004 8.30097 8.74101C8.30097 10.842 9.91464 12.5045 11.7289 12.5045ZM6.68847 19.9568L16.7711 19.9568C18.2533 19.9568 18.7121 19.5256 18.7121 18.773C18.7121 16.6268 16.0465 13.6709 11.7289 13.6709C7.42109 13.6709 4.75722 16.6268 4.75722 18.773C4.75722 19.5256 5.20625 19.9568 6.68847 19.9568Z" fill="#ffffff" fill-opacity="0.55"/>
 </g>
</svg>
