<?xml version="1.0" encoding="UTF-8"?>
<!--Generator: Apple Native CoreSVG 232.5-->
<!DOCTYPE svg
PUBLIC "-//W3C//DTD SVG 1.1//EN"
       "http://www.w3.org/Graphics/SVG/1.1/DTD/svg11.dtd">
<svg version="1.1" xmlns="http://www.w3.org/2000/svg" xmlns:xlink="http://www.w3.org/1999/xlink" width="20.1767" height="20.1812">
 <g>
  <rect height="20.1812" opacity="0" width="20.1767" x="0" y="0"/>
  <path d="M10.0875 20.175C15.6141 20.175 20.1767 15.606 20.1767 10.0875C20.1767 4.56094 15.606 0 10.0795 0C4.56269 0 0 4.56094 0 10.0875C0 15.606 4.5707 20.175 10.0875 20.175Z" fill="#007aff"/>
  <path d="M9.86308 12.1158C9.24004 12.1158 8.88906 11.8143 8.88906 11.2359C8.88906 11.2021 8.88906 11.1621 8.88906 11.1283C8.88906 10.2025 9.42188 9.68574 10.1428 9.17968C11.0006 8.58203 11.424 8.26757 11.424 7.62441C11.424 6.9453 10.8758 6.46288 10.0625 6.46288C9.45371 6.46288 8.98007 6.75272 8.63105 7.30351L8.47636 7.51601C8.27323 7.77499 8.01523 7.93925 7.64707 7.93925C7.23418 7.93925 6.84473 7.63183 6.84473 7.14394C6.84473 6.9541 6.8873 6.78105 6.94492 6.6125C7.26054 5.66015 8.43554 4.87422 10.1826 4.87422C11.9892 4.87422 13.5168 5.82968 13.5168 7.52343C13.5168 8.708 12.8646 9.29043 11.86 9.94375C11.2025 10.3711 10.8486 10.7236 10.817 11.2531C10.8152 11.2807 10.8135 11.3295 10.8117 11.3703C10.7836 11.7883 10.4201 12.1158 9.86308 12.1158ZM9.84882 15.2228C9.19433 15.2228 8.64785 14.7453 8.64785 14.1076C8.64785 13.4734 9.18633 12.9844 9.84882 12.9844C10.5113 12.9844 11.0428 13.4672 11.0428 14.1076C11.0428 14.7533 10.5033 15.2228 9.84882 15.2228Z" fill="#ffffff" fill-opacity="0.55"/>
 </g>
</svg>
