<?xml version="1.0" encoding="UTF-8"?>
<!--Generator: Apple Native CoreSVG 232.5-->
<!DOCTYPE svg
PUBLIC "-//W3C//DTD SVG 1.1//EN"
       "http://www.w3.org/Graphics/SVG/1.1/DTD/svg11.dtd">
<svg version="1.1" xmlns="http://www.w3.org/2000/svg" xmlns:xlink="http://www.w3.org/1999/xlink" width="23.1293" height="18.2476">
 <g>
  <rect height="18.2476" opacity="0" width="23.1293" x="0" y="0"/>
  <path d="M3.20351 18.2476L19.9258 18.2476C22.0416 18.2476 23.1293 17.16 23.1293 15.0762L23.1293 3.19101C23.1293 1.10547 22.0416 0.0195312 19.9258 0.0195312L3.20351 0.0195312C1.0957 0.0195312 0 1.09746 0 3.19101L0 15.0762C0 17.168 1.0957 18.2476 3.20351 18.2476ZM3.31444 16.3344C2.40643 16.3344 1.91327 15.8643 1.91327 14.9154L1.91327 3.34999C1.91327 2.40116 2.40643 1.9328 3.31444 1.9328L19.8148 1.9328C20.7149 1.9328 21.216 2.40116 21.216 3.34999L21.216 14.9154C21.216 15.8643 20.7149 16.3344 19.8148 16.3344ZM7.76132 16.6424L9.58103 16.6424L9.58103 1.60643L7.76132 1.60643ZM5.85116 5.50839C6.1951 5.50839 6.49217 5.21308 6.49217 4.88769C6.49217 4.55429 6.1951 4.26523 5.85116 4.26523L3.8412 4.26523C3.49725 4.26523 3.20819 4.55429 3.20819 4.88769C3.20819 5.21308 3.49725 5.50839 3.8412 5.50839ZM5.85116 8.12381C6.1951 8.12381 6.49217 7.8285 6.49217 7.4951C6.49217 7.16171 6.1951 6.88241 5.85116 6.88241L3.8412 6.88241C3.49725 6.88241 3.20819 7.16171 3.20819 7.4951C3.20819 7.8285 3.49725 8.12381 3.8412 8.12381ZM5.85116 10.733C6.1951 10.733 6.49217 10.4519 6.49217 10.1185C6.49217 9.78514 6.1951 9.49784 5.85116 9.49784L3.8412 9.49784C3.49725 9.49784 3.20819 9.78514 3.20819 10.1185C3.20819 10.4519 3.49725 10.733 3.8412 10.733Z" fill="#ffffff" fill-opacity="0.55"/>
 </g>
</svg>
