<?xml version="1.0" encoding="UTF-8"?>
<!--Generator: Apple Native CoreSVG 232.5-->
<!DOCTYPE svg
PUBLIC "-//W3C//DTD SVG 1.1//EN"
       "http://www.w3.org/Graphics/SVG/1.1/DTD/svg11.dtd">
<svg version="1.1" xmlns="http://www.w3.org/2000/svg" xmlns:xlink="http://www.w3.org/1999/xlink" width="18.4881" height="18.6094">
 <g>
  <rect height="18.6094" opacity="0" width="18.4881" x="0" y="0"/>
  <path d="M0 11.693C0 13.0717 1.12851 14.2002 2.50722 14.2002C3.88768 14.2002 5.02421 13.0752 5.02421 11.693C5.02421 10.3125 3.88768 9.18573 2.50722 9.18573C1.12851 9.18573 0 10.3125 0 11.693ZM1.31191 11.693C1.31191 11.0221 1.84433 10.4976 2.51523 10.4976C3.1914 10.4976 3.7123 11.0221 3.7123 11.693C3.7123 12.3691 3.1914 12.8883 2.51523 12.8883C1.84433 12.8883 1.31191 12.3691 1.31191 11.693ZM2.51523 0C2.0125 0 1.58535 0.409568 1.58535 0.921088L1.58535 9.99081L3.4371 9.99081L3.4371 0.921088C3.4371 0.40781 3.02675 0 2.51523 0ZM2.51523 17.7289C3.03026 17.7289 3.4371 17.3228 3.4371 16.8416L3.4371 13.5047L1.58535 13.5047L1.58535 16.8416C1.58535 17.3211 2.00722 17.7289 2.51523 17.7289ZM6.72792 5.93065C6.72792 7.3076 7.86444 8.43963 9.24315 8.43963C10.6236 8.43963 11.7521 7.31112 11.7521 5.93065C11.7521 4.55195 10.6236 3.42343 9.24315 3.42343C7.86444 3.42343 6.72792 4.55195 6.72792 5.93065ZM8.04784 5.93065C8.04784 5.26776 8.58026 4.73534 9.24315 4.73534C9.91932 4.73534 10.4402 5.26776 10.4402 5.93065C10.4402 6.60682 9.91932 7.12772 9.24315 7.12772C8.58026 7.12772 8.04784 6.60682 8.04784 5.93065ZM9.24315 0C8.74042 0 8.32128 0.409568 8.32128 0.887299L8.32128 4.15429L10.173 4.15429L10.173 0.887299C10.173 0.40781 9.75291 0 9.24315 0ZM9.24315 17.7289C9.75819 17.7289 10.173 17.3228 10.173 16.8096L10.173 7.60995L8.32128 7.60995L8.32128 16.8096C8.32128 17.3211 8.73515 17.7289 9.24315 17.7289ZM13.4719 11.693C13.4719 13.0717 14.6004 14.2002 15.9791 14.2002C17.3595 14.2002 18.4881 13.0717 18.4881 11.693C18.4881 10.3125 17.3595 9.18573 15.9791 9.18573C14.6004 9.18573 13.4719 10.3125 13.4719 11.693ZM14.7838 11.693C14.7838 11.0221 15.3162 10.4976 15.9791 10.4976C16.6633 10.4976 17.1762 11.0221 17.1762 11.693C17.1762 12.3691 16.6633 12.8883 15.9791 12.8883C15.3162 12.8883 14.7838 12.3691 14.7838 11.693ZM15.9791 0C15.4764 0 15.0492 0.409568 15.0492 0.921088L15.0492 10.0326L16.901 10.0326L16.901 0.921088C16.901 0.40781 16.4888 0 15.9791 0ZM15.9791 17.7289C16.4941 17.7289 16.901 17.3228 16.901 16.8416L16.901 13.3908L15.0492 13.3908L15.0492 16.8416C15.0492 17.3211 15.4711 17.7289 15.9791 17.7289Z" fill="#ffffff" fill-opacity="0.55"/>
 </g>
</svg>
