<?xml version="1.0" encoding="UTF-8"?>
<!--Generator: Apple Native CoreSVG 232.5-->
<!DOCTYPE svg
PUBLIC "-//W3C//DTD SVG 1.1//EN"
       "http://www.w3.org/Graphics/SVG/1.1/DTD/svg11.dtd">
<svg version="1.1" xmlns="http://www.w3.org/2000/svg" xmlns:xlink="http://www.w3.org/1999/xlink" width="24.2416" height="25.4125">
 <g>
  <rect height="25.4125" opacity="0" width="24.2416" x="0" y="0"/>
  <path d="M3.20469 18.9904L10.7922 23.3924C11.3031 23.6887 11.6953 23.8332 12.1168 23.8332C12.5463 23.8332 12.9322 23.6887 13.4494 23.3924L21.0369 18.9904C21.8666 18.5103 22.2221 18.0998 22.2221 17.4863C22.2221 16.8666 21.8666 16.4561 21.0369 15.9742L13.4494 11.574C12.9322 11.2777 12.5463 11.1315 12.1168 11.1315C11.6953 11.1315 11.3031 11.2777 10.7922 11.574L3.20469 15.9742C2.37501 16.4561 2.01954 16.8666 2.01954 17.4863C2.01954 18.0998 2.37501 18.5103 3.20469 18.9904Z" fill="#007aff"/>
  <path d="M0 12.9264C0 14.2365 0.659178 15.2889 2.18692 16.1744L11.6338 21.657C11.7998 21.7449 11.9721 21.8018 12.1168 21.8018C12.2695 21.8018 12.4418 21.7449 12.6078 21.657L22.0547 16.1744C23.5619 15.2969 24.2416 14.2365 24.2416 12.9264C24.2416 11.618 23.5699 10.5656 22.0547 9.68008L14.4609 5.26386C13.6076 4.78261 12.8813 4.55195 12.1168 4.55195C11.3604 4.55195 10.626 4.78261 9.78243 5.26386L2.18692 9.68008C0.66367 10.5656 0 11.618 0 12.9264Z" fill="#1e1e1e"/>
  <path d="M3.20469 14.4322L10.7922 18.8404C11.3031 19.1367 11.6953 19.2812 12.1168 19.2812C12.5463 19.2812 12.9322 19.1367 13.4494 18.8404L21.0369 14.4322C21.8666 13.9504 22.2221 13.5478 22.2221 12.9264C22.2221 12.3066 21.8666 11.9041 21.0369 11.4143L13.4494 7.01407C12.9322 6.71778 12.5463 6.57149 12.1168 6.57149C11.6953 6.57149 11.3031 6.71778 10.7922 7.01407L3.20469 11.4143C2.37501 11.9041 2.01954 12.3066 2.01954 12.9264C2.01954 13.5478 2.37501 13.9504 3.20469 14.4322Z" fill="#007aff"/>
  <path d="M0 8.36817C0 9.67656 0.659178 10.7289 2.18692 11.6145L11.6338 17.0971C11.7998 17.185 11.9721 17.2418 12.1168 17.2418C12.2695 17.2418 12.4418 17.185 12.6078 17.0971L22.0547 11.6145C23.5619 10.7369 24.2416 9.67656 24.2416 8.36817C24.2416 7.05801 23.5699 6.00567 22.0547 5.12012L14.4609 0.711914C13.6076 0.222656 12.8813 0 12.1168 0C11.3604 0 10.626 0.222656 9.78243 0.711914L2.18692 5.12012C0.66367 6.00567 0 7.05801 0 8.36817Z" fill="#1e1e1e"/>
  <path d="M3.20469 9.6955L10.7922 14.0957C11.3031 14.3937 11.6953 14.5383 12.1168 14.5383C12.5463 14.5383 12.9322 14.3937 13.4494 14.0957L21.0369 9.6955C21.8666 9.21543 22.2221 8.80312 22.2221 8.1834C22.2221 7.57169 21.8666 7.16114 21.0369 6.67931L13.4494 2.27911C12.9322 1.98282 12.5463 1.83653 12.1168 1.83653C11.6953 1.83653 11.3031 1.98282 10.7922 2.27911L3.20469 6.67931C2.37501 7.16114 2.01954 7.57169 2.01954 8.1834C2.01954 8.80312 2.37501 9.21543 3.20469 9.6955ZM4.54726 8.2793C4.45488 8.23223 4.45488 8.14258 4.54726 8.09551L11.6836 4.00644C11.8496 3.91855 11.9801 3.86972 12.1168 3.86972C12.2615 3.86972 12.3938 3.91855 12.558 4.00644L19.6944 8.09551C19.7885 8.14258 19.7885 8.23223 19.6944 8.2793L12.558 12.3684C12.3938 12.4563 12.2695 12.5068 12.1168 12.5068C11.9721 12.5068 11.8496 12.4563 11.6836 12.3684Z" fill="#ffffff" fill-opacity="0.55"/>
 </g>
</svg>
