<?xml version="1.0" encoding="UTF-8"?>
<!--Generator: Apple Native CoreSVG 232.5-->
<!DOCTYPE svg
PUBLIC "-//W3C//DTD SVG 1.1//EN"
       "http://www.w3.org/Graphics/SVG/1.1/DTD/svg11.dtd">
<svg version="1.1" xmlns="http://www.w3.org/2000/svg" xmlns:xlink="http://www.w3.org/1999/xlink" width="17.6486" height="21.6391">
 <g>
  <rect height="21.6391" opacity="0" width="17.6486" x="0" y="0"/>
  <path d="M0 18.0074C0 20.093 1.0957 21.1789 3.20351 21.1789L14.4451 21.1789C16.5529 21.1789 17.6486 20.093 17.6486 18.0074L17.6486 8.63945C17.6486 6.55566 16.5529 5.46797 14.4451 5.46797L9.72811 5.46797L9.72811 0.890034C9.72811 0.414841 9.32382 0 8.82831 0C8.33281 0 7.92051 0.414841 7.92051 0.890034L7.92051 5.46797L3.20351 5.46797C1.0957 5.46797 0 6.55566 0 8.63945ZM8.82909 14.9135C8.59511 14.9135 8.3834 14.8391 8.14492 14.6103L4.86523 11.4434C4.70117 11.2793 4.61426 11.1055 4.61426 10.8723C4.61426 10.4156 4.96523 10.0955 5.41406 10.0955C5.633 10.0955 5.86894 10.1877 6.02499 10.3615L7.54453 11.9717L8.00195 12.5357L7.9293 11.0814L7.9293 6.21308C7.9293 5.71387 8.2998 5.34082 8.82909 5.34082C9.35663 5.34082 9.7369 5.71387 9.7369 6.21308L9.7369 11.0814L9.66425 12.5357L10.1137 11.9717L11.6412 10.3615C11.7973 10.1877 12.0154 10.0955 12.2424 10.0955C12.6832 10.0955 13.0519 10.4156 13.0519 10.8723C13.0519 11.1055 12.9553 11.2793 12.7912 11.4434L9.51327 14.6103C9.28104 14.8391 9.07109 14.9135 8.82909 14.9135Z" fill="#ffffff" fill-opacity="0.55"/>
 </g>
</svg>
