<?xml version="1.0" encoding="UTF-8"?>
<!--Generator: Apple Native CoreSVG 232.5-->
<!DOCTYPE svg
PUBLIC "-//W3C//DTD SVG 1.1//EN"
       "http://www.w3.org/Graphics/SVG/1.1/DTD/svg11.dtd">
<svg version="1.1" xmlns="http://www.w3.org/2000/svg" xmlns:xlink="http://www.w3.org/1999/xlink" width="18.2281" height="18.2476">
 <g>
  <rect height="18.2476" opacity="0" width="18.2281" x="0" y="0"/>
  <path d="M3.20351 18.2476L15.0246 18.2476C17.1404 18.2476 18.2281 17.16 18.2281 15.0762L18.2281 3.19101C18.2281 1.10547 17.1404 0.0195312 15.0246 0.0195312L3.20351 0.0195312C1.0957 0.0195312 0 1.09746 0 3.19101L0 15.0762C0 17.168 1.0957 18.2476 3.20351 18.2476ZM3.31444 16.3344C2.40643 16.3344 1.91327 15.8643 1.91327 14.9154L1.91327 3.34999C1.91327 2.40116 2.40643 1.9328 3.31444 1.9328L14.9137 1.9328C15.8137 1.9328 16.3148 2.40116 16.3148 3.34999L16.3148 14.9154C16.3148 15.8643 15.8137 16.3344 14.9137 16.3344Z" fill="#007aff"/>
  <path d="M11.1598 4.12381L11.1598 14.1416C11.1598 14.6856 11.3908 14.9051 11.9508 14.9051L14.1043 14.9051C14.6643 14.9051 14.8953 14.6856 14.8953 14.1416L14.8953 4.12381C14.8953 3.57186 14.6643 3.35233 14.1043 3.35233L11.9508 3.35233C11.3908 3.35233 11.1598 3.57186 11.1598 4.12381Z" fill="#ffffff" fill-opacity="0.55"/>
 </g>
</svg>
