<?xml version="1.0" encoding="UTF-8"?>
<!--Generator: Apple Native CoreSVG 232.5-->
<!DOCTYPE svg
PUBLIC "-//W3C//DTD SVG 1.1//EN"
       "http://www.w3.org/Graphics/SVG/1.1/DTD/svg11.dtd">
<svg version="1.1" xmlns="http://www.w3.org/2000/svg" xmlns:xlink="http://www.w3.org/1999/xlink" width="24.5051" height="25.0441">
 <g>
  <rect height="25.0441" opacity="0" width="24.5051" x="0" y="0"/>
  <path d="M5.81367 4.08653C6.21211 4.08653 6.53691 3.76172 6.53691 3.36153C6.53691 2.96309 6.21211 2.63829 5.81367 2.63829C5.41523 2.63829 5.09043 2.96309 5.09043 3.36153C5.09043 3.76172 5.41523 4.08653 5.81367 4.08653ZM4.80254 5.91075C5.20273 5.91075 5.52754 5.59395 5.52754 5.1875C5.52754 4.78907 5.20273 4.46426 4.80254 4.46426C4.4041 4.46426 4.0793 4.78907 4.0793 5.1875C4.0793 5.59395 4.4041 5.91075 4.80254 5.91075ZM3.78691 7.75449C4.18535 7.75449 4.51015 7.42969 4.51015 7.03125C4.51015 6.63282 4.18535 6.30801 3.78691 6.30801C3.38672 6.30801 3.06191 6.63282 3.06191 7.03125C3.06191 7.42969 3.38672 7.75449 3.78691 7.75449ZM2.75976 9.57246C3.1582 9.57246 3.48301 9.24766 3.48301 8.84746C3.48301 8.44903 3.1582 8.12422 2.75976 8.12422C2.35957 8.12422 2.03477 8.44903 2.03477 8.84746C2.03477 9.24766 2.35957 9.57246 2.75976 9.57246ZM1.75039 11.4127C2.14883 11.4127 2.47363 11.0879 2.47363 10.6895C2.47363 10.283 2.14883 9.95821 1.75039 9.95821C1.34394 9.95821 1.02715 10.283 1.02715 10.6895C1.02715 11.0879 1.34394 11.4127 1.75039 11.4127ZM0.723241 13.2404C1.12168 13.2404 1.44648 12.9156 1.44648 12.5172C1.44648 12.1188 1.12168 11.7939 0.723241 11.7939C0.324804 11.7939 0 12.1188 0 12.5172C0 12.9156 0.324804 13.2404 0.723241 13.2404ZM1.75039 15.0682C2.14883 15.0682 2.47363 14.7434 2.47363 14.3449C2.47363 13.9447 2.14883 13.6199 1.75039 13.6199C1.34394 13.6199 1.02715 13.9447 1.02715 14.3449C1.02715 14.7434 1.34394 15.0682 1.75039 15.0682ZM2.75976 16.9102C3.1582 16.9102 3.48301 16.5836 3.48301 16.1852C3.48301 15.7787 3.1582 15.4619 2.75976 15.4619C2.35957 15.4619 2.03477 15.7787 2.03477 16.1852C2.03477 16.5836 2.35957 16.9102 2.75976 16.9102ZM3.78691 18.7264C4.18535 18.7264 4.51015 18.4016 4.51015 18.0031C4.51015 17.6047 4.18535 17.2799 3.78691 17.2799C3.38672 17.2799 3.06191 17.6047 3.06191 18.0031C3.06191 18.4016 3.38672 18.7264 3.78691 18.7264ZM4.80254 20.5621C5.20273 20.5621 5.52754 20.2373 5.52754 19.8389C5.52754 19.4404 5.20273 19.1139 4.80254 19.1139C4.4041 19.1139 4.0793 19.4404 4.0793 19.8389C4.0793 20.2373 4.4041 20.5621 4.80254 20.5621ZM5.81367 22.3961C6.21211 22.3961 6.53691 22.0695 6.53691 21.6711C6.53691 21.2727 6.21211 20.9479 5.81367 20.9479C5.41523 20.9479 5.09043 21.2727 5.09043 21.6711C5.09043 22.0695 5.41523 22.3961 5.81367 22.3961Z" fill="#ffffff" fill-opacity="0.55"/>
  <path d="M10.7529 22.6225C11.3726 22.6225 11.7787 22.259 12.257 21.4373L16.6627 13.8418C16.9572 13.3309 17.1053 12.9307 17.1053 12.5172C17.1053 12.0957 16.9572 11.7018 16.6627 11.1926L12.257 3.59707C11.7787 2.77539 11.3726 2.41192 10.7529 2.41192C10.1332 2.41192 9.72715 2.77539 9.24082 3.59707L4.83516 11.1926C4.54063 11.7018 4.40235 12.0957 4.40235 12.5172C4.40235 12.9307 4.54863 13.3309 4.84317 13.8418L9.24082 21.4373C9.72715 22.259 10.1332 22.6225 10.7529 22.6225Z" fill="#ffffff" fill-opacity="0.55"/>
  <path d="M15.7426 25.0344C17.1566 25.0344 18.3488 24.3332 19.3379 22.6455L23.7355 15.0482C24.2859 14.0967 24.5051 13.3055 24.5051 12.5172C24.5051 11.7272 24.2859 10.9297 23.7355 9.98438L19.3379 2.38887C18.3568 0.701171 17.1566 0 15.7426 0C14.3187 0 13.1203 0.713671 12.1455 2.38887L6.5953 11.9668C6.46698 12.1871 6.39979 12.3455 6.39979 12.5172C6.39979 12.6729 6.46698 12.8375 6.5953 13.0676L12.1455 22.6455C13.1283 24.335 14.3267 25.0344 15.7426 25.0344Z" fill="#1e1e1e"/>
  <path d="M15.6945 22.6225C16.3142 22.6225 16.7185 22.259 17.2066 21.4373L21.6043 13.8418C21.8988 13.3309 22.0451 12.9307 22.0451 12.5172C22.0451 12.0957 21.8988 11.7018 21.6043 11.1926L17.2066 3.59707C16.7185 2.77539 16.3142 2.41192 15.6945 2.41192C15.0748 2.41192 14.6687 2.77539 14.1904 3.59707L9.78476 11.1926C9.49023 11.7018 9.34218 12.0957 9.34218 12.5172C9.34218 12.9307 9.49023 13.3309 9.78476 13.8418L14.1904 21.4373C14.6687 22.259 15.0748 22.6225 15.6945 22.6225Z" fill="#ffffff" fill-opacity="0.55"/>
 </g>
</svg>
