<?xml version="1.0" encoding="UTF-8"?>
<!--Generator: Apple Native CoreSVG 232.5-->
<!DOCTYPE svg
PUBLIC "-//W3C//DTD SVG 1.1//EN"
       "http://www.w3.org/Graphics/SVG/1.1/DTD/svg11.dtd">
<svg version="1.1" xmlns="http://www.w3.org/2000/svg" xmlns:xlink="http://www.w3.org/1999/xlink" width="17.6486" height="25.4051">
 <g>
  <rect height="25.4051" opacity="0" width="17.6486" x="0" y="0"/>
  <path d="M3.20351 23.0619L14.4451 23.0619C16.5529 23.0619 17.6486 21.976 17.6486 19.8904L17.6486 10.2779C17.6486 8.19238 16.5529 7.10645 14.4451 7.10645L3.20351 7.10645C1.0957 7.10645 0 8.19238 0 10.2779L0 19.8904C0 21.976 1.0957 23.0619 3.20351 23.0619ZM1.91327 19.7234L1.91327 10.4449C1.91327 9.49608 2.40643 9.01972 3.31444 9.01972L14.3262 9.01972C15.2262 9.01972 15.7354 9.49608 15.7354 10.4449L15.7354 19.7234C15.7354 20.6723 15.2262 21.1486 14.3262 21.1486L3.31444 21.1486C2.40643 21.1486 1.91327 20.6723 1.91327 19.7234Z" fill="#007aff"/>
  <path d="M11.6111 15.2289L11.6111 2.77304C11.6111 1.25918 10.3607 0 8.82031 0C7.28965 0 6.0375 1.25918 6.0375 2.77304L6.0375 15.2289C6.0375 16.749 7.28965 18.0019 8.82031 18.0019C10.3607 18.0019 11.6111 16.749 11.6111 15.2289Z" fill="#1e1e1e"/>
  <path d="M8.82031 16.731C9.0623 16.731 9.27401 16.6566 9.50448 16.4279L12.7842 13.2609C12.9482 13.0969 13.0432 12.923 13.0432 12.6898C13.0432 12.2332 12.6744 11.9131 12.2353 11.9131C12.0066 11.9131 11.7885 12.0053 11.6324 12.1791L10.257 13.6371L9.63612 14.3533L9.72811 12.899L9.72811 2.77304C9.72811 2.29433 9.31581 1.88301 8.82031 1.88301C8.3248 1.88301 7.92051 2.29433 7.92051 2.77304L7.92051 12.899L8.01426 14.3533L7.38359 13.6371L6.0162 12.1791C5.86015 12.0053 5.62597 11.9131 5.40527 11.9131C4.9582 11.9131 4.60547 12.2332 4.60547 12.6898C4.60547 12.923 4.69414 13.0969 4.85644 13.2609L8.13613 16.4279C8.37636 16.6566 8.58632 16.731 8.82031 16.731Z" fill="#ffffff" fill-opacity="0.55"/>
 </g>
</svg>
