<?xml version="1.0" encoding="UTF-8"?>
<!--Generator: Apple Native CoreSVG 232.5-->
<!DOCTYPE svg
PUBLIC "-//W3C//DTD SVG 1.1//EN"
       "http://www.w3.org/Graphics/SVG/1.1/DTD/svg11.dtd">
<svg version="1.1" xmlns="http://www.w3.org/2000/svg" xmlns:xlink="http://www.w3.org/1999/xlink" width="21.7531" height="27.0623">
 <g>
  <rect height="27.0623" opacity="0" width="21.7531" x="0" y="0"/>
  <path d="M0 18.5456C0 20.4413 1.50703 20.5057 2.51483 19.9163L10.3719 15.3845C11.4141 14.7831 11.5488 14.5579 11.5488 13.3472L11.5488 4.19989C11.5488 2.28818 10.0258 2.24775 9.03398 2.82119L1.17695 7.36103C0.134765 7.95439 0 8.18759 0 9.39833Z" fill="#007aff"/>
  <path d="M1.87733 20.6979C1.87733 24.1901 4.76464 25.8458 7.78691 24.1104L15.4082 19.7245C17.0807 18.7667 17.8137 17.5227 17.8137 15.5413L17.8137 6.75517C17.8137 3.17235 14.8482 1.64012 11.9166 3.32841L2.36639 8.84326C1.96874 9.06591 1.87733 9.21337 1.87733 9.68035Z" fill="#1e1e1e"/>
  <path d="M3.94746 20.8216C3.94746 22.7173 5.44648 22.7817 6.46229 22.1923L14.3193 17.6604C15.3615 17.0591 15.4883 16.8339 15.4883 15.6231L15.4883 6.46786C15.4883 4.56415 13.9732 4.52373 12.9814 5.09716L5.1164 9.629C4.08222 10.2304 3.94746 10.4636 3.94746 11.6663Z" fill="#007aff"/>
  <path d="M5.82479 22.9659C5.82479 26.4839 8.79393 28.072 11.7344 26.3864L19.3557 22.0005C21.0281 21.0347 21.7531 19.7987 21.7531 17.8093L21.7531 9.03114C21.7531 5.44833 18.7957 3.9161 15.856 5.60438L6.30584 11.1192C5.9162 11.3419 5.82479 11.4893 5.82479 11.9563Z" fill="#1e1e1e"/>
  <path d="M8.06015 23.0343C8.06015 24.7645 9.36171 25.2639 10.6906 24.4948L18.3021 20.1266C19.3025 19.5493 19.609 19.0386 19.609 17.8358L19.609 8.85223C19.609 7.16201 18.3252 6.76045 16.9963 7.52158L9.38476 11.9138C8.36035 12.5071 8.06015 13.0276 8.06015 14.2063ZM10.0033 22.539L10.0033 14.2743C10.0033 13.9138 10.1107 13.7343 10.4172 13.5593L17.5496 9.37703C17.6375 9.3282 17.7156 9.35574 17.7156 9.46941L17.7156 17.7421C17.7156 18.0608 17.6082 18.2821 17.3018 18.4651L10.1613 22.6153C10.0734 22.6722 10.0033 22.6366 10.0033 22.539Z" fill="#ffffff" fill-opacity="0.55"/>
 </g>
</svg>
