<?xml version="1.0" encoding="UTF-8"?>
<!--Generator: Apple Native CoreSVG 232.5-->
<!DOCTYPE svg
PUBLIC "-//W3C//DTD SVG 1.1//EN"
       "http://www.w3.org/Graphics/SVG/1.1/DTD/svg11.dtd">
<svg version="1.1" xmlns="http://www.w3.org/2000/svg" xmlns:xlink="http://www.w3.org/1999/xlink" width="22.4895" height="22.8582">
 <g>
  <rect height="22.8582" opacity="0" width="22.4895" x="0" y="0"/>
  <path d="M3.63203 17.2996L5.54726 20.6082C6.46308 22.1967 7.77499 22.5861 9.37772 21.6623L20.9752 14.9603C22.5779 14.0365 22.899 12.6988 21.9832 11.1184L20.0679 7.81778C19.1281 6.18126 17.7824 5.75801 16.1957 6.67383L4.59023 13.3918C3.00351 14.3076 2.69219 15.6631 3.63203 17.2996ZM5.29569 16.4043C4.98455 15.8674 5.12323 15.2389 5.62186 14.958L17.0564 8.35878C17.5551 8.06991 18.1693 8.25214 18.4787 8.77929L20.3453 12.0217C20.6404 12.5346 20.46 13.0955 19.9613 13.3941L8.52675 20.0014C8.02811 20.2902 7.43788 20.1258 7.15428 19.6387ZM11.3629 10.4486L15.3135 17.2849L16.9293 16.3525L12.9787 9.50997Z" fill="#007aff"/>
  <path d="M3.16152 18.8207L6.47011 20.7279C8.06659 21.6553 9.41756 21.2933 10.3139 19.7279L17.5617 7.16757C18.4803 5.58437 18.0943 4.26894 16.4898 3.34512L13.1892 1.43789C11.5527 0.494535 10.1857 0.824416 9.28144 2.38984L2.03359 14.9502C1.13105 16.5156 1.53301 17.8728 3.16152 18.8207Z" fill="#1e1e1e"/>
  <path d="M3.16152 18.8207L6.47011 20.7279C8.06659 21.6553 9.41756 21.2933 10.3139 19.7279L17.5617 7.16757C18.4803 5.58437 18.0943 4.26894 16.4898 3.34512L13.1892 1.43789C11.5527 0.494535 10.1857 0.824416 9.28144 2.38984L2.03359 14.9502C1.13105 16.5156 1.53301 17.8728 3.16152 18.8207ZM4.13905 17.2154C3.60389 16.9043 3.41366 16.3033 3.70428 15.7932L10.8494 3.40995C11.1383 2.90155 11.7588 2.77265 12.2859 3.07577L15.5283 4.94237C16.0234 5.23749 16.1799 5.80644 15.883 6.32285L8.74589 18.698C8.44902 19.2082 7.87655 19.3691 7.37342 19.082ZM6.95684 8.06757L13.8012 12.0164L14.7336 10.4006L7.89726 6.45ZM3.56093 13.9764L10.4035 17.9269L11.3439 16.3014L4.50937 12.3525Z" fill="#007aff"/>
  <path d="M2.91054 22.8396L6.72499 22.8396C8.56639 22.8396 9.5617 21.8621 9.5617 20.0518L9.5617 2.77988C9.5617 0.969528 8.56639 0 6.72499 0L2.91054 0C1.01933 0 0 0.969528 0 2.77988L0 20.0518C0 21.8621 1.01933 22.8396 2.91054 22.8396Z" fill="#1e1e1e"/>
  <path d="M2.91054 22.8396L6.72499 22.8396C8.56639 22.8396 9.5617 21.8621 9.5617 20.0518L9.5617 2.77988C9.5617 0.969528 8.56639 0 6.72499 0L2.91054 0C1.01933 0 0 0.969528 0 2.77988L0 20.0518C0 21.8621 1.01933 22.8396 2.91054 22.8396ZM2.95117 20.9668C2.3369 20.9668 1.87284 20.5348 1.87284 19.949L1.87284 2.88261C1.87284 2.29686 2.3369 1.87284 2.95117 1.87284L6.68437 1.87284C7.26659 1.87284 7.69062 2.29686 7.69062 2.88261L7.69062 19.949C7.69062 20.5348 7.26659 20.9668 6.68437 20.9668ZM0.835155 8.86503L8.72655 8.86503L8.72655 6.99219L0.835155 6.99219ZM0.835155 15.8474L8.72655 15.8474L8.72655 13.9746L0.835155 13.9746Z" fill="#ffffff" fill-opacity="0.55"/>
 </g>
</svg>
