<?xml version="1.0" encoding="UTF-8"?>
<!--Generator: Apple Native CoreSVG 232.5-->
<!DOCTYPE svg
PUBLIC "-//W3C//DTD SVG 1.1//EN"
       "http://www.w3.org/Graphics/SVG/1.1/DTD/svg11.dtd">
<svg version="1.1" xmlns="http://www.w3.org/2000/svg" xmlns:xlink="http://www.w3.org/1999/xlink" width="22.2089" height="23.4195">
 <g>
  <rect height="23.4195" opacity="0" width="22.2089" x="0" y="0"/>
  <path d="M11.8042 22.3236L21.3696 12.7421C22.1319 11.9798 22.2089 11.5248 22.2089 10.4273L22.2089 6.72164C22.2089 5.64781 21.9542 5.27809 21.1645 4.48669L18.9272 2.25114C18.1438 1.46774 17.7741 1.2068 16.702 1.2068L12.9884 1.2068C11.8891 1.2068 11.4509 1.28903 10.6886 2.05309L1.09734 11.6265C-0.355388 13.0793-0.379412 14.623 1.10711 16.0998L7.33094 22.3156C8.8157 23.7941 10.3514 23.7781 11.8042 22.3236ZM10.5667 20.8466C9.91277 21.5006 9.23562 21.5121 8.57019 20.8386L2.57604 14.8543C1.9071 14.1888 1.92389 13.5019 2.56628 12.8578L12.0399 3.40015C12.237 3.20484 12.4245 3.08843 12.7425 3.08843L16.6886 3.08843C16.9807 3.08843 17.1841 3.20035 17.3751 3.39136L20.0305 6.03882C20.2216 6.2316 20.3255 6.43492 20.3255 6.72535L20.3255 10.6795C20.3255 11.0017 20.2241 11.191 20.0323 11.381ZM15.4909 9.33042C16.2878 9.33042 16.8921 8.71011 16.8921 7.93101C16.8921 7.14391 16.2878 6.52984 15.4909 6.52984C14.6878 6.52984 14.0915 7.14391 14.0915 7.93101C14.0915 8.71011 14.6878 9.33042 15.4909 9.33042Z" fill="#ffffff" fill-opacity="0.55"/>
 </g>
</svg>
