<?xml version="1.0" encoding="UTF-8"?>
<!--Generator: Apple Native CoreSVG 232.5-->
<!DOCTYPE svg
PUBLIC "-//W3C//DTD SVG 1.1//EN"
       "http://www.w3.org/Graphics/SVG/1.1/DTD/svg11.dtd">
<svg version="1.1" xmlns="http://www.w3.org/2000/svg" xmlns:xlink="http://www.w3.org/1999/xlink" width="20.965" height="20.9515">
 <g>
  <rect height="20.9515" opacity="0" width="20.965" x="0" y="0"/>
  <path d="M18.7072 15.9185L13.5322 15.9185L13.5322 17.032C13.5322 18.5582 14.5799 19.6051 16.1246 19.6051C17.6595 19.6051 18.7072 18.5582 18.7072 17.032Z" fill="#007aff"/>
  <path d="M12.2195 1.87792L20.0252 1.87792C20.5394 1.87792 20.965 1.44433 20.965 0.930073C20.965 0.415818 20.5412 0 20.0252 0L12.2195 0C11.6662 0 11.2717 0.410545 11.2717 0.930073C11.2717 1.44784 11.6697 1.87792 12.2195 1.87792ZM16.1246 20.9107C18.4918 20.9107 20.0324 19.3869 20.0324 17.032L20.0324 0.850194L18.2361 0.850194L18.2361 17.032C18.2361 18.2965 17.3996 19.1277 16.1246 19.1277C14.8398 19.1277 14.0033 18.2965 14.0033 17.032L14.0033 0.850194L12.1955 0.850194L12.1955 17.032C12.1955 19.3869 13.7459 20.9107 16.1246 20.9107ZM13.5773 7.65097L16.0453 7.65097C16.3869 7.65097 16.6451 7.383 16.6451 7.03339C16.6451 6.71308 16.3709 6.44687 16.0373 6.44687L13.5773 6.44687ZM13.5773 10.8185L16.0453 10.8185C16.3869 10.8185 16.6451 10.5586 16.6451 10.2072C16.6451 9.88515 16.3789 9.61093 16.0453 9.61093L13.5773 9.61093ZM13.5773 13.9924L16.0373 13.9924C16.3967 13.9924 16.6451 13.7342 16.6371 13.3881C16.6371 13.0625 16.3709 12.7865 16.0373 12.7865L13.5773 12.7865Z" fill="#ffffff" fill-opacity="0.55"/>
  <path d="M7.43554 4.39804L2.25253 4.39804L2.25253 17.032C2.25253 18.5582 3.30819 19.6051 4.85292 19.6051C6.37987 19.6051 7.43554 18.5582 7.43554 17.032Z" fill="#007aff"/>
  <path d="M0.939839 1.87792L8.74549 1.87792C9.25975 1.87792 9.69334 1.44433 9.69334 0.930073C9.69334 0.415818 9.26151 0 8.74549 0L0.939839 0C0.386521 0 0 0.410545 0 0.930073C0 1.44784 0.390037 1.87792 0.939839 1.87792ZM4.85292 20.9107C7.2201 20.9107 8.75272 19.3869 8.75272 17.032L8.75272 0.850194L6.95644 0.850194L6.95644 17.032C6.95644 18.2965 6.11991 19.1277 4.85292 19.1277C3.56815 19.1277 2.73163 18.2965 2.73163 17.032L2.73163 0.850194L0.923827 0.850194L0.923827 17.032C0.923827 19.3869 2.46621 20.9107 4.85292 20.9107Z" fill="#ffffff" fill-opacity="0.55"/>
  <path d="M2.73163 7.65097L2.73163 6.44687L4.75761 6.44687C5.0912 6.44687 5.37343 6.71308 5.37343 7.03339C5.37343 7.383 5.10722 7.65097 4.76562 7.65097ZM2.73163 10.8185L2.73163 9.61093L4.76562 9.61093C5.09921 9.61093 5.37343 9.88515 5.37343 10.2072C5.37343 10.5586 5.10722 10.8185 4.76562 10.8185ZM2.73163 13.9924L2.73163 12.7865L4.75761 12.7865C5.0912 12.7865 5.36542 13.0625 5.36542 13.3881C5.37343 13.7342 5.11698 13.9924 4.75761 13.9924Z" fill="#ffffff" fill-opacity="0.55"/>
 </g>
</svg>
